<svg xmlns="http://www.w3.org/2000/svg" viewBox="0 0 467.41 431"><defs><style>.a{fill:#fff;}.b{fill:#231f20;}.c{fill:#f9ed21;}.d{fill:#e52625;}.e{fill:#7cc242;}.f{fill:#3cbeee;}.g{fill:#fff200;}.h{fill:#fce400;}.i{fill:#ce2c27;}.j{fill:#00bde6;}</style></defs><path class="a" d="M405.59,157.49h-1.07L364.05,90.69a62.08,62.08,0,0,0,3.25-8.11A61.83,61.83,0,0,0,250,43.36l-43.95.92a61.83,61.83,0,1,0-103.72,60.58L76.15,152.57A61.84,61.84,0,1,0,71,273.86l34.17,56.43a61.83,61.83,0,1,0,106.39,59.52L269,388.6a61.82,61.82,0,1,0,105.32-61.12l25.61-46.6c1.87.17,3.75.26,5.65.26a61.83,61.83,0,0,0,0-123.65Z"/><line class="a" x1="329.61" y1="367.32" x2="153.23" y2="371.03"/><path class="b" d="M294.45,376.55c-16,1.83-35.68.29-51.86,2-19.42,2.22-40.49,2.66-60,3.07,0-.9,1.58-2.3,0-2.72-6.52-1.23-6.56-3-6.59-4.86,0-.91,4.86-.1,3.22-1,4.86-.11,13-.73,8.08-1.53-1.64-.88-8.11.17-9.76-1.16s1.57-2.76-.08-4.09l-6.49.14c-1.64-.88,1.56-2.76-.06-2.72-4.88-.81-11.36-.22-17.84-.08,0-.91-1.66-1.78,1.57-2.31,56.73-2.1,115.05-5.14,171.82-5,6.5.31,1.67,2.23-3.16,3.7,1.61-.49,1.64.87,3.25.38,0,1.36-3.17,3.7-9.64,4.29l4.86-.1c1.63.42,0,1.36.05,2.27-1.63,0-3.25.07-3.24.52l0,1.82,6.49-.14c-1.62,0-3.24.07-3.23.52s0,1.36,0,1.82c-3.23.52-8.11-.29-11.35.24l0,1.36c3.26.39,8.11-.17,11.35-.24-1.61.49-1.6.94-1.58,1.85-4.86.56-9.75-.7-14.58.76l4.86-.1C307.45,377.64,299.3,376,294.45,376.55Z"/><line class="a" x1="414.58" y1="212.72" x2="329.61" y2="367.32"/><path class="b" d="M325.26,358.74c2.89-3.48,3.79-1.4,5.6-2.27l-.66,2.21c-2,2.33-5.1,5.84-5.78,4.45A7,7,0,0,1,325.26,358.74Z"/><path class="b" d="M327.65,365.89c.17-.38.38-.35.55-.73l.73,1.79Z"/><path class="b" d="M331.89,353.25l.88-1.91c.38-.35.06.83.26.87l1.69-1.77C332.68,353,333.93,353.62,331.89,353.25Z"/><path class="b" d="M352.25,332.83c1.55-1,.73,1.78,1,2.66-.73,1.12-2.1,1.7-2.19.44A13.91,13.91,0,0,0,352.25,332.83Z"/><path class="b" d="M337.39,342.21c.9,1.4-2.08,5-.65,5.27a2.59,2.59,0,0,0,1.8-.1L339,345c3.3-4.8.41,3,3.44.19a3.41,3.41,0,0,0,.5-1.57c.26-2-.32-1.71-1.49-1.09,2.49-4.95,5-1.19,6.39-3.84,1.55-3.87-1.8-2.8-2.09-4.1,2.09,1.2,7.34-4.5,10.41-9.75,1.85-5.48,7-10,8.94-16.66,1.67-2.4,4-5.47,6-8.72a3.47,3.47,0,0,1,.33.18.47.47,0,0,0-.23-.3c2.88-1.62,3.82-8.59,6.54-7.86l.12-.72c1.47-3.08.87.48,2.3-1,1.21-2.93,5.2-5.49,4-8,.26-.15.2.21.47.06l.88-2.43c-.41-.41-.75-1.19-1.48-1.1.32-.5,0-1.28.56-1.93,1-1.86,1.14.33,1.92-.11,2-5,4.85-10.45,8.35-14.35,1.74.95,4.29-4.35,5.38-6.57,3.9-3.48,3.39-10.28,6.65-12.76.05,2.56-3,5.24-2,6.28l1-.58c1.49-1.81,4.09-4.55,3.46-6.45a4.89,4.89,0,0,1-2.7.55c.18-1.07-.22-1.49.21-2.7.77-1.72,2-3.38,2.87-2.9-.18,1.07-1,1.86-1.41,2.72.81.84,2.48-2,3.32-2.83-3.16.49-1.6-4.58-5.57-.74l.94-2.78c-.91-3-6.42,7.15-6.19,1.54-.34-.77-1.33-.54-1-2.32a3.27,3.27,0,0,0-1.93,3c-2.18.26-3.66,6.24-5.86,5.23-.64,5.19-4.74,5.55-7.25,9.22-3.16,4.68.3,2.41.67,4.45-2,2.1-2.29,5.16-2.59,6.94-.7,1.36-1.95,1.74-1.77.67-7.45,9-13.63,18.93-19.34,28.91-3.65,3.33-3.76,8.23-8.48,10.88l.79-.44c.3,0,.12.61,0,1.07.82-.41,1.64-.8,2.44-1.16a23.05,23.05,0,0,0-2.27,3.42c1,2.25-3.77,6.8-3,9.42-4.2,6.3-3.41,3.13-7.82,9.39C342,327.28,340.52,332,338,336.1c-.9,1.49-2.45,2.46-2.68,2-.87,1.91-2.31,4.56-3.39,6.44C329.1,353.59,335.58,345.2,337.39,342.21Z"/><path class="b" d="M394.18,268.35c.81.84,2.29-1,3.08-1.41l.18-1.06c.88-2.43-.19-3.12-1.56-2C396.43,264.83,395.08,267.2,394.18,268.35Z"/><path class="b" d="M384.91,286.77l-.81-.83-1.21,2.93C383.56,289.14,384.26,287.78,384.91,286.77Z"/><path class="b" d="M409.35,224.71c-1.61,2.51-3.12,3-4.33,6l2.06.46c2.28-2.25,5-4.43,6.75-7.65C413.18,220.31,410.45,226.67,409.35,224.71Z"/><path class="b" d="M403,228.6c1-5.69,6.64-9.85,6.15-15.38-4.79-1.18-4.23,8.18-7.23,10.5-.62,2.29-.86,3.71-1.8,6.5C400,232.56,402.1,229.75,403,228.6Z"/><path class="b" d="M411.79,213a4.47,4.47,0,0,0,.5-1.57c-.14-.56-1,.23-1.51.53C410.46,212.49,410.62,214.33,411.79,213Z"/><line class="a" x1="323.18" y1="61.82" x2="414.58" y2="212.72"/><path class="b" d="M320.32,67.25l-.38-.63-.16.11Z"/><path class="b" d="M322.7,66.64l-.12-.19a.63.63,0,0,1-.11.12Z"/><path class="b" d="M319.78,66.74c-.59.41-1,1-1.85,1.1l-.83-1.39c-.55-.14-.67.41-1,.61-.21-.34-.42-.69-.58-.59-.58,0-.64.59-.34,1.33C318,68.15,320.91,71.54,319.78,66.74Z"/><path class="b" d="M322.79,68.68l-1.1-1.82c-.5,0-1,0-1.31.44A5.33,5.33,0,0,0,322.79,68.68Z"/><path class="b" d="M409,209.33c.11-.06.18-.06.22.35l-.22-.35c-.1.06-.22.16-.38,0a41.79,41.79,0,0,1,2.84,3.73l.84.18c-2.15-3.32-4.2-6.71-6.77-8.94C406.69,206.3,407.8,207.47,409,209.33Z"/><path class="b" d="M413.45,212.93l.21.34C413.63,212.87,413.55,212.87,413.45,212.93Z"/><path class="b" d="M373.11,154.87a30,30,0,0,0-4.78-5c2.86,3.65,5.54,7.54,8,10.16C375.24,158.33,374.16,156.61,373.11,154.87Z"/><path class="b" d="M360.53,142a19.51,19.51,0,0,0,4.77,6.35l-4.17-5.92C360.94,142.27,360.73,142.11,360.53,142Z"/><path class="b" d="M363.32,144.22a24.43,24.43,0,0,0,5,5.65A50.94,50.94,0,0,0,363.32,144.22Z"/><path class="b" d="M407.08,181.79a19.84,19.84,0,0,1,2.59,2.58c.38.09.86.23,1.48.44l-.17-.27q-1.92-2.14-3.79-4.39a14.72,14.72,0,0,0-1.84-1.42C405.91,179.76,406.48,180.79,407.08,181.79Z"/><path class="b" d="M409.67,184.37c-3.22-.82,1.48,2,0,0Z"/><path class="b" d="M393.07,180.66l-.15-.23-.53-.63C392.62,180.1,392.84,180.38,393.07,180.66Z"/><path class="b" d="M386.13,158.52c.89,1.33,1.84,2.63,2.82,3.87a67.22,67.22,0,0,0-5.63-7.37c.21.34.25.79.46,1.14A7.76,7.76,0,0,1,386.13,158.52Z"/><path class="b" d="M401.17,190.52c-2.71-3.51-5.48-6.88-8.25-10.09-4.46-7.23-9.1-14-14.28-19.45-4.69-4.73-10.23-14.62-16.26-18.54a15.67,15.67,0,0,0,.94,1.78,22.32,22.32,0,0,0-2.19-1.81c-6.12-8.79-11.91-17.55-17.57-26.89-.84-1.38-2-2.12-2.81-3.5l-2.61-4.1a.15.15,0,0,0-.08.12c-3.66-5.57-7.39-11-11.52-16.55-1.84-2.67-3.36-5.55-5-8.31-.63-1,0-1.45-.21-2.24a46,46,0,0,0-3-9.07l.5-.31a5.27,5.27,0,0,1-.76-1.26c2.78.36,5.74,3.74,4.61-1.06h0q.29.29.54.51l0,.07h0a5.43,5.43,0,0,0,2.41,1.38l-1.1-1.82a1.23,1.23,0,0,0,.78-.3l.23.08.3.49a2.12,2.12,0,0,0,.51,0c1.68,1.15,3.57,3.42,4,2.52.13-.58-.88-1.56-1.89-2.74a1.53,1.53,0,0,0,0-.37c1.22,1.63,1.18-.71,2,.23.84,1.38,1.85,2.66,2.68,4,3.42,5.63,6.46,10.28,10.32,15.51l.5.7a71.27,71.27,0,0,1,4.86,7.77l-.64-.32a42.78,42.78,0,0,0,4,6.28c3.81,4.78,7.63,9.57,11.15,15,3.64,5.73,7.38,11.1,11.51,16.65a79.37,79.37,0,0,1-5.24-6.78c-.65-1.12-1.31-2.23-2-3.28a38.19,38.19,0,0,0,2,3.28c2.52,4.31,5,8.81,8.53,11.15.08.44-.09.54.12.88,1.47,2.43,2.77,5,4.69,6.62.17-.1.8.94.93.39,1.42,2,2.89,4.4,4.48,6.27a11.4,11.4,0,0,0,2.46,2.2c5.39,6.88,10.74,13.68,16.44,21.17,1.37,1.89,2.76,4.18,4,6.2-2.35-2.63-4.66-5.4-6.95-8.25-1.7-3.08-3.45-6-5.74-7.81-.5-.45-1-.91-1.45-1.38,2.39,3.12,4.78,6.2,7.19,9.19,1,1.82,2,3.71,3.06,5.5l-.1-.09c-1.06-1.27-2.12-2.55-3.17-3.86a29.4,29.4,0,0,0-5-7.16c-.24-.23-.49-.45-.74-.65-.49-.45-1-.92-1.45-1.38l4.43,5.71,2.76,3.48,1.33,2.44-.28-.17c-.59-.6-3.73-1.34-3.6,0,1.63,2.65,3.78,5.72,5.5,8.15l2.14,3a6.37,6.37,0,0,1,.79,1.24c-.46.75-6.87-7.85-6.83-7.4.23.55.48,1.1.73,1.65-.43-.41-.85-.8-1.28-1.14-.79-.93-1.47-2.42-2.22-2.91-2.47-1.81-3.81-4.79-6.16-7.15-1.55-1.43-3.48-3.1-5.4-4.77-.34.2-.8-.94-.93-.39-1.18-1.95-2.55-4.21-4-4.46l-.11-.12a2.06,2.06,0,0,0-.47-.46c-1.79-3.36-4.09-5.06-6.52-7.62-.7-1-1.38-2-2-3a14.2,14.2,0,0,0,1.47,2.42l.56.6c1.81,2.49,3.77,4.72,5.65,7,.22.15.58.38.87.62l.3.56.28,0c1.92,2.1,3.73,4.7,5.46,6.44,2.9,3.49,5.1,7.76,7.37,11.73q-2.19-2.67-4.39-5.21c1.72,2.19,3.36,4.25,5,6.22l.59,1,1.26,2.08c-.32-.69-.65-1.37-1-2,1,1.17,1.94,2.32,2.93,3.45a167.94,167.94,0,0,1,13.73,20.56,7.28,7.28,0,0,1-.9-.1c-2.15-3.33-4.2-6.71-6.77-8.94,1.18,1.95,2.3,3.12,3.47,5-.09.06-.22.16-.38,0a40,40,0,0,1,2.84,3.73c-.7-.18-1.43-.41-2.15-.64a13.11,13.11,0,0,1-2.18-2.47c-3-4.31-5.49-8.6-8.58-12.78-2.32-4-4.64-8-7-11.8C395.86,184.22,398.48,187.45,401.17,190.52ZM326.45,77c.28.32.58.63.9,1a1.93,1.93,0,0,1,0-.24A1.82,1.82,0,0,0,326.45,77Zm4.74,8.2c-1.15-2.55-3.43-5.45-5.52-8.32l-.15,0A78,78,0,0,0,331.19,85.23Zm2.27,11.59,0-.09-.07.06Zm30.88,39c-2.51-2.27-4.61-5.73-7-9-.63-1-1.93-1.67-2.77-3-1.21-1.63-2.17-2.47-3.18-3.75l.29,1.24c-1.3-2.52-3.14-3.3-4.27-5.92a.91.91,0,0,1-.92-.39c-1.22-1.63-1.93-3.57-3.11-4.75a46.19,46.19,0,0,0-3.43-4.54c-.21-.34-1.13-.73-1.72-1.32-.58-.81-1.13-1.63-1.69-2.44a1.34,1.34,0,0,0-.07.18,14.94,14.94,0,0,0,1.38,2c1.6,1.88,3.4,4.1,4.82,6.07,3.48,5,7.09,9.43,10.69,13.87.79.94,1.76,1.77,2.56,2.71,2.55,2.71,4.69,6.62,7.12,8C363.38,134.93,363.8,135.62,364.34,135.77Zm9.6-.53a58.39,58.39,0,0,1-7.64-10.59c-1.68-2.78-7.51-10.13-8.68-7.52C363.35,118.35,371.56,140,373.94,135.24Zm20.56,27a28.32,28.32,0,0,1-3.22-4.2Zm-15.74-10.62c3.89,3.79,7,8.53,10.39,12.63,2.6,3.16,4.07,7.47,7.12,9.88l.51-.31-.38-.24c-.64-1.28-1-2.42-1.44-3.52l.15.15-.21-.29a9.16,9.16,0,0,0-1.35-2.19c-.31-.32-.61-.65-.92-1-2.92-4.14-5.88-8.45-9.31-11.73-2-2.12-4.06-3.69-6-5.81A13.59,13.59,0,0,0,378.76,151.63Z"/><path class="b" d="M397.69,183.89q1.67,2.06,3.31,4.18,1.37,1.56,2.79,3.09c4.26,5,7.89,11.69,11.91,17.41a2.35,2.35,0,0,0,1.5-.93c-3.38-6.81-8.2-12.75-11.85-19.4l-.14-.12c-2.69-2.16-5.08-6.86-8-9.81-3.1-2.86-5.53-6.12-8.46-9.07C391.77,174.24,395,178.78,397.69,183.89Z"/><path class="b" d="M365.3,148.33l2.78,3.9c2.72,3.59,5.27,6.68,8,9.78-1.63-2.49-3.24-5-4.8-7.6C369.52,151.93,367.35,150.26,365.3,148.33Z"/><path class="b" d="M378.27,164.52,376.06,162c2.41,3.69,4.88,7.32,7.36,10.92,4.41,5.73,8.72,11.52,13.33,17.13.51.65,1,1.29,1.48,1.94-6.73-11.54-13.45-23.06-21.44-31.48l-.46-.49c2.91,4.54,5.92,9,8.94,13.36C383,170.41,380.66,167.44,378.27,164.52Z"/><path class="b" d="M396.61,182.56c.2.34.39.68.59,1l.87,1.05-.38-.73Z"/><path class="b" d="M395,170.07l-.06-.14c-.75-1-1.51-2.11-2.27-3.18-1.24-1.36-2.48-2.82-3.68-4.36A55.24,55.24,0,0,0,395,170.07Z"/><path class="b" d="M393.16,158.05l-.84-1.39-.68-.45.56,1Z"/><path class="b" d="M378.08,139.26c4.37,5.74,8.54,11.07,12.68,16.36l.88.59a46.94,46.94,0,0,0-7.78-10.5,15.27,15.27,0,0,1-2.14-2,105.79,105.79,0,0,0-6.93-8.8l3.2,4.25Z"/><line class="a" x1="146.8" y1="65.54" x2="323.18" y2="61.82"/><path class="b" d="M316,68.43l.09,0,.32,0c.35-.6,1.09-.46,2.07-.31,0-.18-.09-.36.25-.46,1.54.33.76,0,1.87-.4-.34,0-.77.06-.95-.11l2.14-.23c-.3-.34-.55-.72-.2-1-.23-.7.45-1.56.7-2.3a2.94,2.94,0,0,1-.83-.27c0-.3.4-.44.85-.5a.68.68,0,0,0-.14-.22.68.68,0,0,1,.14.22,5.78,5.78,0,0,1,.93,0c-.17-.09-.34-.18-.26-.31l-1.29,0c0-.06,0-.12.08-.17l-.33.18.26.18c.09.13-.08.23-.25.32a.74.74,0,0,1-.6-.17l-.68.33c-.24.55,1.8.28.7.8l-.34-.13c-.51.15-1.2.16-1.53.53-.53-.62-1.44.53-1.55-.33-2-.36-4.53.37-6.51-.49-.33.59-.31,1.73-1.15,2.47-.17-.09-.43-.17-.35-.31l-.59.33c.34,0,.77-.06.94.16-.93.29.44.49.36.81l-1.27.34.15.13c2.3.13,4.61.64,6.91.89Z"/><path class="b" d="M276.53,58.57l0,.68c-19.56,2.13-46-.21-70.22.65l.54-2.54c-6.44,1.67-13.79,2.75-19.82,4.69l2.37.39c-2.13,1.45-7.62,2.47-11,2.22l.32-.66c4.65-.47-.32-.21,1.53-2.06l.8-.35-.48-.32-.8.36c.08-.39,0-.87.76-1l-1.08-.05c-2.36-1.75-2.4-3.3-2.15-5.32-.6.26.07,2.23-2.53,1.63l.33-.67-2.81,1.23L171,56.59c-1,.44-1.65.9-2.69.66L168,58.59c-4.64-.4-10.46,1.28-15.18.39-1,1.31-3.57-.35-6.18.79l1.16,1.4c2.88,1.87,9.5.72,14.1,1.31l-.16.77c-1,.24-1.64.89-2.84.55l-.29,1.34c2.11,4.64,8.26-1.18,9.94-.53,3.56,1.23-2.25,2.9-.57,2.69-3.85,1.86,3.32,3.24,5,4.76,4.64,3,14.67,1.24,20.72,1,10-3.52,23.56-.4,32.9-.67,4.49.3,11.59-4.9,14.55-.8l8.42.66-.17.77c8.18.07,17.16-2,24.78-2.67,3.32-.24,4.29-2.23,5.85-.13,6.65,1.26,14.39-1.78,20.84-2.17,0-.68.85-1.42-.35-1.76-3.29.92-7.14-.7-7.29-2.55l1.24.16-2.24-1.46-1.41.62a2.19,2.19,0,0,1-.57-1.09c-2.44-.61-4.59-2.2-7.13-3.26A10.85,10.85,0,0,1,276.53,58.57Z"/><line class="a" x1="61.83" y1="220.14" x2="146.8" y2="65.54"/><path class="b" d="M68,219.91l-.35.64.18.08C67.85,220.37,67.9,220.13,68,219.91Z"/><path class="b" d="M66.24,218.15l-.11.2a.42.42,0,0,1,.16,0A2,2,0,0,1,66.24,218.15Z"/><path class="b" d="M67.78,220.63c.66.3,1.43.38,1.88,1.05-.2.35-.58,1.06-.78,1.41.15.55.69.38,1,.57-.2.35-.39.71-.22.8.32.48.83.26,1.32-.37C69.92,221.51,71.37,217.25,67.78,220.63Z"/><path class="b" d="M68,217.05l-1,1.86c.28.41.53.89,1,.92A5.43,5.43,0,0,0,68,217.05Z"/><path class="b" d="M146.68,72.08c-.11-.06-.15-.12.18-.36l-.18.36c.09.06.25.12.22.31a39.2,39.2,0,0,1,1.81-4.32c-.08-.28-.17-.56-.27-.82-1.8,3.52-3.71,7-4.35,10.34C145.19,75.58,145.65,74,146.68,72.08Z"/><path class="b" d="M147.56,66.41l.19-.36C147.42,66.29,147.45,66.35,147.56,66.41Z"/><path class="b" d="M117.44,130.38A29.92,29.92,0,0,0,115.5,137c1.73-4.3,3.76-8.57,4.8-12Q118.91,127.7,117.44,130.38Z"/><path class="b" d="M112.57,147.71a19.45,19.45,0,0,0,3.12-7.3l-3,6.57C112.62,147.22,112.58,147.47,112.57,147.71Z"/><path class="b" d="M113.12,144.18A24.41,24.41,0,0,0,115.5,137,50.44,50.44,0,0,0,113.12,144.18Z"/><path class="b" d="M123.77,87.5a20.32,20.32,0,0,1,.94-3.54c-.11-.37-.23-.86-.35-1.49l-.16.28c-.59,1.82-1.23,3.64-1.9,5.47a13.38,13.38,0,0,0-.31,2.31C122.6,89.53,123.2,88.52,123.77,87.5Z"/><path class="b" d="M124.71,84c.9,3.21,1-2.26,0,0Z"/><path class="b" d="M129.8,100.2l-.13.24-.27.77C129.54,100.87,129.67,100.54,129.8,100.2Z"/><path class="b" d="M114.1,117.27c.7-1.43,1.35-2.9,1.94-4.37a67.18,67.18,0,0,0-3.58,8.56c.2-.35.57-.62.76-1A7.85,7.85,0,0,1,114.1,117.27Z"/><path class="b" d="M134.29,88.26c-1.69,4.09-3.22,8.18-4.62,12.18-4,7.48-7.56,14.88-9.7,22.09-1.75,6.43-7.55,16.17-7.93,23.35a16,16,0,0,0,1.08-1.7,21.06,21.06,0,0,0-.48,2.8c-4.55,9.69-9.24,19.09-14.5,28.66-.78,1.42-.85,2.77-1.63,4.19l-2.24,4.31a.21.21,0,0,0,.14,0c-3,6-5.81,11.89-8.57,18.25-1.39,2.93-3.13,5.68-4.68,8.51-.59,1.07-1.27.69-1.84,1.3A46.25,46.25,0,0,0,73,219.33l-.52-.28a5.07,5.07,0,0,1-.71,1.28c-1.08-2.58.37-6.84-3.22-3.46h0c.07-.26.13-.49.18-.72l0-.07h0a5.43,5.43,0,0,0,0-2.78l-1,1.87a1.16,1.16,0,0,0-.65-.53c0-.08,0-.15,0-.24l.28-.51a2.22,2.22,0,0,0-.29-.42c.16-2,1.18-4.8.2-4.7-.57.18-.91,1.54-1.43,3a2,2,0,0,0-.32.18c.8-1.87-1.2-.66-.79-1.82.78-1.42,1.39-2.93,2.17-4.35C70,200,72.46,195.05,75.07,189.1c.11-.27.23-.52.35-.78a71.91,71.91,0,0,1,4.3-8.11c0,.24,0,.48,0,.72a42.83,42.83,0,0,0,3.46-6.57c2.24-5.69,4.48-11.39,7.42-17.15,3.13-6,5.92-12,8.66-18.3a79.56,79.56,0,0,1-3.25,7.93c-.64,1.12-1.27,2.25-1.84,3.37.68-1.11,1.28-2.23,1.84-3.37,2.47-4.33,5.14-8.71,5.39-13,.34-.29.51-.19.7-.55,1.37-2.48,2.9-4.87,3.39-7.37-.17-.09.41-1.16-.13-1,1-2.23,2.37-4.71,3.19-7a11.52,11.52,0,0,0,.68-3.23c3.26-8.11,6.47-16.15,10.11-24.83,1-2.13,2.24-4.48,3.38-6.54-1.1,3.35-2.34,6.73-3.66,10.14-1.82,3-3.44,6-3.9,8.88-.15.65-.3,1.3-.47,1.94,1.5-3.63,3-7.24,4.37-10.82,1.07-1.78,2.21-3.57,3.22-5.4,0,0,0,.09,0,.13q-.85,2.34-1.76,4.68a29.35,29.35,0,0,0-3.7,7.9c-.08.33-.15.65-.2,1-.14.65-.3,1.3-.47,1.94L118.91,97c.54-1.38,1.09-2.76,1.63-4.13.48-.78,1-1.58,1.45-2.37a1.74,1.74,0,0,0,0,.32c-.22.81.7,3.9,1.8,3.12,1.48-2.74,3.07-6.14,4.31-8.84.62-1.35,1.15-2.52,1.54-3.36a6.37,6.37,0,0,1,.67-1.29c.88,0-3.36,9.87-3,9.61.36-.48.72-1,1.06-1.46-.13.57-.26,1.14-.34,1.67-.42,1.16-1.37,2.49-1.41,3.39-.34,3-2.24,5.69-3.12,8.9-.46,2.06-.94,4.56-1.42,7.07.34.19-.42,1.16.12,1-1.1,2-2.37,4.32-1.84,5.73l0,.16a1.77,1.77,0,0,0-.17.63c-2,3.23-2.34,6.08-3.34,9.46-.48,1.08-1,2.17-1.6,3.26a13.65,13.65,0,0,0,1.36-2.49l.24-.77c1.26-2.82,2.21-5.63,3.24-8.4,0-.26,0-.69.1-1.06.11-.18.22-.36.34-.54a1.42,1.42,0,0,1-.12-.25c.85-2.72,2.2-5.59,2.84-7.95,1.58-4.26,4.17-8.29,6.47-12.25q-1.21,3.22-2.31,6.41c1-2.59,2-5,2.9-7.43l.56-1L132,92c-.44.62-.85,1.25-1.26,1.87.53-1.43,1-2.85,1.52-4.26a167.68,167.68,0,0,1,10.94-22.17,7.78,7.78,0,0,1,.36.82c-1.8,3.53-3.71,7-4.36,10.34,1.11-2,1.57-3.56,2.59-5.51.1.06.25.12.23.31a40,40,0,0,1,1.81-4.32c.19.7.36,1.44.52,2.19a13.45,13.45,0,0,1-1.05,3.12c-2.23,4.76-4.7,9-6.78,13.81-2.28,4-4.56,8-6.71,12C131.48,96,133,92.11,134.29,88.26ZM73.37,209.71c.12-.4.25-.83.36-1.25l-.21.1A1.82,1.82,0,0,0,73.37,209.71Zm4.72-8.21c-1.63,2.28-3,5.7-4.44,8.94a.35.35,0,0,0,.12.1A77.78,77.78,0,0,0,78.09,201.5ZM87,193.74l-.09,0,.08,0Zm18.28-46.22c-.7,3.31-2.65,6.86-4.25,10.59-.59,1.07-.49,2.51-1.27,3.92-.8,1.87-1,3.12-1.65,4.64l.93-.88c-1.54,2.39-1.29,4.37-3,6.67a.9.9,0,0,1,.13,1c-.81,1.86-2.12,3.45-2.56,5.06a47.65,47.65,0,0,0-2.22,5.24c-.19.36-.06,1.35-.28,2.16-.41.9-.84,1.79-1.27,2.68l.2,0a15.28,15.28,0,0,0,1-2.2c.83-2.32,1.85-5,2.85-7.21,2.58-5.51,4.62-10.85,6.66-16.19.42-1.16.66-2.42,1.07-3.57,1.07-3.57,3.39-7.38,3.36-10.16C105,148.78,105.43,148.07,105.28,147.52ZM100,139.47a59,59,0,0,1-5.35,11.92c-1.57,2.84-5,11.56-2.18,11.27C90.69,157.09,105.31,139.17,100,139.47Zm13.11-31.31a29.28,29.28,0,0,1-2,4.89Zm-1.32,19c1.33-5.27,3.89-10.33,5.74-15.32,1.43-3.83,4.43-7.26,5-11.11l-.52-.28,0,.45c-.79,1.19-1.61,2-2.33,3l.06-.2-.15.33a8.94,8.94,0,0,0-1.22,2.26l-.39,1.29c-2.14,4.6-4.39,9.32-5.52,13.93-.85,2.76-1.16,5.36-2,8.13A14,14,0,0,0,111.82,127.11Z"/><path class="b" d="M130.29,94.58q.94-2.47,2-5c.45-1.32.88-2.64,1.29-4,2.21-6.19,6.17-12.67,9.12-19a2.37,2.37,0,0,0-1.56-.84c-4.21,6.34-6.94,13.48-10.87,20l0,.18c-.53,3.41-3.4,7.83-4.49,11.85-.93,4.11-2.53,7.84-3.62,11.86C124.89,104.53,127.2,99.46,130.29,94.58Z"/><path class="b" d="M115.69,140.41l2-4.36c1.75-4.14,3.15-7.9,4.48-11.8q-2,4-4.18,8C116.7,135,116.33,137.67,115.69,140.41Z"/><path class="b" d="M123.22,121.09l-1.07,3.16c2-3.93,3.9-7.88,5.78-11.84,2.76-6.68,5.61-13.31,8.17-20.1.3-.77.62-1.52.94-2.26-6.63,11.61-13.25,23.18-16.55,34.32l-.19.64c2.48-4.79,4.81-9.61,7.1-14.43C126,114.06,124.55,117.55,123.22,121.09Z"/><path class="b" d="M129.67,96.18l.59-1c.15-.42.31-.85.47-1.27-.15.23-.3.46-.44.69C130.08,95.12,129.88,95.65,129.67,96.18Z"/><path class="b" d="M119.68,103.85l-.09.13L118,107.53c-.56,1.76-1.21,3.56-1.94,5.37A54.64,54.64,0,0,0,119.68,103.85Z"/><path class="b" d="M110.17,111.42l-.78,1.42,0,.82c.2-.33.39-.66.59-1Z"/><path class="b" d="M101.44,133.88c2.78-6.65,5.32-12.93,7.83-19.16,0-.35,0-.7.07-1.06a47,47,0,0,0-5.21,12,14.56,14.56,0,0,1-.68,2.86,106.2,106.2,0,0,0-4.15,10.4l2.08-4.89Z"/><line class="a" x1="153.23" y1="371.03" x2="61.83" y2="220.14"/><path class="b" d="M82.34,272.93l-2-3.33C90.29,289.34,103,309,111.68,328l1.52,5.15c4.5,9.4,11.51,20.32,17.47,28.84a16.12,16.12,0,0,0,8.21,5.65c1.26.75,3.1,1.16,3-.31-1.06-2.4-4.42-7.94-3.25-8.65.29-.17,1,.93,1.64,2,1.17-.71,5.52,1.21,6.19,2.31,1.26.76,7.05,6.35,8.3,7.11,2.9,2.8,1.23-9.84-.58-14.81-.76-2.57,1.46-.89,2.34-1.42-1.64-2-1.44-3.68-3.07-5.72.29-.18-3.45-7-5.47-10.34a24.21,24.21,0,0,1-3-4.26c-.68-1.11-1-.93-1.26-.76l.58-.35c-1.26-.76-2-3.33-3-4.27l.58-.35c-1.92-1.86-2.68-4.43-4.32-6.48l.59-.35c-.68-1.11-1.35-2.22-1.05-2.4l.58-.35c-.38-1.29-2.31-3.15-1.73-3.51l-.58.36c-2.69-4.44-4.41-7.95-6.14-11.45-4.2-9.58-11.51-20.33-18.14-30-.67-1.11-1.93-1.86-1.84-.4l-2-3.33c-1.34-2.22-1.55-.57-2.89-2.79-12.22-16.87-21.51-35.51-33.14-52.73,2.4,4.62,3.83,8.3,6.81,12.56-.29.17-.88.53-.21,1.64,3.75,6.83,9,14.25,9.88,18.28.38,1.29.17,2.93,2.19,6.26l-2-3.33-.87.53,7.86,15-.87.53,1.34,2.21c-.71,3.46-7.81-8.92-11.46-14.29l-1.17.71,1.35,2.22-.59.35L72.09,238.19c.67,1.11,2,3.33,2.69,4.44-.29.18-.59.36.08,1.46-2.69-4.43-5.75-10.16-9-14.24-1-.93-1.16.7.56,4.21l5.38,8.88-.59.35c-1.34-2.22-3.07-5.72-4.7-7.77-1-.93.46,2.75-.5,1.82a15,15,0,0,0-2.31-3.15c2,3.33,5,7.59,6.72,11.1.38,1.28.76,2.57.18,2.92a34.34,34.34,0,0,1,6,14.55C76.67,264.23,80.33,269.6,82.34,272.93Z"/><path class="c" d="M128.84,335.2a41.82,41.82,0,1,0,58.37,9.59A41.82,41.82,0,0,0,128.84,335.2Z"/><path class="b" d="M166.85,337.72a36.6,36.6,0,0,0-20.65-1.6l1.92-.38c.32-.06.64-.15,1-.19l1-.09,1.95-.2c.66-.05,1.31,0,2,0h-1.45a12.85,12.85,0,0,0-1.4.08l-1.38.07a8.93,8.93,0,0,0-1.37.1c-.9.12-1.82.2-2.77.28s-1.88.35-2.9.5a8.09,8.09,0,0,1,2.3-1c.42-.17.84-.27,1.18-.4a1.36,1.36,0,0,0,.73-.52,30.64,30.64,0,0,1,14.77,1,31.91,31.91,0,0,1,12.25,7.29c-.48-.13-.93-.24-1.34-.38a5.36,5.36,0,0,1-1.07-.54,14.14,14.14,0,0,1-1.63-1.39c-.5-.49-.94-1-1.42-1.51A4.58,4.58,0,0,0,166.85,337.72Z"/><path class="b" d="M132.57,340.38l2.47-1.63A15,15,0,0,1,132.57,340.38Z"/><path class="b" d="M184.86,396.19a19.59,19.59,0,0,1-1.22,1.62c-.46.5-.91,1-1.38,1.45.41-.53.86-1,1.32-1.51S184.43,396.71,184.86,396.19Z"/><path class="b" d="M180.3,341.76c.56.37,1.1.77,1.64,1.19a37.65,37.65,0,0,1,7.22,13.33,22.77,22.77,0,0,0-1.64-3.89l-1-1.89c-.35-.63-.8-1.2-1.18-1.8l-1.18-1.8c-.45-.57-.88-1.13-1.3-1.71s-.79-1.2-1.25-1.73S180.71,342.34,180.3,341.76Z"/><path class="b" d="M177.2,336.89a70,70,0,0,0-13.93-7.68A53.19,53.19,0,0,1,177.2,336.89Z"/><path class="b" d="M146.78,419.49c0,.16-.13.25-.33.33a1.59,1.59,0,0,0-.56.12l-1-.2-1-.29-2-.57c-.65-.21-1.31-.37-1.95-.61l-1.89-.76c.67.13,1.34,0,2,.23,1.4.48,2.24.86,3.14,1.21a8,8,0,0,0,3.57.54Z"/><path class="b" d="M185.78,395l0-.16a10.71,10.71,0,0,0,.74-1.15l.13-.1A7.48,7.48,0,0,1,185.78,395Z"/><path class="b" d="M150.21,419.93a1.27,1.27,0,0,0,.31.8c-1.56-.15-3.08-.51-4.6-.78a5.15,5.15,0,0,0,.53-.13C147.49,419.73,149.05,420.24,150.21,419.93Z"/><path class="b" d="M184.4,412.17a7.16,7.16,0,0,0,1.43-2.08,36.69,36.69,0,0,0,6.83-5c.21-.47.86-1.27,1.26-2.2a15.54,15.54,0,0,0,1.65-1.05,51.43,51.43,0,0,1-16.19,13.52Z"/><path class="b" d="M126.11,333.35c-.73.65-1.48,1.28-2.26,1.91s-1.48,1.37-2.24,2.05a47.22,47.22,0,0,0-4.32,4.5c-.64.82-1.23,1.68-1.83,2.53-.29.43-.59.86-.86,1.29l-.7,1.37a29,29,0,0,0-1.23,2.75,28.15,28.15,0,0,0-.72,2.84c.55-1,1.06-2,1.67-3l2-3a35.32,35.32,0,0,1,4.49-5.1,18.07,18.07,0,0,1,4.33-3.18,3.54,3.54,0,0,1,3-.56c.63.3.42.89-.31,1.64a30.31,30.31,0,0,1-3.15,3.07,34.6,34.6,0,0,0-6.89,8.87l1.25-1.19c-.6.59-1.3,1.17-1.29,2,.54-.65,1.41-1.55,2.17-2.37a9.14,9.14,0,0,1,1.14-1.06,3.33,3.33,0,0,1,1-.53s-.08.37-.15.74c0,.18-.06.36-.09.49s0,.24,0,.24a21.26,21.26,0,0,0,2.89-2.18l3.2-2.45c1.18-.71,2.27-1.47,3.39-2a15.94,15.94,0,0,1,3.2-1,23.23,23.23,0,0,0-11.93,8.55,31.11,31.11,0,0,0-5.87,15.87,35.25,35.25,0,0,0,3.31,17.44,38.27,38.27,0,0,0,10.91,13.44,29.08,29.08,0,0,0,16.71,5.48,12.06,12.06,0,0,0,2.08-.06l2-.15,2-.38a12.74,12.74,0,0,0,1.92-.45,25.87,25.87,0,0,0,3.59-1.29l1.68-.75,1.57-.93c.39-.22,1-.34,1.58-.65s1.35-.57,2.12-.84a45.76,45.76,0,0,0,4.44-2.16,28.58,28.58,0,0,0,5.62-5.58l1.06-1.63.52-.81.42-.87.83-1.72.58-1.82.39-.9.3-.95c.19-.63.44-1.23.63-1.85.29-1.27.75-2.48.92-3.77l.2-.95.11-.47.05-.49c.06-.64.15-1.28.24-1.92s.05-1.3.1-2l.06-1c0-.33,0-.65,0-1,0-.65,0-1.31-.07-2s-.2-1.29-.28-2c-.06-.33-.06-.67-.15-1l-.25-1a18.44,18.44,0,0,0-.51-1.94c-.23-.64-.46-1.27-.7-1.91a4.05,4.05,0,0,0-.41-.93l-.46-.92a26.84,26.84,0,0,0-2.18-3.57,3.62,3.62,0,0,1-.81-3c.29-.75,1.29-.79,3.46,1.43a25.21,25.21,0,0,1,6.71,14c-.91-.49-.77-3.06-1.75-4a63.07,63.07,0,0,1,.51,10.58l0-1.85a12.44,12.44,0,0,0-.06-1.83,27.33,27.33,0,0,0-.5-3.63,29.1,29.1,0,0,1,.27,9.53,41.63,41.63,0,0,1-2.55,9.72,5.79,5.79,0,0,1-1.16,1.45,15.16,15.16,0,0,1-1.48,1.24,5.79,5.79,0,0,0-1.37,1.46,6.46,6.46,0,0,0-1,2.21,30.49,30.49,0,0,0,7.4-11.1,27.7,27.7,0,0,0,1.67-13.78l.07,0a33.8,33.8,0,0,0-3.75-11.36,11.14,11.14,0,0,1,1.65,3.26l-.28-1.09c-.12-.35-.27-.69-.4-1l-.84-2.08c-.33-.66-.72-1.3-1.08-2a12.18,12.18,0,0,0-1.19-1.91l-1.32-1.82c-.45-.6-1-1.11-1.5-1.67A31.75,31.75,0,0,0,174.3,342a27.2,27.2,0,0,1,9.64,9.08,32.06,32.06,0,0,1,4.84,13A36.34,36.34,0,0,1,188,378a41.09,41.09,0,0,1-5.55,12.53,15,15,0,0,0,1.41-1.45c.22-.26.45-.53.66-.81l.55-.92c.35-.62.7-1.26,1-1.91s.54-1.36.81-2c1.1-2.71,1.69-5.43,2.92-7.51a34.72,34.72,0,0,1-13.13,21.43,7.78,7.78,0,0,0,1.2-1.48c-.53.4-1.12.74-1.69,1.1s-1.12.74-1.66,1.14c-1.11.76-2.29,1.42-3.4,2.21-1.19.62-2.36,1.32-3.57,1.9l-1.87.74a9.6,9.6,0,0,1-1.88.61l-1.37.3,1.37-.3a34.91,34.91,0,0,0,12.87-6.22,18.75,18.75,0,0,1-6,4.23,8.66,8.66,0,0,0,2.63-.86,17.18,17.18,0,0,0,2.88-1.55l1.74-1.35a20.72,20.72,0,0,0,1.63-1.48c.52-.51,1.08-1,1.59-1.51l1.44-1.65a59.37,59.37,0,0,1-9.24,9.42,37.32,37.32,0,0,0,14.08-12.93,39.28,39.28,0,0,1-6.42,8.49,41.75,41.75,0,0,1-15.59,8.67,5,5,0,0,0,.63-.28,12.26,12.26,0,0,1-1.29.44c-1.15.26-2.27.63-3.43.81s-2.33.39-3.5.53a27.88,27.88,0,0,0-3.13.49c-1,.19-2.09.29-3.15.49h-1.07c.69-.25,1-.45-.26-.65a20,20,0,0,0-2-.43c-.68-.13-1.38-.18-2.07-.36s-1.4-.29-2.11-.42c-.35-.07-.71-.11-1.07-.2l-1.06-.3-2.14-.62a21,21,0,0,1-2.1-.86,17.16,17.16,0,0,1-2.05-1c-.64-.43-1.28-.88-1.9-1.35-.32-.27-.71-.48-1.08-.76s-.79-.57-1.23-.85c-.88-.57-1.9-1.1-2.84-1.83a1.48,1.48,0,0,0-1.06-.74c-.42-.3-.87-.57-1.27-.91a32.66,32.66,0,0,0-2.81-2.58c.88.89,1.85,1.73,2.81,2.58a11.69,11.69,0,0,0,1.11.89,2.17,2.17,0,0,1-1.36-.55,40.58,40.58,0,0,0,11.13,7.6,37.71,37.71,0,0,0,13.4,3.38c-.57.14-1.38.24-1.73.34a22.06,22.06,0,0,0,2.8-.34h2.25a18.61,18.61,0,0,0,2.24-.18c.75-.08,1.5-.15,2.24-.26l2.19-.49a13.15,13.15,0,0,0-2.33,1.06,38.74,38.74,0,0,0,12.4-3.67,38.07,38.07,0,0,0,10.47-7.61l1.14-1a12.14,12.14,0,0,0,1.09-1.06l2.05-2.25c.66-.78,1.23-1.62,1.85-2.43.29-.41.63-.8.89-1.24l.78-1.31a44.27,44.27,0,0,0,2.81-5.43,46.14,46.14,0,0,0,1.84-5.85,60.92,60.92,0,0,1-6,12.09,43.57,43.57,0,0,0,5.23-17.19,21.24,21.24,0,0,0,.11-2.26l.06-2.25-.13-2.26a21.11,21.11,0,0,0-.19-2.25,39.2,39.2,0,0,0-.77-4.46l-.5-2.22c-.2-.74-.46-1.45-.69-2.18.41.43.82.93,1.24,1.44s.73,1.09,1.11,1.62a15.84,15.84,0,0,0,2.17,2.68c.13-.05.2-.35.23-.73s0-.85-.06-1.24c0-.77,0-1.24.46-.08a30.72,30.72,0,0,1,2.42,11.57c.05.83.1,1.62.18,2.37a20.48,20.48,0,0,0,.16,2.13,12.66,12.66,0,0,0,1.1,3.7c.17.22.63-.24,1.22-1s1.14-2,1.74-3.06l.85-1.56a8.72,8.72,0,0,1,.66-1.14c.4-.55.71-.57.84.41a21.65,21.65,0,0,1,0,2.89c-.08,1.1-.1,2.34-.29,3.66s-.44,2.72-.71,4.19-.78,2.94-1.22,4.47c-.69,1.7-1.53,3.41-2.32,5.21a2.67,2.67,0,0,0-.27,1.18A43.52,43.52,0,0,1,189.93,407l-1.53,1.33c-.5.45-1.07.8-1.6,1.21A6,6,0,0,1,185,410a12.83,12.83,0,0,1-1.69,1.91c-1.54.89-3,1.83-4.58,2.64s-3.15,1.53-4.76,2.19l-2.84.66c-.94.21-1.86.44-2.8.56.09.18.47.35.18.64l-3.15.8a31.49,31.49,0,0,1-3.17.58c-1.07.15-2.12.39-3.19.44l-3.2.21a11.58,11.58,0,0,1-2.48-.43,16.21,16.21,0,0,1-2.2-.72,11.57,11.57,0,0,1-4.46.46,28,28,0,0,1-5.77-.88,26.43,26.43,0,0,1-3-.92c-1-.36-2-.65-3-1.08L132,415.86c-.46-.21-.92-.38-1.36-.6l-1.27-.65,0,.06-2.45-1.36c-.82-.45-1.57-1-2.35-1.55l-2.32-1.63-2.17-1.84a12.21,12.21,0,0,1-.95-1.6,17.21,17.21,0,0,1-2-1.33,35.73,35.73,0,0,1-4.48-6.73,5.5,5.5,0,0,1-1.88-1.49c-.52-.83-1-1.65-1.53-2.47s-.9-1.66-1.35-2.48l-.7-1.49a12.77,12.77,0,0,1-.63-1.52c-.36-1-.72-2.09-1.09-3.14a46,46,0,0,1-1.39-21.69,1.39,1.39,0,0,1,.82-.25,16.22,16.22,0,0,1,.22-3.6c0,.2.14.33.3.33.21-3.23.93-3.7,2-6.32.18-.62.09-1.28.21-1.92.11-.29.28-.57.42-.85a13.34,13.34,0,0,0,1.56-2c.45-.69.8-1.41,1.24-2.1s.8-1.44,1.2-2.18l.6-1.14c.24-.36.49-.72.73-1.09l1.7-2.05a22,22,0,0,1,1.83-1.91l1.87-1.85,2-1.66a8.16,8.16,0,0,1,2.77-1.61C124.46,333.9,125.23,333.71,126.11,333.35Z"/><path class="b" d="M137.17,417.14A49.34,49.34,0,0,1,128,412C131.26,413.93,134.38,414.89,137.17,417.14Z"/><path class="b" d="M205.81,369a15.85,15.85,0,0,0,.92-4.94l.22,3.57-.08,3.56c0,.59,0,1.19-.08,1.78l-.2,1.77c-.15,1.18-.26,2.36-.48,3.53a55.7,55.7,0,0,1-1.73,6.93l-.56,1.71a16.92,16.92,0,0,1-.62,1.68l-1.44,3.31h-.06l1.15-2.81c.2-.49.43-1,.62-1.48s.35-1,.52-1.55c.35-1,.7-2.1,1-3.16s.52-2.16.75-3.22l.33-1.58c.09-.52.12-1,.18-1.55.09-1,.16-2,.18-2.92a14.47,14.47,0,0,0-.67-4.62Z"/><path class="b" d="M146.45,419.82a5.15,5.15,0,0,1-.53.13h0A1.59,1.59,0,0,1,146.45,419.82Z"/><path class="b" d="M192.53,355.13l-.24-.67a35,35,0,0,1,1.93,5.12c-.3-.68-.58-1.4-.84-2.15A23.75,23.75,0,0,0,192.53,355.13Z"/><path class="b" d="M182.45,338.42a41.94,41.94,0,0,0-9.28-6.32,66.67,66.67,0,0,0-13-5.78,45.16,45.16,0,0,1,12.11,4.34A44.61,44.61,0,0,1,182.45,338.42Z"/><path class="b" d="M203.37,351.13a54.39,54.39,0,0,0-1.59-5.8,50.37,50.37,0,0,1,2.22,5.59C203.68,350.64,203.55,351,203.37,351.13Z"/><path class="b" d="M195.58,370.08V369c.17,1,.33,1.95.5,2.93C196,371.52,195.77,370.67,195.58,370.08Z"/><path class="b" d="M193.62,332.33a18,18,0,0,1,1.38,1.75l1.31,1.79a18.25,18.25,0,0,0-2-1.72A4.7,4.7,0,0,0,193.62,332.33Z"/><path class="b" d="M174.82,319.05c-.94-.4-1.86-.82-2.77-1.19l-2.74-1c1.13.33,2.29.62,3.42,1l3.35,1.34A3,3,0,0,1,174.82,319.05Z"/><path class="d" d="M321.22,23.86a41.82,41.82,0,1,0,27,52.6A41.83,41.83,0,0,0,321.22,23.86Z"/><path class="b" d="M332.44,20.1A15.74,15.74,0,0,1,335.6,23a3.53,3.53,0,0,1,.89,1.81c.14,1-.21,1.65.49,2.93l-1.61-.93a9.74,9.74,0,0,0-1.12-.6l-.52-.24c-1-.76-2-1.7-3.09-2.53s-2.25-1.6-3.19-2.35c-2-1.34-3.27-2.4-2.34-2.74a18,18,0,0,1,2.8.14A14.05,14.05,0,0,1,332.44,20.1Z"/><path class="b" d="M322.41,21.74c.63.2.66.43,1.28.63l-1.13.37-1.11.38Z"/><path class="b" d="M341.48,30.87a11.77,11.77,0,0,1,1.26,1.21L344,33.35c.4.71-1.11-.59-1.18-.38l1,1.67a13.43,13.43,0,0,1,.94,1.7,8.06,8.06,0,0,0-1-1.43c-.31-.39-.59-.71-.84-1-.5-.54-.88-.89-1.15-1.17C341.27,32.19,341.18,31.94,341.48,30.87Z"/><path class="b" d="M346.22,71.53c-.71,1-.94.47-1.12-.36a16,16,0,0,0-.61-2.46,6.28,6.28,0,0,1,.4-1.18,2.92,2.92,0,0,1,.47-.85c.35-.4.75-.42,1.05.33,0,.29,0,.57-.05.82s-.07.49-.09.71c0,.44,0,.82,0,1.17C346.23,70.4,346.27,71,346.22,71.53Z"/><path class="b" d="M352.75,47.86a3.82,3.82,0,0,1-1.35-1.57c-.5-.76-1-1.68-1.46-2.54-.24-.42-.45-.84-.69-1.2a9.84,9.84,0,0,0-.7-.9c-.42-.47-.76-.65-1-.32a2.86,2.86,0,0,0-.6,2.05,5.18,5.18,0,0,1,.38.44c.2.28.48.64.75,1l1.11,1.5a10.86,10.86,0,0,1,.67,2.4c.09.53.08.81,0,.92s-.56-.22-1-.74-1-1.1-1.35-1.15-.48.34-.35,1.82a7.13,7.13,0,0,0,1.08,2.15c1.44,2.52,1.56,1.71,1.87-.17a11.4,11.4,0,0,1,.53,4.48,4.09,4.09,0,0,1-1,2.06,9.89,9.89,0,0,0-1.17,1.29,2.71,2.71,0,0,0-.33.86,4,4,0,0,0-.11,1.31c.42,2.9,1,3.51,1.8,3.54s1.64-.53,2,.26c-.6,0-1.21.65-1.8,1.78-.14.28-.29.6-.43.93s-.34.7-.52,1.07c-.36.76-.71,1.6-1,2.5a106.28,106.28,0,0,1-5.76,11.49c-1.54,3.71-4.53,6.9-8,9.61a106.68,106.68,0,0,1-11.49,7.42,44,44,0,0,1-14.36,1.69c0-.12,0-.25,0-.37a.49.49,0,0,0-.21.36,10,10,0,0,0-3.53-.85c-1.35-.21-2.81-.41-4.18-.6A21.49,21.49,0,0,1,297,99.31c-.88-.52-1.43-1.11-1.39-1.82l-.91-.09a4,4,0,0,1-1.71-.83c-.19-.2-.07-.3.11-.41.35-.2.93-.4,0-1.2a8.56,8.56,0,0,1-2.66-1.57l-1.23-1-.6-.51-.54-.55a12.07,12.07,0,0,0-2.13-1.75,3.14,3.14,0,0,0-2.13-.68c-.12-.33.27-.12.15-.45l-.4-.3a6.94,6.94,0,0,1-.85-.7l-1.19-1.08c-.56.2-1.53.12-1.62.92-.51-.59-1.42-.76-1.92-1.81-1.65-2.31.75-.92.57-2a29.14,29.14,0,0,1-5-9.56,24.61,24.61,0,0,1-.59-10.48c.48,0,.88-.45,1.17-1.15a8.33,8.33,0,0,0,.37-1.24c.11-.46.15-1,.3-1.49.28-1,.4-2.2.64-3.26s.49-2,.65-2.77a14.77,14.77,0,0,0,1.18-2c.33-.69.58-1.41.92-2.1s.58-1.43.83-2.17l.91-2.13.44-1.07c.16-.34.36-.66.54-1,.38-.65.75-1.27,1.15-1.86A8.54,8.54,0,0,1,285,38.73a8.22,8.22,0,0,1-1.2,2c-.26.32-.53.63-.81.92l-.74.94a16.78,16.78,0,0,0-1.18,1.63,1.13,1.13,0,0,0-.06,1.21l.57-.32a4.2,4.2,0,0,1,.6-.3l1.65-1.5.43-.41.47-.37c.32-.25.62-.51.91-.77s.55-.53.79-.8.51-.49.71-.75a3.17,3.17,0,0,0,.75-1.57,5.77,5.77,0,0,1-3-.19c.72-1.08.51-1.66,1.62-2.86a14.58,14.58,0,0,1,2.83-1.84c.91-.32,1.63-.37,1.87.06a7.46,7.46,0,0,1-1.58,1.1c-.53.35-1.09.66-1.53,1,.16.57,1.07.29,2.07-.18s2.25-.94,2.89-1.13c-1.61-.53-1.23-1.8-1.14-2.76s-.19-1.58-3.71-.49l1.58-1.2c.39-.3.79-.62,1.1-.83l.53-.33c.45-.82-.11-1-1.17-.93a30.33,30.33,0,0,0-3.92,1.19c-2.65,1.17-5.12,2.19-2.72-1.05.13-.51-.12-.77-.18-1.15s0-.95,1.08-1.89a5.15,5.15,0,0,0-2.85,1.14,6.11,6.11,0,0,0-2,2,5.3,5.3,0,0,0-2.6,1.17q-.39.27-.78.57l-.75.68L274,32.22c-1.05.93-1.88,2-2.69,2.62s-1.5,1-2,.7c-.44,1-.77,1.91-1.2,2.72s-.86,1.55-1.27,2.25a28,28,0,0,1-2.64,3.87c-.84,1.25-1.74,2.49-2.63,3.89a25.06,25.06,0,0,0-2.12,4.9,24.08,24.08,0,0,0-.76,4.76c0,.85.28,1.09.56,1.11.58,0,1.44-.75,2,.68a20.29,20.29,0,0,0-.44,3.52,29.19,29.19,0,0,0,.39,3.36,14.81,14.81,0,0,0,.34,1.53l.46,1.39.86,2.33c.54,2.45.08,4.19-.68,2.61a45.53,45.53,0,0,0,1.46,7.24l1.25,3.53c.41,1.19,1,2.28,1.55,3.43a45.19,45.19,0,0,0,9,12.28,49.33,49.33,0,0,0,12.69,8.77A52.67,52.67,0,0,0,303,114a29.13,29.13,0,0,0,12.38.4c1-.16,2-.24,3-.44s2-.37,3-.51l1.56-.19q.76-.14,1.56-.24c1.06-.13,2.16-.22,3.3-.25l-1.51,0c-.3-.21.7-.65,1.45-1.08-1.5,0-3-.07-4.29-.16,1.18-.29,2.38-.61,3.56-1s2.28-.92,3.37-1.44a4.44,4.44,0,0,1,1-1.08,14.85,14.85,0,0,1,1.57-1.23c.61-.41,1.28-.84,2-1.27s1.4-1,2.12-1.49,1.45-1,2.12-1.55,1.25-1.14,1.8-1.69a14.85,14.85,0,0,0,1.4-1.61,5.71,5.71,0,0,0,.7-1.54c2.43-2.2,3.78-3.84,4.89-5,.28-.27.53-.53.76-.76l.6-.68,1.06-1.13L351.53,89c.2-.21.4-.44.62-.71l.63-.9a34.12,34.12,0,0,0,3.5-6.36A59,59,0,0,0,358,69.31a83.87,83.87,0,0,0-.57-12.63,19.4,19.4,0,0,1-.13-2.23,15.48,15.48,0,0,1-.06-1.87c0-1.07.21-1.73.48-1.53l-.41-1.44c-.16-.49-.36-1-.54-1.52-.38-1-.78-2.12-1.17-3.21l-1.44-3.14c-.24-.5-.44-1-.7-1.48l-.75-1.34c-.62-.85-1.17-1.57-1.66-2.18a17.36,17.36,0,0,0-1.39-1.42A4.71,4.71,0,0,0,348,34.16c-.62-.12-.36.89.31,2.4l.56,1.23.58,1.43c.4,1,.89,2,1.31,3.06C351.53,44.41,352.37,46.43,352.75,47.86Z"/><path class="b" d="M276.24,70.37c.62.07.78-.54,1-1.3s.32-1.62.49-2.06l-.26-.54-.2-.55c-.5-2.79-1.8-3-2.38-1a1.73,1.73,0,0,1,.58.91c.13.41.22.92.36,1.46a12.87,12.87,0,0,1,.25,1.65c0,.27,0,.53,0,.79S276.21,70.16,276.24,70.37Z"/><path class="b" d="M289.45,89.61l-1,.65.49.31a7.12,7.12,0,0,0,1.12.62l1.66.83c.13-.33-.17-.73-.65-1.14S289.94,90.1,289.45,89.61Z"/><path class="b" d="M302.23,23.56c-.54.06-1,.06-1.51.12s-.91.11-1.33.14L297,24a22.5,22.5,0,0,0-2.42.52c-.43.12-.88.26-1.35.43a15.26,15.26,0,0,0-1.46.73l.8.75.78.75c4.38-.78,8.89-.51,13.69-.74,1.62-1.12.15-1.41-1.64-1.68S301.54,24.64,302.23,23.56Z"/><path class="b" d="M291.84,22.59c3.67-2.47,8.49-3.38,13-3.65,1.15,0,2.27,0,3.38-.09s2.2,0,3.27,0c.53,0,1.07,0,1.59-.08l1.56-.05a19.74,19.74,0,0,0,3.06-.41c-.27-1.25-1.41-2-3-2.52a9.55,9.55,0,0,0-2.78-.37,31.71,31.71,0,0,0-3.2.08,58.34,58.34,0,0,0-6.57,1.21c-1,.26-2,.39-2.95.59a11.19,11.19,0,0,1-2.52.3A58.93,58.93,0,0,0,287,22.91c-1.28,1.3-.59,1.35.63,1S290.76,23,291.84,22.59Z"/><path class="b" d="M319.46,21a11.44,11.44,0,0,0,2.56.35c.75-.19-.81-1-1.54-1.52C319.54,19.56,317,19.94,319.46,21Z"/><path class="d" d="M315,327.29a41.82,41.82,0,1,0,52.14,27.92A41.83,41.83,0,0,0,315,327.29Z"/><path class="b" d="M325.53,319.12l-.16-.05h-.55c-.59.65-1.86.44-3.52.56,0,.18.18.34-.38.51-2.64,0-1.31.16-3.08.83a3.59,3.59,0,0,1,1.58-.11l-.55.11a9.14,9.14,0,0,0-1.2.28l-1.71.51c.56.22,1,.5.52.92.5.6-.4,1.69-.61,2.5a6.82,6.82,0,0,1,1.32,0c0,.31-.52.57-1.17.79a.89.89,0,0,0,.26.16.89.89,0,0,1-.26-.16,12.11,12.11,0,0,1-1.38.35c.28,0,.56.05.47.21L317,326c.08.05,0,.12-.07.2l.45-.29-.42-.09c-.16-.09.07-.25.3-.4a1.5,1.5,0,0,1,.93,0s1-.56,1-.53c.29-.68-2.77.33-1.19-.58h.54a8.51,8.51,0,0,0,2.31-.86c.88.52,2.22-.84,2.44,0a22.36,22.36,0,0,0,2.47,0,22.82,22.82,0,0,1,2.62,0,12.32,12.32,0,0,1,5,1c.62-.5.78-1.62,2.29-2.12.26.13.65.29.49.4,0,0,1-.08,1-.08l-.85-.22a1.16,1.16,0,0,1-.62-.28c1.58,0-.6-.6-.41-.89h1.09c.54,0,1.08.09,1.08.09l-.22-.18c-.92-.3-1.88-.45-2.82-.71s-1.89-.52-2.86-.66a38.43,38.43,0,0,0-5.87-.72Z"/><path class="b" d="M363.84,359.65l.65-.18a33,33,0,0,1,1.16,10.39c0,.46,0,.91,0,1.37s-.12.92-.18,1.38c-.14.91-.24,1.85-.42,2.77s-.46,1.83-.7,2.76a8.36,8.36,0,0,1-.43,1.37l-.49,1.36a35.7,35.7,0,0,1-5.9,10.26A37.27,37.27,0,0,1,336.93,404a36.55,36.55,0,0,1-12.37.89,40.21,40.21,0,0,1-12-3,41.29,41.29,0,0,1-10.29-6.5l1.12-.69,1.1-.72a31.42,31.42,0,0,1-9.72-8.63,49.49,49.49,0,0,1-6.39-11.78v.52a7.79,7.79,0,0,0,.05,1.14l.18,1.66a16.26,16.26,0,0,1-2.74-6.95,21.81,21.81,0,0,1-.4-4.62c0-.77,0-1.51.09-2.22s.23-1.38.36-2l.57.58a11.3,11.3,0,0,0-.07,2.83c0,.32.13.14.26-.15.27-.61.74-1.64,1.57-.24l.27,1.14.36-.63-.27-1.14c.37.17.86.12,1,1.15,0,0,0-.35.07-.71,0-.18,0-.36.05-.5s0-.22,0-.22c2.28-2.83,3.76-2.38,5.7-1.7-.07-.37-.62-.47-1-.84s-.52-1,.18-2.45l.53.57,0-.56A11.12,11.12,0,0,1,295,357l0-1.8.66-.57a6.63,6.63,0,0,1,.69-.53c.16-1.23.05-2.2.89-3.17l-1-1c.43-.6.84-1.23,1.24-1.89s.91-1.26,1.34-1.93l.67-1c.24-.33.51-.64.76-1,.52-.64,1-1.31,1.56-1.94a25.13,25.13,0,0,1,3.64-3.37l1-.72.49-.34.52-.28c.71-.35,1.41-.68,2.1-1,.21-.95,1.35-1.28,2.64-1.78l1-.38q.56-.15,1.11-.36a8,8,0,0,0,2.2-1.2l-.9-.43-.93-.42a8.25,8.25,0,0,0-3.81.49c-.72.23-1.47.52-2.25.84s-1.5.82-2.28,1.26l-1.16.68c-.37.27-.74.54-1.1.82-.73.55-1.5,1.06-2.19,1.64-1.35,1.22-2.75,2.3-3.89,3.43l-.39-.7c.38-.57.58-1.2,1-1.72a5,5,0,0,1,1.58-1.49l-.54-1.31a4,4,0,0,0-3.67.9,12.24,12.24,0,0,0-2.62,3.72c-.32.74-.6,1.49-.85,2.21a17.17,17.17,0,0,0-.66,2,6.45,6.45,0,0,1-1.14,2.72c-1.75,2-2,1-1.94-.4s.71-2.9.1-1.72c.8-3.08-.52-2.5-2.5-.73s-4.16,4.88-5.31,6a18.71,18.71,0,0,0-3.57,6.91,46.94,46.94,0,0,0-1,4.68c-.15,1.66-.32,3.38-.33,5.12s.12,3.5.36,5.23.52,3.44.95,5.07.86,3.19,1.36,4.66,1.07,2.81,1.56,4.08c.61,1,1.31,1.92,1.94,2.9l.95,1.48c.34.49.71,1,1.06,1.45.73.95,1.4,1.95,2.14,2.92L288.9,398a68.44,68.44,0,0,0,11,10.29,55,55,0,0,0,13.24,7l3.44,1.07c1.15.31,2.3.5,3.43.73l1.68.3c.56.07,1.12.11,1.67.15,1.09.09,2.17.16,3.22.21,4.05.13,9.23-1.44,13.53-3.48,1.11-.41,2.13-1,3.14-1.44s2-.79,2.92-1.16a9.61,9.61,0,0,1,5.19-.75l2.07-1.09c.61-.35,1.36-.7,2.1-1.17l2.3-1.53a41.27,41.27,0,0,0,4.12-3.16c.55-.46,1-.82,1.31-1.12l.47-.45.33.77a44.33,44.33,0,0,0,11.13-19.85,51.56,51.56,0,0,0,.87-21.61,22.8,22.8,0,0,0-.9-3.59c-.39-1-.79-1.73-1.09-2.42a4.89,4.89,0,0,1-.25-4c-1.13-5.75-4.62-11.46-9.11-15.87A57.36,57.36,0,0,0,350,325.66c-.31.61-1.91.49-.4,1.81a17.47,17.47,0,0,1,1.86.88,8.62,8.62,0,0,1,1.72,1.12,18.84,18.84,0,0,1,2.69,2.66c1.32,1.92,1.85,3.6,1.27,4.31l-1.3-1.4s.38.84.75,1.68a10.55,10.55,0,0,1,.45,1.17c.1.33.17.54.17.54l1.88,1.17a1.84,1.84,0,0,1-.29,1.32c1.68,3.27,2.08,6.65,2.44,10.22a12.59,12.59,0,0,1,1.07,1.59,18.65,18.65,0,0,1,.78,1.94A14,14,0,0,1,363.84,359.65Z"/><path class="d" d="M188.63,61.82a41.83,41.83,0,1,0-41.82,41.83A41.83,41.83,0,0,0,188.63,61.82Z"/><path class="b" d="M195.63,71.36a15.78,15.78,0,0,1-1.76,3.88,3.46,3.46,0,0,1-1.45,1.4c-.9.44-1.64.31-2.65,1.36l.4-1.81a8.86,8.86,0,0,0,.23-1.25c0-.34.07-.57.07-.57.43-1.13,1-2.41,1.46-3.72s.84-2.62,1.26-3.75c.68-2.27,1.29-3.84,1.9-3.06a17.47,17.47,0,0,1,.72,2.7A13.89,13.89,0,0,1,195.63,71.36Z"/><path class="b" d="M191,62.31c0,.66-.21.76-.21,1.41l-.7-1-.7-.94Z"/><path class="b" d="M188.15,83.26a11.9,11.9,0,0,1-.77,1.57l-.84,1.53c-.56.61.22-1.24,0-1.24,0,0-.63.75-1.27,1.49A13.34,13.34,0,0,1,183.93,88,8.8,8.8,0,0,0,185,86.69c.28-.42.5-.79.68-1.11.37-.65.58-1.11.77-1.45C186.83,83.46,187,83.3,188.15,83.26Z"/><path class="b" d="M150.88,100.2c-1.14-.38-.73-.75,0-1.18A16.19,16.19,0,0,0,153,97.69a6.33,6.33,0,0,1,1.24,0,2.61,2.61,0,0,1,1,.18c.49.21.63.59,0,1.1l-.81.2c-.25,0-.48.09-.7.14a11.5,11.5,0,0,0-1.12.31C152,99.87,151.45,100.07,150.88,100.2Z"/><path class="b" d="M175.42,99.18a3.77,3.77,0,0,1,1.08-1.76c.56-.71,1.29-1.46,2-2.17.34-.36.67-.69.94-1s.48-.67.64-.94c.32-.55.39-.93,0-1a2.87,2.87,0,0,0-2.13.06,5.6,5.6,0,0,1-.3.49l-.74,1c-.54.76-1.09,1.51-1.09,1.51a10.61,10.61,0,0,1-2.07,1.37c-.48.25-.76.33-.89.29s0-.61.4-1.21.75-1.25.68-1.64-.47-.35-1.84.23a7.12,7.12,0,0,0-1.72,1.68c-2,2.14-1.14,2,.74,1.73A11.26,11.26,0,0,1,167,99.68a4,4,0,0,1-2.28-.34,9.14,9.14,0,0,0-1.57-.73,2.8,2.8,0,0,0-.93,0,4.5,4.5,0,0,0-1.28.29c-2.63,1.29-3,2-2.82,2.8s1,1.4.38,2c-.15-.58-1-1-2.25-1.16-.32,0-.66-.1-1-.13L154,102.2c-.83-.11-1.74-.19-2.7-.24a106.87,106.87,0,0,1-12.7-2c-4-.34-8-2.21-11.58-4.65a106.13,106.13,0,0,1-10.58-8.66,44.14,44.14,0,0,1-6-13.16c.12,0,.23-.09.36-.12a.48.48,0,0,0-.41-.08,10.34,10.34,0,0,0-.27-3.63c-.21-1.35-.47-2.8-.71-4.16a22.3,22.3,0,0,1-.06-3.7c.23-1,.62-1.7,1.32-1.88l-.2-.9a4,4,0,0,1,.27-1.88c.13-.23.27-.16.42,0,.3.28.67.77,1.13-.4a9,9,0,0,1,.68-3c.2-.49.41-1,.6-1.48l.3-.72.36-.69a11.59,11.59,0,0,0,1-2.56,3.12,3.12,0,0,0,0-2.23c.28-.22.2.21.48,0l.16-.48a7,7,0,0,1,.41-1L117,43.1c-.36-.47-.58-1.42-1.37-1.27.41-.66.29-1.58,1.13-2.37,1.7-2.28,1.12.43,2.09-.08a29.06,29.06,0,0,1,7.58-7.67A24.54,24.54,0,0,1,136.2,28c.14.46.69.7,1.46.76a7.14,7.14,0,0,0,1.29,0c.47,0,1-.15,1.51-.16,1.08-.06,2.22-.3,3.3-.39s2.08-.16,2.83-.23a14.94,14.94,0,0,0,2.25.52c.75.1,1.52.12,2.28.24s1.53.11,2.32.12l2.3.21,1.16.1c.37.05.73.14,1.1.22.73.15,1.44.32,2.12.51a8.55,8.55,0,0,1,3.27,2.05,8.36,8.36,0,0,1-2.28-.53c-.39-.15-.76-.32-1.13-.49l-1.12-.42A14.5,14.5,0,0,0,157,29.8a1.17,1.17,0,0,0-1.18.32l.49.44a4.13,4.13,0,0,1,.47.48l1.93,1.12.52.28.5.34c.34.22.67.43,1,.62a10.5,10.5,0,0,0,1,.51c.34.14.63.33.93.44a3,3,0,0,0,1.73.24,5.62,5.62,0,0,1-.73-2.91c1.24.35,1.72,0,3.21.67a14.65,14.65,0,0,1,2.62,2.13c.58.77.85,1.43.51,1.8a7.3,7.3,0,0,1-1.53-1.17A18.11,18.11,0,0,0,167,34c-.49.33,0,1.11.81,1.92s1.58,1.86,1.95,2.4c0-1.69,1.34-1.71,2.29-1.92s1.44-.67-.68-3.69L173,33.81c.41.29.83.57,1.13.79l.48.41c.92.17,1-.42.53-1.4a31.49,31.49,0,0,0-2.34-3.37c-1.92-2.16-3.65-4.2.17-2.91.53,0,.69-.35,1-.52s.92-.24,2.13.45a5.23,5.23,0,0,0-2-2.37,6.14,6.14,0,0,0-2.53-1.28,5.33,5.33,0,0,0-1.91-2.12l-.78-.57-.88-.5-1.84-1c-1.2-.71-2.44-1.19-3.31-1.76s-1.41-1.12-1.29-1.72c-1.06-.12-2.06-.15-3-.31s-1.73-.34-2.53-.52a28.24,28.24,0,0,1-4.49-1.33c-1.45-.42-2.91-.9-4.5-1.32a26.07,26.07,0,0,0-5.32-.52,23.56,23.56,0,0,0-4.77.74c-.8.27-.95.59-.88.86.15.57,1.15,1.15,0,2.13a19.05,19.05,0,0,0-3.49.66,25.48,25.48,0,0,0-3.07,1.4,14.67,14.67,0,0,0-1.36.78l-1.18.87-2,1.53c-2.16,1.26-4,1.36-2.69.15A43.1,43.1,0,0,0,116,24.68l-3,2.26c-1,.76-1.86,1.68-2.79,2.53a45.1,45.1,0,0,0-9,12.3,49.45,49.45,0,0,0-4.47,14.77A53,53,0,0,0,97.25,72a29.2,29.2,0,0,0,3.41,11.91c.46.91.86,1.86,1.35,2.76s1,1.8,1.42,2.74l.66,1.42c.24.47.48.94.7,1.42.45,1,.87,2,1.25,3.07l-.49-1.44c.1-.34.83.48,1.47,1-.48-1.42-.84-2.82-1.16-4.13.64,1,1.31,2.08,2,3.1s1.57,1.89,2.4,2.77a4.48,4.48,0,0,1,1.34.62,14.16,14.16,0,0,1,1.64,1.12c.59.45,1.2,1,1.83,1.51s1.36,1,2.06,1.57,1.41,1.07,2.13,1.54,1.46.85,2.16,1.2a14.24,14.24,0,0,0,2,.84,5.24,5.24,0,0,0,1.68.19c2.83,1.65,4.81,2.44,6.2,3.15l1,.49.83.36,1.41.67,1.43.67c.26.12.55.25.86.37l1.05.33a34,34,0,0,0,7.13,1.39,58.68,58.68,0,0,0,11.67-2,83.56,83.56,0,0,0,11.85-4.4,20.06,20.06,0,0,1,2.08-.8,16,16,0,0,1,1.76-.63c1-.29,1.71-.33,1.6,0l1.25-.83c.42-.3.84-.65,1.28-1l2.7-2.1,2.55-2.32c.41-.39.83-.74,1.2-1.12l1-1.12c.62-.86,1.14-1.61,1.57-2.26a15.51,15.51,0,0,0,.93-1.75,4.78,4.78,0,0,0,.6-1.9c-.06-.62-.95-.07-2.19,1l-1,.91-1.18,1c-.82.69-1.64,1.47-2.51,2.19C178.33,97,176.66,98.39,175.42,99.18Z"/><path class="b" d="M130.59,33.21c.12.61.76.58,1.55.58s1.64-.19,2.12-.16l.43-.42.46-.36c2.5-1.32,2.32-2.63.28-2.58a1.85,1.85,0,0,1-.69.83c-.36.25-.82.49-1.28.79a12.28,12.28,0,0,1-1.5.74c-.25.11-.5.21-.73.29Z"/><path class="b" d="M116.31,51.68,115.4,51l-.15.56a7.38,7.38,0,0,0-.25,1.26c-.14.91-.29,1.83-.29,1.83.37,0,.65-.38.89-1S116,52.29,116.31,51.68Z"/><path class="b" d="M183.11,43.65c-.22-.49-.38-1-.57-1.4s-.39-.83-.55-1.22c-.33-.8-.62-1.53-.92-2.26a23.32,23.32,0,0,0-1.24-2.14c-.25-.37-.52-.76-.82-1.16a13.7,13.7,0,0,0-1.14-1.16s-.23.49-.47,1l-.48,1c2.09,3.93,3.21,8.31,4.89,12.81,1.57,1.2,1.4-.29,1.1-2.08S181.87,43.32,183.11,43.65Z"/><path class="b" d="M180.86,33.46c3.47,2.74,5.81,7,7.44,11.28.37,1.08.74,2.15,1.13,3.19s.63,2.1,1,3.1c.18.51.36,1,.57,1.49s.35,1,.52,1.47a19.78,19.78,0,0,0,1.33,2.79c1.11-.64,1.5-2,1.46-3.67a9.51,9.51,0,0,0-.49-2.75,31.25,31.25,0,0,0-1.05-3,62.07,62.07,0,0,0-3.17-5.89c-.56-.9-1-1.82-1.46-2.62a11.66,11.66,0,0,1-1.06-2.31,58.67,58.67,0,0,0-8-7.55c-1.63-.81-1.46-.15-.73.9S180.17,32.55,180.86,33.46Z"/><path class="b" d="M190.8,59.28a11.29,11.29,0,0,0,.44,2.54c.42.66.71-1.08,1-1.93C192.21,58.91,191.06,56.57,190.8,59.28Z"/><path class="d" d="M75.44,252.26a41.82,41.82,0,1,0-53.16-25.93A41.82,41.82,0,0,0,75.44,252.26Z"/><path class="b" d="M82,255.22a7.09,7.09,0,0,1-.77.36l-.35.14.1.17A8.19,8.19,0,0,0,82,255.22Z"/><path class="b" d="M82,252.57l-.32.17c.06,0,.08.07.13.11S82,252.67,82,252.57Z"/><path class="b" d="M81,255.9c.37.62,1.16,1.07.85,2l-2.64,1.06c-.52.63.28.73.42,1.1-.68.27-1.35.53-1.29.72-.09.3,0,.5.35.54a4.52,4.52,0,0,0,1.6-.27,16.74,16.74,0,0,1,2.2-2.41,19.84,19.84,0,0,0,1.95-2.18c.43-.6.53-1,.05-1.11a3.25,3.25,0,0,0-1.19.07C82.74,255.47,82,255.73,81,255.9Z"/><path class="b" d="M85.06,252.09,82,253.7c-.12.57-.38,1.2.14,1.44A10.46,10.46,0,0,0,85.06,252.09Z"/><path class="b" d="M67.43,257.23c0-.12,0-.17.63-.11a4.9,4.9,0,0,1-.63.11c0,.11.06.27-.22.36,2.21-.57,4.78-1.16,7.18-2,.26-.29.5-.58.72-.86a50.79,50.79,0,0,1-9,2.08c-1.48.17-2.93.47-4.34.54-.71.06-1.41.13-2.09.21l-1,.14-1,.07a14.26,14.26,0,0,0,2.58.1l2.35-.08C64.18,257.66,65.67,257.37,67.43,257.23Z"/><path class="b" d="M75.2,253.46l.59-.18C75.2,253.27,75.17,253.34,75.2,253.46Z"/><path class="b" d="M23.48,185c.51-.89,1.13-1.68,1.67-2.5s1.06-1.65,1.61-2.43,1.13-1.54,1.68-2.3l.84-1.17c.29-.37.61-.72.92-1.08A43.46,43.46,0,0,0,18.52,194c.34-.78.62-1.58,1-2.34l1.21-2.25A39.38,39.38,0,0,1,23.48,185Z"/><path class="b" d="M45.61,164a28.46,28.46,0,0,0-3.75,1.31c-.59.24-1.17.48-1.72.75s-1.06.6-1.57.91c-1,.63-2,1.25-2.9,1.92S34,170.3,33.17,171l2.67-1.91c.92-.57,1.88-1.1,2.82-1.65a50.39,50.39,0,0,1,5.88-2.83C44.89,164.39,45.26,164.16,45.61,164Z"/><path class="b" d="M40.44,167.33a27.16,27.16,0,0,0-5.81,3.76,28.76,28.76,0,0,0-2.37,2.14c-.71.78-1.39,1.56-2.06,2.33l2.47-2.33,2.6-2.1,1.28-1,1.32-.93Z"/><path class="b" d="M39.89,236.3c1,.48,1.76.82,2.33,1.14s1,.54,1.34.7c.42,0,.95-.1,1.62-.14l-.28-.2-1.43-.64-1.35-.81c-.44-.27-.92-.54-1.37-.83l-1.27-1c-.4-.22-.8-.44-1.19-.63s-.72-.44-1.07-.61l.6.81c.21.26.46.49.68.73Z"/><path class="b" d="M43.56,238.14c-1.8.2-1.2.53-.43.66S44.76,238.8,43.56,238.14Z"/><path class="b" d="M24.17,234.73l-.2-.39c-.24-.34-.47-.7-.71-1.05C23.57,233.78,23.87,234.24,24.17,234.73Z"/><path class="b" d="M25.18,202.44a29.56,29.56,0,0,0-.79,6.39,52.45,52.45,0,0,1,2.36-12.29c-.22.5-.62.94-.84,1.46A21.81,21.81,0,0,1,25.18,202.44Z"/><path class="b" d="M38.51,247.35a45,45,0,0,1-14.54-13,49.45,49.45,0,0,1-6.09-18.28,55.83,55.83,0,0,1,.79-18.47c1-5.23,4.21-12.11,9.18-17.77l1.87-2.12c.62-.71,1.34-1.31,2-2s1.33-1.33,2-1.92l2.09-1.74c1.34-1.22,2.8-2.16,4.12-3.2s2.65-1.87,3.84-2.8a29.9,29.9,0,0,0-3.35,1.26c1.43-.94,2.82-1.79,4.1-2.69a50.14,50.14,0,0,1,28.79-2.51l1.81.37c.6.15,1.18.34,1.78.51,1.17.37,2.37.69,3.53,1.12l3.43,1.42a15.18,15.18,0,0,1,1.68.8l1.65.88,1.64.89c.54.31,1.05.68,1.58,1,1,.71,2.09,1.38,3.09,2.13l2.92,2.4.73.62.67.67,1.34,1.34c.53.54,1,1,1.57,1.47l1.43,1.42c.48.47.95.94,1.43,1.44l.71.79c.23.28.43.59.65.9.86,1.28,1.75,2.53,2.53,3.83l2.17,4s.07-.07.07-.16a56.26,56.26,0,0,1,4.36,37.41A49.09,49.09,0,0,1,106,244.23a5.9,5.9,0,0,1-.88,1.06,3.59,3.59,0,0,1-.78.5,5,5,0,0,0-1.48.91,36.29,36.29,0,0,1-3.42,2.78c-1.15.81-2.2,1.66-3.37,2.39l-3.56,2.26-4.06,2.28-.31-.5a10.55,10.55,0,0,1-2.31,1.29c.92-1.63,2.75-3.78,3.42-5s.2-1.6-3.43-.12h0l.89-.81.1-.07h0a14.09,14.09,0,0,0,1.56-1.7,6.31,6.31,0,0,0,.86-1.67,24,24,0,0,1-2.74,2,.83.83,0,0,0-.27-.81l.16-.29.75-.5a1.83,1.83,0,0,0,0-.56c.88-1.21,2.08-2.6,2.89-3.7s1.13-2,.55-2a3.34,3.34,0,0,0-1.4,1.17l-2.13,2.19a3,3,0,0,0-.47.13c2.16-2-.84-1.08.38-2.32.44-.36.89-.71,1.29-1.11l1.16-1.25,1.16-1.24c.39-.41.71-.88,1.08-1.3a36.79,36.79,0,0,0,3.86-5.44l1.5-2.84L98.2,227a35.73,35.73,0,0,0,2-12.57c0-.39,0-.78,0-1.17,0-.54,0-1.07,0-1.6s-.12-1-.19-1.56a28.17,28.17,0,0,0-.4-3.08l-.56-3c-.28-1-.54-2-.79-3,.2.22.4.45.59.69a30,30,0,0,0-1.67-4.83,23.13,23.13,0,0,0-1.21-2.25,13.13,13.13,0,0,0-1.4-2.14,38.29,38.29,0,0,0-8.94-8.53,46,46,0,0,0-11.09-5.64,33.56,33.56,0,0,0-25.42,1.39l1.19-.65,1.25-.51c.84-.33,1.67-.74,2.54-1l2.67-.71a22.94,22.94,0,0,1,2.76-.41l1.25-.1,1.26,0,2.47,0c-.84-.07-1.68-.07-2.51-.1H60.7l-1.23.14c-.81.06-1.62.09-2.43.16l-2.4.42c-.39.08-.79.13-1.18.22l-1.15.36-2.25.72c-.71.31-1.39.67-2.06,1a10.89,10.89,0,0,0-1.87,1.12c-.57.44-1.11.88-1.61,1.33-.25.23-.49.45-.72.68s-.41.53-.59.79c-.52.15-.63,0-1.05.26l-1.12.73c-.37.25-.7.55-1,.82-.67.56-1.39,1.07-2,1.68s-1.15,1.26-1.67,1.89a4.9,4.9,0,0,0-.68,1c-.19.35-.38.7-.54,1,.15.13-.81,1.27-.18,1.13-1.6,2.48-3.49,5.4-4.13,8.3-.09.3-.18.61-.25.91s-.06.65-.08,1c0,.65,0,1.3,0,1.94a14.89,14.89,0,0,0-.25,1.88c-.06.62-.16,1.24-.2,1.86l0,1.88a11.44,11.44,0,0,0,.05,1.85,26.34,26.34,0,0,0,.46,3.66l.33,1.8.53,1.76a32.68,32.68,0,0,0,2.91,6.74c.29.53.68,1,1,1.54a15.42,15.42,0,0,0,1,1.5,29.13,29.13,0,0,0,2.43,2.78,40.91,40.91,0,0,0,5.63,5.21A26.54,26.54,0,0,1,35.49,229c-1.92-3.39-3.13-6.84-4.8-9.67l-.92-2.09A30.6,30.6,0,0,0,35.49,229,28.15,28.15,0,0,0,37.36,232l1.06,1.39a14.3,14.3,0,0,0,1.19,1.27l-.13-.07-1.11-.84-1-1-1-1a11.88,11.88,0,0,1-.93-1.07c-.23-.38-.47-.75-.7-1.12l-.35-.55-.29-.59c-.39-.77-.8-1.52-1.23-2.24-.64-1.53-1.53-2.9-2.19-4.27-.19-.33-.38-.67-.59-1a12.31,12.31,0,0,1-1-2.11,29.61,29.61,0,0,0,1.42,4,15.17,15.17,0,0,0,.93,1.9c.34.61.62,1.25,1,1.84l1.43,2.13a7.47,7.47,0,0,0,.78,1l.81,1a21.54,21.54,0,0,0,1.8,2.6l-.32-.17a6.09,6.09,0,0,0-2.34-.69c-.88-.13-1.67,0-1.49.8a29.92,29.92,0,0,0,4.19,4.6,22.29,22.29,0,0,0,2.43,2c.42.3.8.61,1.21.88l1.23.73a35.72,35.72,0,0,0,4,2.12,12.88,12.88,0,0,0,1.22.51c.29.12.44.19.43.21,0,.21-.74.19-1.87-.18a25,25,0,0,1-4.12-1.74,20.41,20.41,0,0,1-2.12-1.18L38,240l-.69-.45c-.2-.14-.36-.27-.49-.37s-.4-.28-.37-.22c.25.3.47.63.75.91l.83.82c-.67-.35-1.36-.68-1.94-1.05s-1.3-1.18-1.94-1.78a9.32,9.32,0,0,0-1.62-1.54c-.42-.28-.82-.58-1.22-.9a10,10,0,0,1-1.05-1.11c-.34-.38-.68-.79-1-1.2a8.63,8.63,0,0,1-.93-1.31c-.57-.92-1.14-1.86-1.72-2.81s-1-2-1.64-3a20.53,20.53,0,0,1-1.12-2l-1.18-2.19c-.33-.79-.67-1.6-1-2.41-.17-.42-.34-.84-.52-1.26s-.28-.85-.42-1.29c-.38,0-.33-1.78-.68-1.15-.21-1.7-.09-3.54-.22-5.15-.09-.8-.06-1.54-.15-2.19a4.5,4.5,0,0,0-.48-1.62v-.26a5.83,5.83,0,0,0,0-1,40.48,40.48,0,0,0,.81-4c.31-1.26.56-2.47.77-3.69a45.48,45.48,0,0,1,2.15-7.37l.63-1.29c.26-.4.51-.81.77-1.22.52-.82,1.05-1.65,1.63-2.46a30,30,0,0,0-2.56,3.76c-.16.41-.32.81-.47,1.21L22,192.09a15.06,15.06,0,0,0-.69,1.67c-.37,1.14-.75,2.26-1.12,3.38l-.75,3.42a11.82,11.82,0,0,0-.28,1.7L19,204c0,.38.09,1,.1,1.56-.05.32-.11.64-.16,1a2,2,0,0,1,.19.28c0,1.09,0,2.19,0,3.3s.16,2.22.23,3.31a30.28,30.28,0,0,0,.5,3.14c.1.49.19,1,.29,1.45s.29.91.43,1.33c.23.81.45,1.63.65,2.44s.54,1.61.79,2.42.48,1.64.81,2.43l1,2.38.48,1.2.58,1.15,1.16,2.3c.41.75.9,1.46,1.35,2.19a19,19,0,0,0,1.42,2.11A21.42,21.42,0,0,1,27.14,236c-.53-.66-1.08-1.31-1.59-2s-.95-1.4-1.41-2.1a19.24,19.24,0,0,1-1.34-2.15,38.94,38.94,0,0,0,7.07,9.5c.37.45.71.91,1.1,1.33l2.53,2.56c-.73-.86-1.46-1.69-2.19-2.51l2.57,2.1c.88.65,1.82,1.21,2.71,1.8.3.21.59.43.9.63l1,.55,1.91,1.11c1.29.69,2.65,1.27,4,1.9l2.07.76a17,17,0,0,0,2.08.71l2.12.58c.35.1.7.21,1,.29l1.08.19a45.93,45.93,0,0,0,17.33.12,8.67,8.67,0,0,1-.63.83c-5.59,1.22-11.27,1-16.13,1a21.89,21.89,0,0,0,4.49.52c1.4.14,2.79,0,4.4,0,0,.12,0,.28-.24.34a32.19,32.19,0,0,0,3.3-.46l1.73-.25L68.7,253a15.82,15.82,0,0,1-2.23,1.86,10.41,10.41,0,0,1-2.19.55c-.42.06-.86.14-1.31.19l-1.38.09a39.11,39.11,0,0,1-11.75-1.38L47,253.48c-.94-.29-1.83-.7-2.76-1l-1.38-.54c-.45-.19-.89-.43-1.34-.64l-2.69-1.33a46.13,46.13,0,0,1-14.69-15.19A39.64,39.64,0,0,0,38.51,247.35Zm58.69-3.88c.39-.58.77-1.19,1.14-1.8l-.31.15A4.59,4.59,0,0,0,97.2,243.47Zm8.36-13.35c-1.94,4.21-4.63,9.75-8.45,14.41a.27.27,0,0,0,.08.14C100.75,241.07,103.76,235.49,105.56,230.12ZM113,211.86l-.07.13.09,0ZM52.82,168.74c.61-.24,1.25-.46,1.92-.68a11.65,11.65,0,0,1,2.07-.54l2.21-.37a15.85,15.85,0,0,1,2.31-.24,46.31,46.31,0,0,1,9.77.49,24.45,24.45,0,0,0,3.1.31,18.82,18.82,0,0,1,3.58.73c1.63.48,2.91.95,4.15,1.31a13.12,13.12,0,0,1,1.79.65c.59.24,1.18.5,1.81.79l-1.63-1.34a31.28,31.28,0,0,0,2.94,1.54l2.62,1.38a18.85,18.85,0,0,1,5.1,3.71c.14-.15.93,0,1.43.55a28.17,28.17,0,0,1,3.61,3.82c1,1.34,2.1,2.54,3,3.65a37.86,37.86,0,0,1,3,4.39c.85,1.48,1.73,2.84,2.4,4.13.27.67,1.36,1.79,2.08,3.1.58,1.69,1.15,3.4,1.66,5.12,0-.09.07-.17.1-.25a40.78,40.78,0,0,0-1.36-4.23,59.7,59.7,0,0,0-7-12l-1.19-1.64c-.42-.52-.88-1-1.32-1.52l-1.33-1.48L99,179.4l-.73-.67c-1-.89-1.93-1.76-2.9-2.6l-3.1-2.26a49.43,49.43,0,0,0-13.42-6.3c-1-.25-2.06-.42-3.09-.6l-1.53-.26-1.55-.17c-1.55-.13-3.14-.4-4.78-.42L65.47,166c-.8-.05-1.61,0-2.39.06l-2.27.14a18.7,18.7,0,0,0-2.1.37c-.66.15-1.29.31-1.86.48a6.88,6.88,0,0,0-1.56.64A12.14,12.14,0,0,0,52.82,168.74Zm-3.92,9.95.92-.54c.32-.16.65-.29,1-.43l2-.84a12.87,12.87,0,0,1,2.11-.65l2.15-.56,2.18-.28a13.31,13.31,0,0,1,2.17-.17,24.7,24.7,0,0,1,4.17.23,98.38,98.38,0,0,1,9.76,1.36c.84.21,1.66.38,2.4.5s1.41.17,1.93.23c1,.08,1.66-.17,1.42-1a5.84,5.84,0,0,1-1.54,0,15.9,15.9,0,0,1-2-.27c-.71-.13-1.46-.36-2.28-.53s-1.7-.34-2.59-.56a53.27,53.27,0,0,0-12-1.25,37.92,37.92,0,0,0-5.65.7c-.85.2-1.67.33-2.39.58s-1.37.51-1.94.75a10.12,10.12,0,0,0-1.44.72,3.45,3.45,0,0,0-.82.78C48.17,177.92,48.28,178.34,48.9,178.69ZM29,212.54a16.76,16.76,0,0,1-.26-3c0-.51,0-1,.06-1.57,0-.26,0-.54.06-.81s.11-.55.17-.83a27.17,27.17,0,0,0-.16,3.12A23,23,0,0,0,29,212.54ZM28.62,189c-.39.89-.81,1.76-1.22,2.63s-.7,1.82-1.07,2.71-.63,1.84-.94,2.75a24,24,0,0,0-.81,2.78,35,35,0,0,0-1.16,11.15c.14,1.39.07,2.8.27,4.21l.16,2.13c.08.71.24,1.4.35,2.1s.24,1.39.42,2.06.44,1.31.68,1.95a12.87,12.87,0,0,0,.8,1.82,16.65,16.65,0,0,0,1.09,1.6l.54-.22-.38-.42a11.46,11.46,0,0,1-.61-2.53c-.11-.81-.21-1.57-.35-2.34,0,.08.08.17.13.25l-.17-.44a16.59,16.59,0,0,0-.64-3.28,10.4,10.4,0,0,1-.46-1.68c-.11-.82-.22-1.65-.34-2.47l-.08-2.52c0-.41,0-.84,0-1.26l.07-1.25c.06-.84.05-1.69.14-2.52.25-1.65.35-3.33.73-4.93.17-.81.24-1.64.46-2.42s.39-1.58.56-2.36c.21-1,.58-1.85.85-2.77a21.91,21.91,0,0,1,.94-2.69c.36-.87.72-1.77,1.12-2.67s1-1.72,1.51-2.6c-.37.45-.88,1-1.37,1.53a10.58,10.58,0,0,0-.69.84A6.92,6.92,0,0,0,28.62,189Z"/><path class="b" d="M30.56,239.73a45.33,45.33,0,0,0,6,4.84A21.29,21.29,0,0,0,39.2,246a20.09,20.09,0,0,0,2.67,1.22,52.78,52.78,0,0,0,13.9,4.11,36.19,36.19,0,0,0,14.72-.87,1.8,1.8,0,0,0-.42-1.72,47.3,47.3,0,0,1-14.83.25,32.52,32.52,0,0,1-13.83-5.42l-.23-.08c-.52-.18-1.07-.4-1.64-.66a13.71,13.71,0,0,1-1.68-1c-.56-.38-1.16-.78-1.74-1.21l-1.66-1.49a44.93,44.93,0,0,1-3.2-3.27c-.56-.53-1-1.17-1.45-1.72s-1-1.11-1.45-1.64c-3.85-4.27-6.14-9.8-7.7-15.59a22.24,22.24,0,0,0,.48,3.17,22.89,22.89,0,0,0,.72,3.1l.93,3c.4,1,.81,1.93,1.22,2.89a24.24,24.24,0,0,0,1.38,2.8,24.28,24.28,0,0,0,1.55,2.71c.56.88,1.13,1.76,1.7,2.64Z"/><path class="b" d="M33.17,171a33.19,33.19,0,0,0-3.32,2.73l-1.6,1.43-1.48,1.57a45.28,45.28,0,0,0-10.44,19.18A47.53,47.53,0,0,1,23.8,182.4,80.22,80.22,0,0,1,33.17,171Z"/><path class="b" d="M15.28,201.51c.06-.47.09-.95.18-1.41s.18-.93.28-1.39c.2-.93.39-1.85.59-2.77a44.06,44.06,0,0,0,4.54,39.11,43.52,43.52,0,0,0,12.2,12.67l1.61,1.13,1.68,1a46.6,46.6,0,0,1-18-25.33,53.33,53.33,0,0,1-2.15-15,61.31,61.31,0,0,1,2-14.49c.1-.34.21-.71.31-1.07a47.48,47.48,0,0,0-2.16,6.42c-.25,1.1-.45,2.21-.66,3.31a23.52,23.52,0,0,0-.43,3.33l-.15,1.67-.07.84v.83l0,3.34c.05,1.11.22,2.22.33,3.32l.2,1.64.34,1.63A49.13,49.13,0,0,1,15.28,201.51Z"/><path class="b" d="M28.8,237.93l1.07,1.36c.49.46.91,1,1.44,1.38a9.36,9.36,0,0,1-.75-.94Z"/><path class="b" d="M26.39,221.42l0-.19c-.25-.79-.41-1.62-.62-2.44l-.31-1.25c-.08-.41-.11-.84-.17-1.27a22.35,22.35,0,0,1-.67-3.61,23.19,23.19,0,0,1-.19-3.83A27.19,27.19,0,0,0,26.39,221.42Z"/><path class="b" d="M30.41,207.71c.05-.46.29-1.34.38-1.8l-.17-.9c-.11.43-.21.85-.32,1.28l0,.71c0,.18,0,.35,0,.49S30.41,207.71,30.41,207.71Z"/><path class="b" d="M43.21,183.14a32.92,32.92,0,0,0-12.74,20.68,6.15,6.15,0,0,0,.15,1.19,16.73,16.73,0,0,1,.55-1.83l.58-1.83c.25-.58.48-1.17.7-1.77l.33-.89c.11-.3.27-.57.39-.86.27-.57.52-1.15.76-1.73s.57-1.11.83-1.69l.81-1.7c.31-.53.6-1.08.89-1.63a11.5,11.5,0,0,1,1.76-3,43.61,43.61,0,0,1,10.84-8.46A32.82,32.82,0,0,0,43.35,183Z"/><path class="d" d="M447.41,219.31a41.83,41.83,0,1,0-41.82,41.83A41.82,41.82,0,0,0,447.41,219.31Z"/><path class="b" d="M413.05,172.65l-1.22-.24c1,.13,2,.29,3,.47s2,.53,3,.81a40.83,40.83,0,0,1,5.78,2.23,32.18,32.18,0,0,0-13.31-5.33,20.8,20.8,0,0,0-6.9.28,15.33,15.33,0,0,0-3,1,14.4,14.4,0,0,0-2.56,1.65,3,3,0,0,0-2-1.06,17.53,17.53,0,0,0-3.43-.06,13,13,0,0,0-3.22.6c-.86.26-1.41.5-1.41.64l-1.21.76-1.17.83L383,176.83c1.1-.71,2.19-1.43,3.29-2.17-1.1.74-2.19,1.46-3.29,2.17a78.59,78.59,0,0,0-13.59,12.29,53.08,53.08,0,0,0-9.86,16.69,47.23,47.23,0,0,0-2.43,17.4,20.69,20.69,0,0,0,.19,2.61c.1.87.21,1.74.31,2.59a19.91,19.91,0,0,0,.45,2.49c.18.81.35,1.61.51,2.38a59,59,0,0,0,2.46,7.48,26.54,26.54,0,0,0,1.39,3.14,14.3,14.3,0,0,1-.75-1.77c-.16-.45-.33-.89-.66-1.79a53.93,53.93,0,0,0,8.31,10.14,15,15,0,0,0-.78-2.6s1.06,1.76,1.1,1.73a13.66,13.66,0,0,1,3.26,2.4c1.22.93,2.42,1.9,3.27,2.41-.3,0-.2.34.14.73a16.89,16.89,0,0,0,1.45,1.29l-.26-.57c4,3.39,9.62,5.86,14,7.26a3.66,3.66,0,0,1,1.27.72l2.21.38c.56.09,1.1.21,1.52.24l.7.06c-.47.55,3.59,1.1,1.41,1.16.86-.07,1.71,0,2.55,0s1.69,0,2.53,0a17.09,17.09,0,0,0,2.48-.09,16,16,0,0,0,2.4-.5,41.72,41.72,0,0,0,16.51-4.73,40.41,40.41,0,0,0,13.12-11.09l-.36,0a24.67,24.67,0,0,0,1.6-2.42l1.3-2.57c.48-.83.86-1.75,1.34-2.66s1.09-1.8,1.64-2.82c.18-.85.41-1.74.64-2.64a24.85,24.85,0,0,0,.47-2.71,10.56,10.56,0,0,0,.16-2.37,4.1,4.1,0,0,0-.43-1.65,16.67,16.67,0,0,0,.36-2.33c0-.7,0-1.33,0-2s0-1.24-.06-1.92-.15-1.42-.19-2.28c-.34.42-.49-.42-.62-1.13s-.32-1.44-.56-.52c-1,2.17-.22,2.32-1.09,4.1l.22,0a41.06,41.06,0,0,1-12.41,21.41,20.69,20.69,0,0,1-3.06,2.92c-.57.44-1.13.91-1.72,1.32l-1.88,1.12-.94.57-1,.46-2,.94c-.68.27-1.37.49-2.05.75a16.61,16.61,0,0,1-2.05.72l-2.25.68c-.76.25-1.56.32-2.33.51a38.26,38.26,0,0,1-4.75.68l-.59.07H405l-1.18,0c-.78,0-1.56.08-2.31,0l-2.22-.16-1.09-.06-1-.17a4.23,4.23,0,0,1-1.67-.57c-.24-.14-.47-.29-.7-.44s-.44-.35-.68-.52l-1.84-.58c-.31-.11-.63-.19-.95-.32l-.93-.44-1.92-.88c-.64-.32-1.24-.73-1.88-1.1a37,37,0,0,1-3.65-2.46,17.77,17.77,0,0,1-1.71-1.38c-.55-.48-1.13-.92-1.66-1.38l.17.21a18.45,18.45,0,0,1-1.41-1.61,12.76,12.76,0,0,1-1.17-1.62c-.33-.57-.67-1.13-1-1.69-.18-.28-.37-.56-.58-.83s-.35-.61-.55-.91c-.15.11-.39-.27-.59-.41.21-.43-2.41-3.85-4.19-8s-2.58-8.75-2.34-9.29c-.05-.32-.11-.64-.15-1a15.16,15.16,0,0,1,.25-2.41c.14-.8.23-1.6.43-2.38l.68-2.3c.12-.37.22-.75.35-1.12l.45-1.08c.29-.71.58-1.41.86-2.11s.66-1.33,1-2c.56-1.32,1.29-2.5,1.81-3.7l.12-.93c.08-.3.15-.6.22-.9.14-.6.27-1.2.34-1.74.78-.63.31-1.16,1.1-2a9.25,9.25,0,0,0,1.83-1,5.2,5.2,0,0,0,1-.84c.37-.46.16-.72-.57-.36a27.58,27.58,0,0,1,4.92-4.92l2.17-2.11a1.91,1.91,0,0,1,1.79-.48c1.73-1.35,1.4-.65,3.5-1.48.19.07.57-.09,1.05-.4s1.12-.62,1.73-1,1.26-.78,1.78-1.08a4.14,4.14,0,0,1,1.12-.42l-.34.18a11.53,11.53,0,0,1,1.85-.23,7.52,7.52,0,0,1,1.71.08,16.14,16.14,0,0,0,3.44.15,53.67,53.67,0,0,1,10.63.78,34.77,34.77,0,0,1,9.6,3.5c.34-.52-1.34-.48-1-1.26a35.08,35.08,0,0,1,8.83,7.33,5.15,5.15,0,0,1,.77,1.78c.63,1,.7.32,1.23,1L432,197c1.19.66.62,1.85,1.53,2.62.21-.08.52.24.73.6-.49.35.69,1.08.2,1.32l.05,0a2.09,2.09,0,0,1,.31.67c.11.07.42.32.85.64s.85.81,1.35,1.27l1.38,1.33c.36.4.62.72.73.81l0,.26c.26.65.78.79.74.36l.27.83-.07-.08.27.83a.35.35,0,0,1-.53.26,2.56,2.56,0,0,1,.57,1.42c.1-1.43-.06-3.18,0-4.8.4.5.48,1.65.77,2.24a4.56,4.56,0,0,0,0,.76c0,.3,0,.63,0,1,0,.67,0,1.39,0,2,.08.25.83.28.63,1-.41.38.12.68-.13,1.24a4.35,4.35,0,0,1-.39-1.7c-.47.2-.14,1.48-.21,2,.19.19.21,1.32.45,2-.54-.25-.31.61-.57,1,0,.47.18.76.36.56.57.13.25-1.93.87-1.31-.27.21-.13,1.14-.08,1.65.31,0,.22-.36.53,0,0,.58.37,1.19.07,1.52-.09-.11-.05-.35-.05-.51,0,.37-.56-.64-1.09-1.57s-1-1.79-.89-1.34c.13-.14.62.83,1.1,1.83s.93,2,.93,1.75c.12-.46.57.34.65-.14l-.4-.53c.08-.65.61-.95.83-.72,0,.56-.56-.23-1.08-1s-1-1.5-.81-1.06a2.85,2.85,0,0,0,.11-.39,2.15,2.15,0,0,1,.15,1.82c.3,0,.44.51.57.95l0,.15c.18.45.14,1.09.53.79-.1-1.34.7-.93,1.53-.47s1.68,1,1.7-.45c-.62,1.2-.71-.38-.85-1.59a2.48,2.48,0,0,0,.65-1.62c-.17-.77-.32-.43-.51-.55.09-.44.09-1.27.46-1.22-.51-.53.12-1-.14-1.7s-.17.07-.44-.34c-.17-.94-.46-2.25-.57-3,.25-.37.58-1.44,1.24-.93.31,1.47-.95-.32-.45,1.15.57-.84.54,1.28,1.17,1.43a4,4,0,0,0-.35-2.37l-.05.2a8.54,8.54,0,0,1-.81-3c.31.1.38-.31.63.19l-.31-1c-.13-.1-.26-.2-.21.11a1.8,1.8,0,0,1-.41-1.31c.14-.12-.77-1.26-1.62-2.34-.44-.53-.84-1.07-1.18-1.43s-.55-.58-.49-.57c-.39-.63-.13-1-.75-1.47-.05,0,.2.37.6.88a22.75,22.75,0,0,1,1.44,1.88,24.26,24.26,0,0,0,1.64,2.27,5,5,0,0,0-.78-1.43,19.71,19.71,0,0,0-1.75-2.4c-.69-.81-1.36-1.62-1.84-2.26s-.89-1-.84-1.22c-.35-.43-.79-.93-.94-.65-.45-.82.6-.11.41-.8,0,0-.08.13-.2-.05l-.1-.74a12.63,12.63,0,0,1-1.8-1.79,5.59,5.59,0,0,0-2-1.68,4.32,4.32,0,0,1,2.16.6v.24c.16,0,.79.59,1,.38a5.33,5.33,0,0,0-2-1.95c-.09-.18-.19-.38-.25-.53a.47.47,0,0,1-.06.09c-.12-.35-.08-.35.09-.35a.33.33,0,0,1,.1,0c.06-.51-.74-1.06-1.67-1.66A13,13,0,0,1,432,183.9c-.48-.22-.12.08-.73-.17l-.88-.95c-.29-.28-.58-.53-.88-.79-.59-.51-1.2-1-2-1.59-.69,0-.8.1-.36.81l-.58-.42c-.29-.19-.6-.37-.6-.37,1.63-.28-2-2-.28-2.21a3.77,3.77,0,0,0-1.88-1c-.18.19-.43.46-1.4.12-1.23-.8-.95-.57-2-1.27-.16-.39.29-.36.33-.62-1.88-.27-1.34-1.18-3.1-1.58-1.11-.21-3.26-.7-3.43-.11C412.77,173.47,412.83,173.07,413.05,172.65Z"/><path class="e" d="M293.91,147.16c-.81,7.74,2,14.37,6.2,14.81s8.32-5.48,9.12-13.22-2-14.37-6.2-14.81S294.72,139.42,293.91,147.16Z"/><path class="f" d="M277,206.18c0,7.66,3.81,13.86,8.5,13.86s8.51-6.2,8.51-13.86-3.81-13.86-8.51-13.86S277,198.53,277,206.18Z"/><path class="e" d="M198.64,141.24a5.22,5.22,0,1,1,5.22,5.22A5.22,5.22,0,0,1,198.64,141.24Z"/><path class="g" d="M252.73,141.19a4.71,4.71,0,1,1,4.7,4.41A4.56,4.56,0,0,1,252.73,141.19Z"/><path class="h" d="M216,204.76c-2.57,6-2,12.05,1.24,13.43s8-2.38,10.55-8.41,2-12.06-1.24-13.44S218.6,198.72,216,204.76Z"/><path class="i" d="M268.32,264c0,4.91,3.56,8.89,8,8.89s8-4,8-8.89-3.56-8.9-8-8.9S268.32,259.05,268.32,264Z"/><path class="j" d="M216.5,316.38c-1.58,8.78-.17,16.39,3.16,17s7.29-6,8.88-14.82.16-16.39-3.16-17S218.08,307.59,216.5,316.38Z"/><path class="e" d="M214,264c-2.57,6-2,12.05,1.24,13.44s8-2.38,10.55-8.42,2-12-1.24-13.44S216.6,258,214,264Z"/><path class="b" d="M188.77,155.89c-.57,3.41-1.75,5.45-3.52,6.12-.53-.62-1.88-1.2-4-1.73a4.31,4.31,0,0,1-3.38-3.09,32.91,32.91,0,0,1-1-7.27c-.14-2.55-.29-5.09-.43-7.64l-1.22-1.36-5.26.43a13.85,13.85,0,0,0-5,1.22,4.37,4.37,0,0,1-.22,1.3,4.33,4.33,0,0,0-.21,1,1.92,1.92,0,0,0,.43,1.15,14,14,0,0,0-.36,3.24,41.78,41.78,0,0,0,.29,4.17q.28,2.88.36,4.11c-.63.67-.94,1.15-.94,1.44a.68.68,0,0,0,.29.57c0,.05-.43.72-1.3,2a3,3,0,0,1-1.65,1.44,2.34,2.34,0,0,1-1.77-.65,3.16,3.16,0,0,0-1.47-.79,1.41,1.41,0,0,0-1.15.72c-.68-.19-1-.9-1.12-2.12s-.4-2-1-2.27a61,61,0,0,1,.14-7.06q.43-6.69.43-7.2a42,42,0,0,0,.8-8.78c0-1.06,0-2.63-.11-4.72s-.11-3.66-.11-4.71a48.56,48.56,0,0,1,.36-6.27c.1,0,.29-.07.58-.36a1.78,1.78,0,0,1-.58-1.44,8.26,8.26,0,0,1,.86-3,1.87,1.87,0,0,0,.62-1.73,3.29,3.29,0,0,1,.25-1.73.68.68,0,0,1,.36.44,1,1,0,0,1,0,.57,5.49,5.49,0,0,0-.07.72l.93,6.48h.29a20.7,20.7,0,0,1,.29-2.73,20.85,20.85,0,0,0,.29-2.88,8.27,8.27,0,0,0-.29-2.24c.09-.24.38-.36.86-.36l1.51,2.38q.36,2.67,1.08,11.16a83.43,83.43,0,0,0,1.59,10.94c2.54-.24,4.49-.36,5.83-.36a17.6,17.6,0,0,1,5.4.72A16.79,16.79,0,0,0,177,131a36.52,36.52,0,0,1,.21-5q.44-3.31.94-6.62a13.44,13.44,0,0,1,2.3-6,1.23,1.23,0,0,1-.14-.5,1.93,1.93,0,0,1,.43-1,1.85,1.85,0,0,0,.43-1,1.09,1.09,0,0,0-.14-.5,2.12,2.12,0,0,1,2.38,1q.13-.36.93-.36c0,.25-.09,1.73-.29,4.47a2.55,2.55,0,0,0,.08,1.58c.33.91.5,1.39.5,1.44.19-.14.29-.48.29-1s.09-.86.29-1c.33.14.57.52.72,1.15.28,1,.43,1.49.43,1.58a3.65,3.65,0,0,0,.36-1.51,9.49,9.49,0,0,0-.72-2.74,5.43,5.43,0,0,1-.51-3q2.07,2.59,2.42,8c.14,3,.27,6.05.41,9.08a51.69,51.69,0,0,1,.41,6.91q0,.93-.21,9.93A72.05,72.05,0,0,0,188.77,155.89Zm-28.36,1.66a15.58,15.58,0,0,1-.29-3.57,16.13,16.13,0,0,0-.29-3.56,22.11,22.11,0,0,0-.72,3.53,7.06,7.06,0,0,1-1.08,3.24,19.15,19.15,0,0,1-.36-3.89,19.86,19.86,0,0,1,.36-3.89,32,32,0,0,0-.86,6.91,17.38,17.38,0,0,0,.28,3.24c.1.58.8,1.16,2.09,1.73l-.36-.36a10.1,10.1,0,0,0,.36-1.94A1.6,1.6,0,0,1,160.41,157.55Zm.57-35.71a4.25,4.25,0,0,0-.29-2v2.38Zm.87-1.66v-1.73h-.29v1.73Zm14.25,18a3.51,3.51,0,0,0-.72-.07,11.41,11.41,0,0,0-1.87.29,4.28,4.28,0,0,1-1.87.14,5.69,5.69,0,0,1-4.61,1.8,20.52,20.52,0,0,1-2.66-.22q-1.87-.21-2.52-.21l-.29.29a16.47,16.47,0,0,0,10.08,0A20.39,20.39,0,0,0,176.1,138.18Zm-13.32-18.36a2.47,2.47,0,0,0-.36,1.44c.05,1,.07,1.56.07,1.66a5,5,0,0,0,.29-1.88,3.21,3.21,0,0,0-.29-1.58Zm17.14,28.87-.29.36c-.67-.14-1-.79-.94-1.94l.08-2.81v3a4.63,4.63,0,0,1-.65,2.74c.24,0,.54-.22.9-.65A2,2,0,0,1,179.92,148.69Zm5.61,8.5a4.66,4.66,0,0,1-.57,2.09,20.3,20.3,0,0,1-1.51-4.11,7.62,7.62,0,0,1-.29,2.74q-.87-1.23-.87-6.48v5.11c.24.82.52,1.63.83,2.45a1.42,1.42,0,0,0,1.84.93c.43-.09.65-.45.65-1.08C185.56,157.69,185.53,157.14,185.53,157.19Z"/><path class="b" d="M217.86,151.21q-.21.36-.36.36a1,1,0,0,1-.36-.21.81.81,0,0,0-.43-.22.62.62,0,0,0-.29.07c-.14.91-.43,2.21-.86,3.89a.85.85,0,0,0-.58-.29,1.23,1.23,0,0,0-.72.43c-.38.48-.6.75-.65.8s0,.28.29.57c.77-.72,1.32-1,1.66-.93l.29.36q-4.83,7.28-13.9,7.27a17.28,17.28,0,0,1-2.23-.15l-3.17-1.29a3.69,3.69,0,0,1-2.45-2.31,1,1,0,0,1-.72.36c-.53,0-1-.5-1.58-1.51a2.69,2.69,0,0,0,.14-.79,7.3,7.3,0,0,0-1.51-3.1,10.3,10.3,0,0,1-.72-3.74,15.09,15.09,0,0,1,2.38-7.42q2.16-3.37,4.24-6.69h.58l-1.66,4.39a15,15,0,0,0-.93,4.68,8.72,8.72,0,0,0,.57,3.1c.1,0,.29-.05.58-.29a33.72,33.72,0,0,1,.58-5.33,23.63,23.63,0,0,1,4.53-8.35q-.14-.36-.36-.36c-.14,0-.41.21-.79.65l-.79.86a1.65,1.65,0,0,1,.68-1.87l1.84-1.37a1.3,1.3,0,0,0,.79.22c-.38,0,.29-.17,2-.51-.29,1-.44,1.27-.44.94,0,.19.15.36.44.5a2.72,2.72,0,0,1,2.16-1.15,6.3,6.3,0,0,1,2.59.86,11.22,11.22,0,0,0,2.59,1.23c3,1.73,4.39,3.91,4.25,6.55-.1,1.68-1.51,3.67-4.25,6a3.07,3.07,0,0,0-2,.79,4.62,4.62,0,0,1-1.87,1,9.1,9.1,0,0,1-1.29.11c-1,0-2.86-.75-5.55-2.23l-1.44-2.38a4.43,4.43,0,0,0-1.15,3.17,14.5,14.5,0,0,0,.36,2.81,16.81,16.81,0,0,1,.5,2.66,5.77,5.77,0,0,0,4.32,1.8,22.57,22.57,0,0,0,4.18-.61,18,18,0,0,1,4.25-.54,26.58,26.58,0,0,0,2.88-1.95,5.85,5.85,0,0,1,3.09-1.36C217.81,150.92,217.91,151.12,217.86,151.21Zm-16.13-15.77c-.37.44-.78.88-1.2,1.34a2.21,2.21,0,0,1-1.35.75c-.47,1.59-1,3.17-1.42,4.75a17.21,17.21,0,0,0-.85,4.9,14.81,14.81,0,0,0,.29,2.88,13,13,0,0,1-.29-2.66Q196.91,142.14,201.73,135.44Zm4.54,25.06a31.36,31.36,0,0,0-3.6.79,17.4,17.4,0,0,1-3.74.51,7,7,0,0,1-1.44-.15,7.2,7.2,0,0,0,2.3.36A27.51,27.51,0,0,0,206.27,160.5Zm3.67-14.9a8.68,8.68,0,0,0-2.16-5,10.32,10.32,0,0,0-4.39-3c-1.49.53-2.62,2.12-3.38,4.75l2-.28a9.13,9.13,0,0,0,2.41.32,11.82,11.82,0,0,1,2.34.25.81.81,0,0,1-.28-.57,1.58,1.58,0,0,1,.28-.76,1.48,1.48,0,0,0,.29-.76q1.23,1.31,2,6Z"/><path class="b" d="M243,134.8c-.34-1.06-.84-1.59-1.51-1.59a1.12,1.12,0,0,0-.51.15l-.28.36L242,134.8l-2,1.87a1.12,1.12,0,0,0,.93.36,3.19,3.19,0,0,1,1.08,0l.36-.36v.72c-1.73.67-3.45,1.37-5.18,2.09a16.47,16.47,0,0,0-4.9,3l.29,5.4c0-.1-.14-1-.43-2.74a4.8,4.8,0,0,0-.87-2.3,28.08,28.08,0,0,0-.36,4.61,81,81,0,0,0,1,10.58c.1-.24.43-.36,1-.36a3.27,3.27,0,0,1-.58.61,1.28,1.28,0,0,0-.5.83,1.08,1.08,0,0,0,.07.36,1.76,1.76,0,0,1,1.37,1.8,9.52,9.52,0,0,1-.36,1.91,9.31,9.31,0,0,0-.36,2.05c-.24-.34-.34-.58-.29-.72l.29-.36c-.19-.72-.91-1.3-2.16-1.73a1.88,1.88,0,0,1-1.51-2.23,149.14,149.14,0,0,0-2.38-17.71,22.27,22.27,0,0,0-3.89-1.59,15.26,15.26,0,0,1-3.81-1.65l.65-.72a6.13,6.13,0,0,1-3-4.39l1-1.08c1.34-.15,2.69-.32,4-.51a7.53,7.53,0,0,0,3.75-1.29,59.37,59.37,0,0,1-.36-8.21v-8.43l.36-1.44a6.78,6.78,0,0,0,1.22,2.24c.91,1.29,1.39,2,1.44,2.08a.55.55,0,0,0,.36-.57,2.12,2.12,0,0,1,0-.87l.65.72,2,13.76.65.72a39.28,39.28,0,0,1,5.4-.36,38.23,38.23,0,0,1,5.4.36q0,.93.36,1.08l.29-.36c.29.19.43.64.43,1.36A2.28,2.28,0,0,1,243,134.8Z"/><path class="b" d="M270.06,151.21q-.21.36-.36.36a1,1,0,0,1-.36-.21.85.85,0,0,0-.43-.22.62.62,0,0,0-.29.07c-.14.91-.43,2.21-.86,3.89a.87.87,0,0,0-.58-.29,1.23,1.23,0,0,0-.72.43c-.38.48-.6.75-.65.8s.05.28.29.57c.77-.72,1.32-1,1.66-.93l.28.36q-4.82,7.28-13.89,7.27a17.16,17.16,0,0,1-2.23-.15l-3.17-1.29a3.69,3.69,0,0,1-2.45-2.31,1,1,0,0,1-.72.36c-.53,0-1.06-.5-1.58-1.51a2.69,2.69,0,0,0,.14-.79,7.3,7.3,0,0,0-1.51-3.1,10.3,10.3,0,0,1-.72-3.74,15.17,15.17,0,0,1,2.37-7.42q2.16-3.37,4.25-6.69h.58l-1.66,4.39a15,15,0,0,0-.93,4.68,8.72,8.72,0,0,0,.57,3.1c.1,0,.29-.05.58-.29a34.5,34.5,0,0,1,.57-5.33,23.65,23.65,0,0,1,4.54-8.35q-.15-.36-.36-.36c-.14,0-.41.21-.79.65l-.79.86a1.64,1.64,0,0,1,.68-1.87l1.84-1.37a1.3,1.3,0,0,0,.79.22c-.39,0,.29-.17,2-.51-.28,1-.43,1.27-.43.94,0,.19.15.36.43.5a2.75,2.75,0,0,1,2.16-1.15,6.29,6.29,0,0,1,2.6.86,11,11,0,0,0,2.59,1.23q4.46,2.59,4.25,6.55-.15,2.52-4.25,6a3.07,3.07,0,0,0-2,.79,4.69,4.69,0,0,1-1.87,1,9.11,9.11,0,0,1-1.3.11c-1,0-2.85-.75-5.54-2.23l-1.44-2.38a4.43,4.43,0,0,0-1.15,3.17,14.5,14.5,0,0,0,.36,2.81,18.17,18.17,0,0,1,.5,2.66,5.73,5.73,0,0,0,4.32,1.8,22.57,22.57,0,0,0,4.18-.61,18,18,0,0,1,4.25-.54,26.58,26.58,0,0,0,2.88-1.95,5.85,5.85,0,0,1,3.09-1.36C270,150.92,270.11,151.12,270.06,151.21Zm-16.13-15.77c-.38.44-.78.88-1.2,1.34a2.21,2.21,0,0,1-1.35.75c-.47,1.59-.95,3.17-1.42,4.75a17.21,17.21,0,0,0-.85,4.9,14.07,14.07,0,0,0,.29,2.88,12.37,12.37,0,0,1-.29-2.66Q249.11,142.14,253.93,135.44Zm4.54,25.06a31.36,31.36,0,0,0-3.6.79,17.4,17.4,0,0,1-3.75.51,7,7,0,0,1-1.44-.15A7.26,7.26,0,0,0,252,162,27.51,27.51,0,0,0,258.47,160.5Zm3.67-14.9a8.68,8.68,0,0,0-2.16-5,10.32,10.32,0,0,0-4.39-3c-1.49.53-2.62,2.12-3.39,4.75l2-.28a9.07,9.07,0,0,0,2.41.32,11.82,11.82,0,0,1,2.34.25.83.83,0,0,1-.29-.57,1.62,1.62,0,0,1,.29-.76,1.58,1.58,0,0,0,.29-.76q1.23,1.31,2,6Z"/><path class="b" d="M293,137.1l-.87,3.82a4.62,4.62,0,0,1-1.58.28,9.78,9.78,0,0,1-3.06-.72,9.78,9.78,0,0,0-3.06-.72,6.22,6.22,0,0,0-1.59.22,7.37,7.37,0,0,0-2.66,6.05,33.15,33.15,0,0,0,.5,4.57,25.49,25.49,0,0,1,.44,4.64,10,10,0,0,1,1.51,4,4.55,4.55,0,0,1-1.26,3,4.2,4.2,0,0,1-2.77,1.58,7.52,7.52,0,0,1-3.6-4.32,20.54,20.54,0,0,1-.58-5.61v-2.16q0-5.47-1.73-8l.58-.65-.87-.94a.62.62,0,0,0,.29-.5,1.74,1.74,0,0,0-.43-.79,1.75,1.75,0,0,1-.43-.94,11.38,11.38,0,0,1,.86-5.4c.15.24.26.36.36.36s.25-.12.47-.36a.89.89,0,0,1,.61-.36c.82,1.54,1.73,2.3,2.74,2.3.72,0,1.89-.62,3.53-1.87s2.92-1.8,3.88-1.65Q290.8,133.06,293,137.1Z"/><path class="b" d="M312,144.73a28.34,28.34,0,0,1-7.28,17.35l-1.8.65c3.36-3,5.48-5.93,6.34-8.85-.29-.29-.48-.39-.58-.29a7.26,7.26,0,0,1,1-2.92,9.17,9.17,0,0,0,1.08-2.55l-3.31-6.2q-2.24-3.45-4.82-4.32c-.25,0-.45-.29-.62-.75s-.3-.69-.39-.69-.31.12-.51.36l.29.36c-.09.05-1.22.29-3.38.72a6.27,6.27,0,0,0-3.24,1.66,5.61,5.61,0,0,0,.79,2.38,5.53,5.53,0,0,1,.79,2.23,1.92,1.92,0,0,1-.36,1.15,29.09,29.09,0,0,1-.29,3.38,28.67,28.67,0,0,0-.28,3.17A5.65,5.65,0,0,0,297.2,156a11.46,11.46,0,0,0,6.05-2.73,11.15,11.15,0,0,0,3.67-5.76,10,10,0,0,1,.15,1.73,8.66,8.66,0,0,1-2.59,5.9l-4.83,4.25a6.42,6.42,0,0,1-2.09.36c0-.15.05-.39.29-.72a1,1,0,0,0-.86-.36c-.63.05-.94.05-.94,0a7.71,7.71,0,0,1-1,1.08,2,2,0,0,1-1.15.65,7.91,7.91,0,0,1-2.81-5.4,60.79,60.79,0,0,1-.21-6.48,2.78,2.78,0,0,0,1.44-2.31c.19-1.2.53-1.92,1-2.16a2.87,2.87,0,0,1-.44-1.51,6.53,6.53,0,0,1,.36-1.8,6.53,6.53,0,0,0,.36-1.8c1.4-1.63,2.76-3.26,4.11-4.9,1.73-1.77,3.45-2.66,5.18-2.66a3.9,3.9,0,0,1,1,.14Q312.47,137.54,312,144.73Zm-10.59,18.36a1.17,1.17,0,0,1-1.22.72l-1.51-.07a4.31,4.31,0,0,0-1.8-.9,3,3,0,0,1-1.8-1.12,20.62,20.62,0,0,0,4.82-.36,1.23,1.23,0,0,1,.5-.14C300.83,161.22,301.16,161.84,301.45,163.09Zm4.83-27.86v-.36a2.06,2.06,0,0,0-1.8-1Z"/><path class="b" d="M174.21,195.79l-.65.72c.05,1.29.24,3.84.57,7.63q.44,5,.44,7.92a26.76,26.76,0,0,1-1.66,10.08,3.51,3.51,0,0,1-1-2.45,7.94,7.94,0,0,1,.43-2.16,16.7,16.7,0,0,0,.58-2.23,52.26,52.26,0,0,0,.65-8.64c0-1.92-.11-4.83-.33-8.71s-.32-6.8-.32-8.72q-.07.22.36.72c.1.05.31-.07.65-.36a6.05,6.05,0,0,1,0,4.32,1,1,0,0,1,.36.87C174.23,195.4,174.21,195.74,174.21,195.79Zm33.91,24.91a11.55,11.55,0,0,0-1.66.29,9.48,9.48,0,0,1-1.73.21,2.72,2.72,0,0,1-2.73-1.58q-5.48-2.09-6.77-6.12-.43-2.52-3.38-5.62a23.41,23.41,0,0,1-4.11-5.25,42.92,42.92,0,0,1-4.39-9.51,67.36,67.36,0,0,0-4-9.65q-1.37,1.88-1.37,5.76c0,.44,0,1.06.07,1.88V193a18,18,0,0,1-.28,3.53,42.53,42.53,0,0,0,.5,8.28,74,74,0,0,1,.79,8.42,15.52,15.52,0,0,1-2.59,9.29,2.63,2.63,0,0,0-.79.43,1.57,1.57,0,0,1-.79.36.88.88,0,0,1-.36-.07,78.52,78.52,0,0,0,1-13.68q0-1.72-.36-14.55l.29.44c.39-1.3.43-3.58.15-6.84-.24-2.93,0-5.12.86-6.56a2.36,2.36,0,0,0,.14-.79c0-.38-.26-.75-.79-1.11a3,3,0,0,1-1-1,3.81,3.81,0,0,0-1.87,3.24c0,1.44,0,2.88-.07,4.32a5.48,5.48,0,0,1-.29-1.87,13.61,13.61,0,0,1,.22-2,15,15,0,0,0,.21-2,2.85,2.85,0,0,0-.14-.94,10.34,10.34,0,0,1,1.22-3.74l1.73-3.53a4.2,4.2,0,0,1,2.45,1.66l2,2.3a4,4,0,0,0-.72-2.59,9.39,9.39,0,0,1-1.16-2.81,1.19,1.19,0,0,1,.87-.36,3,3,0,0,1,1.19.36,3,3,0,0,0,1.11.36c-.05.24.17.6.65,1.08-.24.39-.34.63-.29.72a7.62,7.62,0,0,1,3.6,4c1.68,3.36,2.52,5.07,2.52,5.11q1.8,4.68,3.67,9.44,2.39,5.4,6.34,7.2,1.08-7.64,2.59-23.19.08,4.11-.65,12.31-.65,8.58-.64,12.6a43.36,43.36,0,0,0,1.94,13.83,1.91,1.91,0,0,0,.65,2.52q.13-.07,1.8-.51a4.25,4.25,0,0,0,1.73-.93l-.65-1.8q.28.07.93-.72.08-3.31-.36-9.07-.49-6.12-.5-8.79a36.58,36.58,0,0,1,.58-6.77l-.36-.36-.65.72a74,74,0,0,0,0,20.6l-.29,2.88a3.26,3.26,0,0,1-1.15-2.45,7.51,7.51,0,0,0-.79-3,15.48,15.48,0,0,0-.36,3.45,15.64,15.64,0,0,0,.36,3.46,4.08,4.08,0,0,1-1-3,13.55,13.55,0,0,1,.36-2.8l.36-.36a35.72,35.72,0,0,1-1.15-9.36,106.25,106.25,0,0,1,.86-11.24,105.92,105.92,0,0,0,.86-11.23,42.56,42.56,0,0,0-.57-7.2l.65-.72a8.62,8.62,0,0,1,.79,2.81,3.8,3.8,0,0,0,1.08,2.59c.67-.19,1-.79,1-1.8V169l-.36-.36q3.38,8.93,3.38,22.18,0,6.92-1.08,19a10.52,10.52,0,0,0,.29,2.66,15.17,15.17,0,0,1,.36,2.52,3,3,0,0,1-1.66,2.81.66.66,0,0,0,.58.36h.72a1.07,1.07,0,0,0-.29.79A7.59,7.59,0,0,0,208.12,220.7Zm-17.79-27.51a51.76,51.76,0,0,1-3.16-7.16,50.53,50.53,0,0,0-3.24-7.24q1.44,3.68,2.8,7.35A32.43,32.43,0,0,0,190.33,193.19ZM197.1,208a13.88,13.88,0,0,0,.07-1.44,1.07,1.07,0,0,0-.72-1.08l-.28,1.8a.58.58,0,0,0,.25.64A.69.69,0,0,0,197.1,208Zm7.45-24.16a.12.12,0,0,1,0,0v-2.24a2.18,2.18,0,0,0-.65-1.8c.24-.14.34-.43.29-.86v-.94h-.29l-.36,6.48c.19,0,.4-.06.61-.32S204.53,183.85,204.55,183.87Zm1.91,35.75a2.18,2.18,0,0,1-1.11,0,2,2,0,0,0-1.12,0c-.29.14-.38.5-.29,1.08A2,2,0,0,0,206.46,219.62Zm-1.94-43.42.07-1.08q0-.65-.36-.72v2.16Zm1.65,40.54-1,1.08.36.36C206.05,217.55,206.27,217.07,206.17,216.74Z"/><path class="b" d="M243.4,219.55a10.92,10.92,0,0,1-3.17,3.45,3.67,3.67,0,0,1-2.52-1.73,1.44,1.44,0,0,1-.94.36,3.12,3.12,0,0,1-1.29-.46,4.77,4.77,0,0,0-1.23-.54q-2.16-1.23-5.32-5.62a30,30,0,0,0-3.46,2.81l.28-3.17.62.72a11.58,11.58,0,0,0,.77-3q.42-3,.42-3.24a.86.86,0,0,0-.15-.94l-.42-.79a18.09,18.09,0,0,0-3,6,20.86,20.86,0,0,1-3,6.16c.33.28.55.4.64.36l.36-.36.29.36a5.6,5.6,0,0,1-3.67,3.09l-4.82.72c-2.88-2.25-4.32-5.69-4.32-10.29A27.9,27.9,0,0,1,213.81,198l.64.72c.29-.29.48-.41.58-.36-1.11,3-1.82,7.77-2.16,14.25a2.07,2.07,0,0,1,.27,1.05,1.08,1.08,0,0,0,.59,1l.27-.29a6.94,6.94,0,0,0,.6,1.37v-2.66a30.88,30.88,0,0,1,1.65-9.22l2.88-8.64q-.36-.72-.72-.72a1.7,1.7,0,0,0-.86.47,1.7,1.7,0,0,1-.94.47,1.32,1.32,0,0,1-.64-.22,12.11,12.11,0,0,1,9.43-3.89,20.8,20.8,0,0,1,3.81.36c1.78.39,3.36,2,4.76,4.9v1.58a1.1,1.1,0,0,1-.65,1.23q2.09,10.58,5.69,16-4.26-3.88-6.63-12.89a11.21,11.21,0,0,0-.14,1.73q0,6.84,6.77,12.24l1.87,1c-.53,0-.84.12-.94.36A7.42,7.42,0,0,0,243.4,219.55Zm-24.27,2.08c-.52.05-1,.12-1.58.22a1.31,1.31,0,0,0-1.22.86Zm9.51-20.16c0-1.87-1.06-2.8-3-2.8a9.49,9.49,0,0,0-2.37.36,15.65,15.65,0,0,0-4.39,8.28l-1.59,9.79,1.57.36q3.15-1.16,4.79-6,2-6.12,3.37-7.56c.19.1.28.43.28,1l.29-.36V204a3.18,3.18,0,0,1,.5-1.51C228.4,201.91,228.59,201.57,228.64,201.47Zm12.89,19.44a11.12,11.12,0,0,0-3.46.36,18,18,0,0,1,2,.36A1.66,1.66,0,0,0,241.53,220.91Z"/><path class="b" d="M272,221.35a2,2,0,0,0-2.23,1.22,33.33,33.33,0,0,1-2.74-1.94,6.9,6.9,0,0,1-2.08-3.17,16.29,16.29,0,0,1-.94-5.19,34.47,34.47,0,0,0-.65-5.25,6.06,6.06,0,0,0-2.88-4q-4.47-.28-6.33,1.51-4.47,5.12-4.47,17.21a3.13,3.13,0,0,1-3.89.36q-2.22-1.15-2.88-6.27v-4.68a21.77,21.77,0,0,0,1-6.91v-7.13a22.87,22.87,0,0,1,.94-6.19,1.25,1.25,0,0,1,.57-.21,1.07,1.07,0,0,1,.94.72l.72,1.44a96.2,96.2,0,0,1-.65,10q-.43,4.76-.93,9.51,2.3-3.1,2.52-9.43V192.11c.62.2,1,.84,1.15,1.95a4.6,4.6,0,0,0,.79,2.37,17.45,17.45,0,0,1,10-3.38,10.2,10.2,0,0,1,7.85,3.38q5.46,5.91,5.47,16A30.28,30.28,0,0,1,272,221.35Zm-25.56-1.16V219h-.65Zm8-17.92a12.91,12.91,0,0,0-4.17,1.94.79.79,0,0,1,.21.58,2.49,2.49,0,0,1-.21.82,2.37,2.37,0,0,0-.22.83,1,1,0,0,0,.58.87c.09-.1.69-1,1.8-2.81A6.09,6.09,0,0,1,254.41,202.27Zm-3.16-5.84-1,.72h.36Zm8.28,5a9.24,9.24,0,0,0-4.9-1.36,7.25,7.25,0,0,0-4.39,1.36,24.62,24.62,0,0,1,5.4-.79A8.78,8.78,0,0,1,259.53,201.47Z"/><path class="b" d="M296,204.07a28.35,28.35,0,0,1-7.27,17.35l-1.8.65q5-4.47,6.33-8.86c-.29-.29-.48-.38-.57-.29a7,7,0,0,1,1-2.91,8.79,8.79,0,0,0,1.08-2.56c-1.1-2.06-2.2-4.13-3.31-6.19-1.49-2.31-3.09-3.75-4.82-4.32-.24-.05-.45-.3-.61-.76s-.3-.68-.4-.68-.31.12-.5.36l.28.36c-.09.05-1.22.29-3.38.72a6.42,6.42,0,0,0-3.24,1.65,5.61,5.61,0,0,0,.79,2.38,5.58,5.58,0,0,1,.79,2.23,1.92,1.92,0,0,1-.36,1.15,28.9,28.9,0,0,1-.28,3.39,26.79,26.79,0,0,0-.29,3.17,5.64,5.64,0,0,0,1.73,4.39,11.56,11.56,0,0,0,6-2.74,11.15,11.15,0,0,0,3.68-5.76,11.21,11.21,0,0,1,.14,1.73,8.62,8.62,0,0,1-2.59,5.9l-4.83,4.25a6.09,6.09,0,0,1-2.08.36c-.05-.14,0-.38.28-.72A1,1,0,0,0,281,218c-.62,0-.94,0-.94,0a8,8,0,0,1-1,1.08,2,2,0,0,1-1.16.65,7.85,7.85,0,0,1-2.8-5.4,57.19,57.19,0,0,1-.22-6.48,2.74,2.74,0,0,0,1.44-2.3c.19-1.2.53-1.92,1-2.16a2.9,2.9,0,0,1-.43-1.52,6.53,6.53,0,0,1,.36-1.8,6.4,6.4,0,0,0,.36-1.8q2.08-2.44,4.1-4.89,2.6-2.67,5.18-2.67a3.48,3.48,0,0,1,1,.15Q296.46,196.87,296,204.07Zm-10.59,18.36a1.17,1.17,0,0,1-1.22.72l-1.51-.08a4.49,4.49,0,0,0-1.8-.9,3.08,3.08,0,0,1-1.8-1.11,21.78,21.78,0,0,0,4.82-.36,1.12,1.12,0,0,1,.51-.15C284.82,220.55,285.16,221.18,285.44,222.43Zm4.83-27.87v-.36a2,2,0,0,0-1.8-1Z"/><path class="b" d="M209,267.82c-.76,2.06-1.53,4.1-2.29,6.12a8.64,8.64,0,0,1-4.16,5,16.21,16.21,0,0,1-8.67,2.59,11.09,11.09,0,0,1-6.52-1.95.81.81,0,0,0-.94-.64c-.62,0-1-.1-1.14-.29a20.26,20.26,0,0,1-6.38-10.23,92.92,92.92,0,0,1-2.08-12.31,1.15,1.15,0,0,0,.43-.93,2.83,2.83,0,0,0-.22-.9,3.26,3.26,0,0,1-.21-1,1.33,1.33,0,0,1,.14-.57,15.65,15.65,0,0,1,.94-4.39c.81-2.26,1.3-3.68,1.44-4.25a22.33,22.33,0,0,0,1.58-3.24,23.23,23.23,0,0,1,1.59-3.24l.65-.65c-.25-.1-.37-.38-.37-.86h.37a31.25,31.25,0,0,1,2.44-4.32,8.46,8.46,0,0,1,3.68-3.1l8.27.58a10.52,10.52,0,0,1,7,3.74,2.34,2.34,0,0,1,1.8,1.44c.29.72.57,1.46.86,2.23a3.85,3.85,0,0,1-.86,3.75c-1.49.24-2.35.36-2.59.36a3.16,3.16,0,0,1-2.09-.72c-2-2.79-3.94-4-5.9-3.68q-5.91,3-10,11.74a1.81,1.81,0,0,0-.87,1.44,1.17,1.17,0,0,0,.29.72q-.43,5-.43,8.64,0,8.57,3.21,13.53l.57.65a3.91,3.91,0,0,1,3.5-.93l.58.57a36.46,36.46,0,0,0,6.42-4.32l.29.36a6.75,6.75,0,0,1,2.36-2.52c.47,0,.76.12.85.36q0,.8-1.26,1.41c-.84.41-1.26.8-1.26,1.18a2.15,2.15,0,0,0,.43,1.08,5.46,5.46,0,0,1,5-2.44,1.6,1.6,0,0,0,.58-1.59,1.28,1.28,0,0,0-.93-.28H204a.51.51,0,0,0-.14-.51c-.29-.24-.43-.38-.43-.43-.29.29-.48.41-.58.36a6.19,6.19,0,0,1,2.95-1,2.35,2.35,0,0,1,1.73.65c0,.05-.11.17-.32.36a.6.6,0,0,0-.26.58.9.9,0,0,0,1.52.28Zm-25-30.53a13.16,13.16,0,0,0-3.1,6.34l-1.29,7.2,2-9.22c.53-.67,1.06-1.36,1.59-2.05A3.73,3.73,0,0,0,184,237.29Zm4.1-2.16a2.28,2.28,0,0,0-1.54,1.66c-.32.91-.59,1.79-.83,2.66A21.2,21.2,0,0,0,181.2,253c0,1,.05,2,.14,3.09q-.06-4.53,2.38-13a9.6,9.6,0,0,0,2.66-3.81C187,237.91,187.54,236.52,188.11,235.13Zm9.72,37.29-2.08,1.23h.57Zm8.79-4a15.44,15.44,0,0,0-3.24.94l.29.36-3.82,4.61a3.26,3.26,0,0,0,1.87-1.44,7.39,7.39,0,0,1,1.66-1.95l.57.58C204.53,270.77,205.42,269.74,206.62,268.39Z"/><path class="b" d="M241.68,278.55a10.92,10.92,0,0,1-3.17,3.45,3.67,3.67,0,0,1-2.52-1.73,1.43,1.43,0,0,1-.93.36,3.15,3.15,0,0,1-1.3-.46,4.75,4.75,0,0,0-1.22-.54q-2.16-1.23-5.33-5.62a30,30,0,0,0-3.46,2.81l.28-3.17.63.72a11.61,11.61,0,0,0,.76-3c.28-2,.42-3.09.42-3.23a.86.86,0,0,0-.14-.94l-.43-.79a18.29,18.29,0,0,0-3,6,20.61,20.61,0,0,1-3,6.16c.33.28.55.4.65.36l.36-.36.28.36a5.57,5.57,0,0,1-3.67,3.09l-4.82.72q-4.32-3.37-4.32-10.3A27.89,27.89,0,0,1,212.09,257l.65.72c.28-.29.48-.41.57-.36q-1.65,4.53-2.16,14.25a2,2,0,0,1,.27,1.05,1.09,1.09,0,0,0,.6,1l.26-.29a6.94,6.94,0,0,0,.6,1.37v-2.66a30.6,30.6,0,0,1,1.66-9.22l2.88-8.64q-.36-.72-.72-.72a1.72,1.72,0,0,0-.87.47,1.65,1.65,0,0,1-.93.46,1.3,1.3,0,0,1-.65-.21,12.11,12.11,0,0,1,9.43-3.89,21,21,0,0,1,3.82.36c1.77.39,3.36,2,4.75,4.9v1.58a1.09,1.09,0,0,1-.65,1.23q2.09,10.58,5.69,16-4.24-3.89-6.63-12.89a11.21,11.21,0,0,0-.14,1.73q0,6.84,6.77,12.24l1.87,1c-.53,0-.84.12-.94.36A7.46,7.46,0,0,0,241.68,278.55Zm-24.26,2.08c-.53.05-1.06.12-1.59.22a1.31,1.31,0,0,0-1.22.86Zm9.5-20.16c0-1.87-1.06-2.8-3-2.8a9.49,9.49,0,0,0-2.38.36,15.72,15.72,0,0,0-4.39,8.28l-1.59,9.79,1.58.36q3.13-1.15,4.79-6,2-6.12,3.36-7.56c.19.1.28.43.28,1l.29-.36V263a3.18,3.18,0,0,1,.5-1.51C226.68,260.91,226.87,260.57,226.92,260.47Zm12.89,19.44a11.12,11.12,0,0,0-3.46.36,18,18,0,0,1,2,.36A1.66,1.66,0,0,0,239.81,279.91Z"/><path class="b" d="M262.63,255.43l-.86,3.82a4.69,4.69,0,0,1-1.59.29,9.78,9.78,0,0,1-3.06-.72,9.78,9.78,0,0,0-3.06-.72,6.19,6.19,0,0,0-1.58.21,7.34,7.34,0,0,0-2.66,6.05,31.62,31.62,0,0,0,.5,4.57,24.42,24.42,0,0,1,.43,4.65,9.78,9.78,0,0,1,1.51,4,4.53,4.53,0,0,1-1.26,3,4.23,4.23,0,0,1-2.77,1.59,7.66,7.66,0,0,1-3.6-4.32,21.16,21.16,0,0,1-.57-5.62v-2.16q0-5.47-1.73-8l.57-.65-.86-.93a.65.65,0,0,0,.29-.51,1.91,1.91,0,0,0-.43-.79,1.75,1.75,0,0,1-.44-.94,11.41,11.41,0,0,1,.87-5.4q.21.36.36.36c.09,0,.25-.12.47-.36a.87.87,0,0,1,.61-.36c.81,1.54,1.73,2.31,2.73,2.31.72,0,1.9-.63,3.53-1.87s2.93-1.81,3.89-1.66Q260.48,251.4,262.63,255.43Z"/><path class="b" d="M290.86,269.22a18.21,18.21,0,0,1-8.21,8.83,22.88,22.88,0,0,1-10.95,2.59,24.65,24.65,0,0,0-2.95.93,9.9,9.9,0,0,1-3,.65,3.71,3.71,0,0,1-1.08-.15,7.92,7.92,0,0,1-2.09-3.52l-1.3-3.82a2.64,2.64,0,0,0,.15-.86,5.43,5.43,0,0,0-.4-1.59,5.35,5.35,0,0,1-.39-1.65q-.22-6.48,2.16-9.15.36-4.32.28-11.37,0-8.79.08-11.31a61.6,61.6,0,0,1,.86-9.36,2.3,2.3,0,0,1,2.16-1.51,2.88,2.88,0,0,1,2,.83,3.63,3.63,0,0,1,1.12,2.12l.93,20.67.94,1.08q5.61-1.8,7.56-1.8a9.53,9.53,0,0,1,2.59.35Q290.57,260.17,290.86,269.22Zm-25.92-4.79q-1.38,1.08-2.16,4.4h.64a7.21,7.21,0,0,1,.65-2.31C264.6,265.23,264.89,264.53,264.94,264.43ZM268,278q-.15-.36-.93-.36-1.52.65-1.23,1.8a.85.85,0,0,0,.51.22c.28,0,.54-.28.75-.83S267.65,278,268,278Zm9.87-4a36.25,36.25,0,0,1-4.47.43,33.77,33.77,0,0,0-4.46.29c-.48.53-.7.89-.65,1.08Zm10.51-11.09a27.81,27.81,0,0,1-10.23,6.63q-1,.72-5.25.93c-2.31.15-3.84.94-4.61,2.38q5.61-1.23,11.23-2.38A13.77,13.77,0,0,0,288.41,262.92Zm-6.77,1.55-.36-1.5a4.5,4.5,0,0,0-1.51-2c-1.15-1-1.78-1.54-1.87-1.64a3.51,3.51,0,0,0-1.59-.36,9.06,9.06,0,0,0-3.67,1.07,3.43,3.43,0,0,0-2.16,2.29,14.12,14.12,0,0,0-.29,3.43,14.06,14.06,0,0,1-.29,3.43A55.56,55.56,0,0,0,276,267.4,20.72,20.72,0,0,0,281.64,264.47Zm-9.29-6.73h-.93l-.65.43Zm13,5.18L281,266.59l2.16-1.08Z"/><path class="b" d="M207.74,334.19q-.86,0-1.2,1.32c-.22.91-.65,1.41-1.29,1.51l-17.57-.29a2.31,2.31,0,0,1-1.78-2c-.12-1-.27-2-.43-3,.55-.16.82-.46.82-.91,0-1.25,0-1.77-.1-1.58q4.71-6.94,5.76-8.77a42.33,42.33,0,0,0,4.42-9.4c0-.25.13-.75.29-1.48a6.11,6.11,0,0,0,.24-1.49,5,5,0,0,0-.05-.67c-1.86-1.57-3.39-2.35-4.61-2.35a5.51,5.51,0,0,0-1.06.1,6.49,6.49,0,0,0-3.93,1.41,7.57,7.57,0,0,1-3.6,1.56,3.51,3.51,0,0,1-1.15-.19c0-.19-.15-.6-.34-1.25a5.35,5.35,0,0,1-.19-1.29,2.22,2.22,0,0,1,.05-.53,12.27,12.27,0,0,1,9.79-4.51,14.75,14.75,0,0,1,4,.57c.58.33,1.14.63,1.68.92a2.32,2.32,0,0,1,1.06,1.63A2.55,2.55,0,0,1,200.3,306a3.48,3.48,0,0,0,.53-1.1,5.92,5.92,0,0,1,1.73,4.66,7.54,7.54,0,0,1-.29,2.06,24.34,24.34,0,0,1-2.93,7c-.51,0-.86.26-1.05.86a6.58,6.58,0,0,1-.67,1.4,19.17,19.17,0,0,1-2.79,3.62,12.85,12.85,0,0,0-2.69,3.91,31.92,31.92,0,0,1,15.12,5Zm-16.84-8.93a2.48,2.48,0,0,0-1,1.2,8.34,8.34,0,0,1-1,1.58c-.07.16-.26.27-.58.32a.4.4,0,0,0-.38.55h1A27.35,27.35,0,0,1,190.9,325.26Zm8.44-12.86c-.41,0-.67-.1-.76-.29a1.07,1.07,0,0,0,.31-.7,2.32,2.32,0,0,1,.17-.69c-1,2.14-2.64,5.31-4.95,9.5a3,3,0,0,0-2,1.63c-.39.87-.79,1.73-1.2,2.59l.28-.28a1.05,1.05,0,0,1,.34.86,4.33,4.33,0,0,1-.55,1.75,6.91,6.91,0,0,0-.55,1.27q2.49-3.78,4.94-7.58A31.15,31.15,0,0,0,199.34,312.4ZM206,335.05a.74.74,0,0,0-.72-.29h-.77l.72.58a.87.87,0,0,1-.77.53,2.86,2.86,0,0,1-.94-.29,2,2,0,0,0-1-.24,2.85,2.85,0,0,1,1.27.43,2.85,2.85,0,0,0,1.27.43,1.72,1.72,0,0,0,.39,0C205.9,335.71,206.08,335.34,206,335.05Z"/><path class="b" d="M233.23,324.78a42.34,42.34,0,0,1-1.87,6.19,8.83,8.83,0,0,1-4,4.56,18.35,18.35,0,0,1-8.16,1.87,13.07,13.07,0,0,1-7.63-2.16q-5.72-4.08-5.72-11.95a20,20,0,0,1,.39-3.89,40.86,40.86,0,0,1,6.48-14.92,6,6,0,0,0,1.05-.82,2.07,2.07,0,0,1,1.2-.53,1.82,1.82,0,0,1,.53.1,1,1,0,0,0,.29,1.58,10.83,10.83,0,0,0,3.22-2c1.85-1.57,2.84-2.4,3-2.5l.29.29a8,8,0,0,1-1.06.49,2,2,0,0,0-.91.84,1.23,1.23,0,0,1,.1.49,3.22,3.22,0,0,1-.19.86,2.86,2.86,0,0,0-.2.81,1.13,1.13,0,0,0,.29.73,13.94,13.94,0,0,0,4.51-4.41,3.69,3.69,0,0,1,.87-.1,6.25,6.25,0,0,1,5.9,3.89c.39,3.42.75,6.86,1.11,10.32Q233.23,320.51,233.23,324.78Zm-6.48-12.38a2.29,2.29,0,0,0,.1-.68,6.19,6.19,0,0,0-.19-1.22,5.56,5.56,0,0,1-.2-1.13,2,2,0,0,1,.29-1.05,3.48,3.48,0,0,0-1-1.44,4.58,4.58,0,0,1-1-1.44h-.91a.76.76,0,0,0-.77.33,3.08,3.08,0,0,0-.72-.09,2.38,2.38,0,0,0-2,1.34,7.18,7.18,0,0,1-1.83,2.21q-3.21,8.29-3.21,12.91a14.69,14.69,0,0,0,.67,4.51c.93,2.21,2,3.31,3.17,3.31a3.29,3.29,0,0,0,.76-.09,16.53,16.53,0,0,0,5-7.87A52,52,0,0,0,226.75,312.4Zm-3.65,16.8-2.54,3.16A5.62,5.62,0,0,0,223.1,329.2ZM229.3,302a4.9,4.9,0,0,0-3.94.91C226.32,302.7,227.63,302.4,229.3,302Zm2.54,13.3V314h-.29v1.3Z"/><path class="b" d="M259.15,334.19c-.57,0-1,.41-1.2,1.32s-.65,1.41-1.29,1.51l-17.57-.29a2.31,2.31,0,0,1-1.78-2c-.13-1-.27-2-.43-3,.54-.16.82-.46.82-.91,0-1.25,0-1.77-.1-1.58,3.13-4.63,5.06-7.56,5.76-8.77a42.33,42.33,0,0,0,4.42-9.4c0-.25.12-.75.28-1.48a6.11,6.11,0,0,0,.24-1.49,5,5,0,0,0,0-.67q-2.79-2.36-4.61-2.35a5.44,5.44,0,0,0-1.06.1,6.47,6.47,0,0,0-3.93,1.41,7.57,7.57,0,0,1-3.6,1.56,3.61,3.61,0,0,1-1.16-.19c0-.19-.14-.6-.33-1.25a5.35,5.35,0,0,1-.19-1.29,2.93,2.93,0,0,1,0-.53,12.29,12.29,0,0,1,9.8-4.51,14.8,14.8,0,0,1,4,.57c.57.33,1.13.63,1.68.92a2.31,2.31,0,0,1,1,1.63,2.56,2.56,0,0,1,1.73,2.49,3.48,3.48,0,0,0,.53-1.1,5.92,5.92,0,0,1,1.73,4.66,7.54,7.54,0,0,1-.29,2.06,24.63,24.63,0,0,1-2.93,7c-.51,0-.86.26-1.05.86a5.93,5.93,0,0,1-.68,1.4,18.58,18.58,0,0,1-2.78,3.62,12.67,12.67,0,0,0-2.69,3.91,31.92,31.92,0,0,1,15.12,5Zm-16.85-8.93a2.48,2.48,0,0,0-1,1.2,8.34,8.34,0,0,1-1,1.58c-.07.16-.26.27-.58.32a.4.4,0,0,0-.38.55h1A27,27,0,0,1,242.3,325.26Zm8.45-12.86c-.41,0-.67-.1-.77-.29a1.07,1.07,0,0,0,.32-.7,2.4,2.4,0,0,1,.16-.69q-1.49,3.21-4.94,9.5a3,3,0,0,0-2,1.63c-.38.87-.78,1.73-1.2,2.59l.29-.28a1.05,1.05,0,0,1,.34.86,4.5,4.5,0,0,1-.55,1.75,7.43,7.43,0,0,0-.56,1.27q2.51-3.78,5-7.58A31.15,31.15,0,0,0,250.75,312.4Zm6.67,22.65a.74.74,0,0,0-.72-.29h-.76l.72.58a.88.88,0,0,1-.77.53,2.8,2.8,0,0,1-.94-.29,2,2,0,0,0-1-.24,2.85,2.85,0,0,1,1.27.43,2.85,2.85,0,0,0,1.27.43,1.72,1.72,0,0,0,.39,0C257.31,335.71,257.49,335.34,257.42,335.05Z"/><path class="b" d="M282.67,310a3.61,3.61,0,0,1,.1.82,5.14,5.14,0,0,1-.43,1.87,10.11,10.11,0,0,0-.63,1.83q-1.35.29-3.33,2.52A7.55,7.55,0,0,1,275,319.6l-.48.76c1.05.71,2.45,1.76,4.17,3.17h.73a6.22,6.22,0,0,1-2.93,2.69,8.09,8.09,0,0,1-4.56,1.15,12.76,12.76,0,0,1-4.85-.91L272,327a7,7,0,0,0,2.83-.53q-1.4-2.44-5.95-4.51l-.48-1.3a2,2,0,0,0,1,.24l.28-.24a2.53,2.53,0,0,1-.76-1.87,2.36,2.36,0,0,1,.24-1.06l.77-1.34a35,35,0,0,0,5.42-6.1,4.53,4.53,0,0,0-4.23-2.11,41.27,41.27,0,0,0-4.22.91,12.79,12.79,0,0,0-3.89,1.73,4.22,4.22,0,0,1-.91.1,5,5,0,0,1-3.79-1.68,4.16,4.16,0,0,1-.24-1.3q5.47-5.56,12.24-5.57a17.17,17.17,0,0,1,2.83.24Q280.66,305.44,282.67,310Zm1.25,19.59a4,4,0,0,1,.09.81,3,3,0,0,1-.52,1.64c-.36.54-.71,1.05-1.06,1.53a8.29,8.29,0,0,1-6.72,3,19.36,19.36,0,0,1-5.81-1.06q-1.2-.37-5.23-1.92c-.35-.89-1.33-1.57-2.93-2a2.62,2.62,0,0,1-2.25-2.5,1.47,1.47,0,0,1,1-1.73c.74-.22,1.48-.43,2.21-.62l-.53.53a11.11,11.11,0,0,0,3.22,1,4.83,4.83,0,0,1,3,1.64.64.64,0,0,1-.34.09,5.4,5.4,0,0,1-1-.19,5.14,5.14,0,0,0-1.2-.19,1.52,1.52,0,0,0-1,.29,1.15,1.15,0,0,0,1.22.52,1.71,1.71,0,0,1,1.23.24,17.63,17.63,0,0,0,6.24,1.16c3.2,0,5.57-.92,7.1-2.74-.13-.51-.33-.77-.62-.77a2.8,2.8,0,0,0-1,.55,2.5,2.5,0,0,1-1.23.56,1,1,0,0,1-.33-.05c.8-.42,1.61-.83,2.45-1.25a3,3,0,0,0,1.53-2.21c-.16-.32-.66-.49-1.49-.53.07-.54.27-.81.63-.81a4.19,4.19,0,0,1,1.58.81ZM268.37,328l-1-.24h.77Zm7.63.53a6.28,6.28,0,0,1-2,.29,17.72,17.72,0,0,1-2.45-.24,17.58,17.58,0,0,0-2.49-.29l.24-.29A53.76,53.76,0,0,0,276,328.57Zm4.7-19.87c-.22,1.06-.54,1.68-1,1.87a.88.88,0,0,1-.09-.38,4,4,0,0,1,.19-1,4,4,0,0,0,.19-1.06,2.89,2.89,0,0,0,0-.53,18.23,18.23,0,0,0-2.25-2.11l1,1.35a3.21,3.21,0,0,1,.39,1.34c.09.54.38.8.86.77a16.48,16.48,0,0,1-3.45,3.31,35.85,35.85,0,0,0-3.7,3l.24.29-.81.82a1.14,1.14,0,0,0-.44,1c.58-.36,1.19-.71,1.83-1.06a3.89,3.89,0,0,1,1.87-.53c1.12-.86,2.26-1.73,3.41-2.59a4.46,4.46,0,0,0,2-3.31A3.47,3.47,0,0,0,280.7,308.7ZM275,317.44a16.73,16.73,0,0,0-2.5,1.34c.42,0,.67-.08.77-.24q.33.29.48.24a6.22,6.22,0,0,1,.82-.48A1.64,1.64,0,0,0,275,317.44Zm2.45-5.28c0,.67-.47,1.29-1.49,1.87h-.24Zm2.49,20.4h-.24a2.93,2.93,0,0,1-2,.52,3.82,3.82,0,0,0-2,.29A7.43,7.43,0,0,0,280,332.56Zm-1-16.95a1.15,1.15,0,0,1,.12-.41,1,1,0,0,0,.12-.36c0-.12-.08-.22-.24-.28l-1.53.76a2.33,2.33,0,0,0-1.15,1.35A4.27,4.27,0,0,0,279,315.61Zm-2-7.15v-.29l-.48-.77Z"/></svg>