<?xml version="1.0" encoding="utf-8"?>
<!-- Generator: Adobe Illustrator 22.0.0, SVG Export Plug-In . SVG Version: 6.00 Build 0)  -->
<svg version="1.1" xmlns="http://www.w3.org/2000/svg" xmlns:xlink="http://www.w3.org/1999/xlink" x="0px" y="0px"
	 viewBox="0 0 467.1 431.9" style="enable-background:new 0 0 467.1 431.9;" xml:space="preserve">
<style type="text/css">
	.st0{fill:#FFFFFF;}
	.st1{fill:#F9ED21;}
	.st2{fill:#E52625;}
	.st3{display:none;}
	.st4{display:inline;}
	.st5{font-family:'PaintyPaint1';}
	.st6{font-size:72px;}
	.st7{font-size:48px;}
	.st8{fill:#7CC242;}
	.st9{fill:#3CBEEE;}
	.st10{fill:#FFF200;}
	.st11{fill:#FCE400;}
	.st12{fill:#CE2C27;}
	.st13{fill:#00BDE6;}
</style>
<g id="Layer_3">
	<path class="st0" d="M405.3,158.4c-0.4,0-0.7,0-1.1,0l-40.5-66.8c1.3-2.6,2.4-5.3,3.2-8.1c5-15.7,3.7-32.5-3.9-47.2
		c-7.5-14.7-20.4-25.6-36.1-30.6c-6.1-2-12.5-3-18.9-3c-26.5,0-49.7,16.6-58.4,41.5l-44,0.9c-7.6-25.6-31.3-44.3-59.3-44.3
		c-34.1,0-61.8,27.7-61.8,61.8c0,16.4,6.4,31.7,17.4,43l-26.2,47.7c-4.7-1.1-9.5-1.7-14.3-1.7c-6.8,0-13.6,1.1-20.1,3.4
		C9.2,166.2-8,201.5,3.1,233.7c8.6,24.9,32.1,41.7,58.5,41.7c3.1,0,6.1-0.2,9.2-0.7l34.2,56.4c-17.1,21.1-18.7,51.8-2.2,74.9
		c11.6,16.1,30.4,25.8,50.3,25.8c13,0,25.4-4,36-11.6c10.5-7.5,18.1-17.8,22.3-29.6l57.5-1.2c8.9,24.4,31.8,40.6,58,40.6
		c6.1,0,12.1-0.9,17.9-2.7c32.6-9.9,51.1-44.5,41.3-77.1c-2.5-8.1-6.5-15.6-11.9-21.9l25.6-46.6c1.9,0.2,3.8,0.3,5.6,0.3
		c34.1,0,61.8-27.7,61.8-61.8C467.1,186.1,439.4,158.4,405.3,158.4z"/>
</g>
<g id="Layer_1">
	<g>
		<g>
			<line class="st0" x1="329.3" y1="368.2" x2="153" y2="371.9"/>
			<g>
				<g>
					<path d="M294.2,377.4c-16,1.8-35.7,0.3-51.9,2c-19.4,2.2-40.5,2.7-59.9,3.1c0-0.9,1.6-2.3-0.1-2.7c-6.5-1.2-6.6-3-6.6-4.9
						c0-0.9,4.9-0.1,3.2-1c4.9-0.1,13-0.7,8.1-1.5c-1.6-0.9-8.1,0.2-9.8-1.2c-1.7-1.3,1.6-2.8-0.1-4.1c-1.6,0-4.9,0.1-6.5,0.1
						c-1.6-0.9,1.6-2.8-0.1-2.7c-4.9-0.8-11.4-0.2-17.8-0.1c0-0.9-1.7-1.8,1.6-2.3c56.7-2.1,115-5.1,171.8-5
						c6.5,0.3,1.7,2.2-3.2,3.7c1.6-0.5,1.6,0.9,3.3,0.4c0,1.4-3.2,3.7-9.6,4.3c1.6,0,3.2-0.1,4.9-0.1c1.6,0.4,0,1.4,0,2.3
						c-1.6,0-3.2,0.1-3.2,0.5c0,0.5,0,1.4,0,1.8c1.6,0,4.9-0.1,6.5-0.1c-1.6,0-3.2,0.1-3.2,0.5c0,0.5,0,1.4,0,1.8
						c-3.2,0.5-8.1-0.3-11.4,0.2l0,1.4c3.3,0.4,8.1-0.2,11.4-0.2c-1.6,0.5-1.6,0.9-1.6,1.9c-4.9,0.6-9.7-0.7-14.6,0.8l4.9-0.1
						C307.2,378.5,299,376.9,294.2,377.4z"/>
				</g>
			</g>
		</g>
		<g>
			<line class="st0" x1="414.3" y1="213.6" x2="329.3" y2="368.2"/>
			<g>
				<g>
					<g>
						<path d="M325,359.6c2.9-3.5,3.8-1.4,5.6-2.3l-0.7,2.2c-2,2.3-5.1,5.8-5.8,4.5C324.1,363.7,323.9,361.2,325,359.6z"/>
						<path d="M327.4,366.8c0.2-0.4,0.4-0.3,0.6-0.7l0.7,1.8L327.4,366.8z"/>
						<path d="M331.6,354.1l0.9-1.9c0.4-0.3,0.1,0.8,0.3,0.9l1.7-1.8C332.4,353.9,333.7,354.5,331.6,354.1z"/>
						<path d="M352,333.7c1.5-1,0.7,1.8,1,2.7c-0.7,1.1-2.1,1.7-2.2,0.4C351.7,335.3,351.6,334.5,352,333.7z"/>
						<g>
							<path d="M337.1,343.1c0.9,1.4-2.1,5-0.7,5.3c0.6,0.1,1.2,0.2,1.8-0.1l0.4-2.4c3.3-4.8,0.4,3,3.4,0.2c0.4-0.8,0.5-1.1,0.5-1.6
								c0.3-2-0.3-1.7-1.5-1.1c2.5-4.9,5-1.2,6.4-3.8c1.5-3.9-1.8-2.8-2.1-4.1c2.1,1.2,7.3-4.5,10.4-9.8c1.8-5.5,7-10,8.9-16.7
								c1.7-2.4,4-5.5,6-8.7c0.1,0.1,0.2,0.1,0.3,0.2c0-0.1-0.1-0.2-0.2-0.3c2.9-1.6,3.8-8.6,6.5-7.9l0.1-0.7c1.5-3.1,0.9,0.5,2.3-1
								c1.2-2.9,5.2-5.5,4-8c0.3-0.1,0.2,0.2,0.5,0.1l0.9-2.4c-0.4-0.4-0.7-1.2-1.5-1.1c0.3-0.5,0-1.3,0.6-1.9
								c1-1.9,1.1,0.3,1.9-0.1c2-5,4.8-10.5,8.3-14.4c1.7,1,4.3-4.3,5.4-6.6c3.9-3.5,3.4-10.3,6.7-12.8c0,2.6-3,5.2-2,6.3l1-0.6
								c1.5-1.8,4.1-4.6,3.5-6.5c-1.3,0.7-2,0.5-2.7,0.5c0.2-1.1-0.2-1.5,0.2-2.7c0.8-1.7,2-3.4,2.9-2.9c-0.2,1.1-1,1.9-1.4,2.7
								c0.8,0.8,2.5-2,3.3-2.8c-3.2,0.5-1.6-4.6-5.6-0.7l0.9-2.8c-0.9-3-6.4,7.2-6.2,1.5c-0.3-0.8-1.3-0.5-1-2.3
								c-1.3,0.4-2,2.1-1.9,3c-2.2,0.3-3.7,6.2-5.9,5.2c-0.6,5.2-4.7,5.6-7.2,9.2c-3.2,4.7,0.3,2.4,0.7,4.5c-2,2.1-2.3,5.2-2.6,6.9
								c-0.7,1.4-2,1.7-1.8,0.7c-7.5,9-13.6,18.9-19.3,28.9c-3.6,3.3-3.8,8.2-8.5,10.9l0.8-0.4c0.3,0,0.1,0.6,0,1.1
								c0.8-0.4,1.6-0.8,2.4-1.2c-0.8,1.1-1.6,2.2-2.3,3.4c1,2.2-3.8,6.8-3,9.4c-4.2,6.3-3.4,3.1-7.8,9.4c-1.3,3.9-2.8,8.6-5.4,12.7
								c-0.9,1.5-2.5,2.5-2.7,2c-0.9,1.9-2.3,4.6-3.4,6.4C328.8,354.5,335.3,346.1,337.1,343.1z"/>
							<path d="M393.9,269.2c0.8,0.8,2.3-1,3.1-1.4l0.2-1.1c0.9-2.4-0.2-3.1-1.6-2C396.2,265.7,394.8,268.1,393.9,269.2z"/>
							<path d="M384.6,287.6l-0.8-0.8l-1.2,2.9C383.3,290,384,288.7,384.6,287.6z"/>
							<path d="M409.1,225.6c-1.6,2.5-3.1,3-4.3,6l2.1,0.5c2.3-2.2,5-4.4,6.7-7.7C412.9,221.2,410.2,227.6,409.1,225.6z"/>
							<path d="M402.7,229.5c1-5.7,6.6-9.8,6.1-15.4c-4.8-1.2-4.2,8.2-7.2,10.5c-0.6,2.3-0.9,3.7-1.8,6.5
								C399.7,233.4,401.8,230.6,402.7,229.5z"/>
							<path d="M411.5,213.9c0.3-0.5,0.4-1.2,0.5-1.6c-0.1-0.6-1,0.2-1.5,0.5C410.2,213.4,410.4,215.2,411.5,213.9z"/>
						</g>
					</g>
				</g>
			</g>
		</g>
		<g>
			<line class="st0" x1="322.9" y1="62.7" x2="414.3" y2="213.6"/>
			<g>
				<g>
					<g>
						<path d="M320,68.1c-0.2-0.3-0.4-0.6-0.4-0.6l-0.2,0.1C319.7,67.8,319.9,68,320,68.1z"/>
						<path d="M322.4,67.5l-0.1-0.2c0,0-0.1,0.1-0.1,0.1C322.3,67.5,322.3,67.5,322.4,67.5z"/>
						<path d="M319.5,67.6c-0.6,0.4-1,1-1.8,1.1c-0.2-0.3-0.6-1-0.8-1.4c-0.5-0.1-0.7,0.4-1,0.6c-0.2-0.3-0.4-0.7-0.6-0.6
							c-0.6,0-0.6,0.6-0.3,1.3C317.7,69,320.6,72.4,319.5,67.6z"/>
						<path d="M322.5,69.6l-1.1-1.8c-0.5,0-1,0-1.3,0.4C321,68.9,321.6,69.3,322.5,69.6z"/>
						<path d="M408.7,210.2c0.1-0.1,0.2-0.1,0.2,0.3C408.9,210.4,408.8,210.3,408.7,210.2c-0.1,0.1-0.2,0.2-0.4,0
							c0.9,1.1,2,2.4,2.8,3.7c0.3,0.1,0.6,0.1,0.8,0.2c-2.2-3.3-4.2-6.7-6.8-8.9C406.4,207.2,407.5,208.3,408.7,210.2z"/>
						<path d="M413.2,213.8c0.1,0.1,0.1,0.2,0.2,0.3C413.4,213.8,413.3,213.8,413.2,213.8z"/>
						<path d="M372.8,155.7c-1.4-2-3.1-3.5-4.8-5c2.9,3.6,5.5,7.5,8,10.2C375,159.2,373.9,157.5,372.8,155.7z"/>
						<path d="M360.3,142.9c1.3,2.8,3,4.7,4.8,6.3c-1.4-2-2.8-4-4.2-5.9C360.7,143.1,360.5,143,360.3,142.9z"/>
						<path d="M363,145.1c1.4,2.4,3.2,4,5,5.6C366.4,148.7,364.8,146.7,363,145.1z"/>
						<path d="M406.8,182.7c1.4,1.3,2.2,2.1,2.6,2.6c0.4,0.1,0.9,0.2,1.5,0.4c-0.1-0.1-0.1-0.2-0.2-0.3c-1.3-1.4-2.5-2.9-3.8-4.4
							c-0.6-0.5-1.2-1.1-1.8-1.4C405.6,180.6,406.2,181.7,406.8,182.7z"/>
						<path d="M409.4,185.2C406.2,184.4,410.9,187.2,409.4,185.2L409.4,185.2z"/>
						<path d="M392.8,181.5l-0.1-0.2c-0.2-0.2-0.4-0.4-0.5-0.6C392.3,181,392.6,181.3,392.8,181.5z"/>
						<path d="M385.9,159.4c0.9,1.3,1.8,2.6,2.8,3.9c-1.9-2.7-3.7-5.4-5.6-7.4c0.2,0.3,0.3,0.8,0.5,1.1
							C384.3,157.5,385.2,158.4,385.9,159.4z"/>
						<path d="M400.9,191.4c-2.7-3.5-5.5-6.9-8.2-10.1c-4.5-7.2-9.1-14-14.3-19.4c-4.7-4.7-10.2-14.6-16.3-18.5
							c0.3,0.6,0.6,1.2,0.9,1.8c-0.7-0.7-1.4-1.3-2.2-1.8c-6.1-8.8-11.9-17.5-17.6-26.9c-0.8-1.4-2-2.1-2.8-3.5
							c-0.9-1.4-1.7-2.7-2.6-4.1c0,0-0.1,0.1-0.1,0.1c-3.7-5.6-7.4-11-11.5-16.6c-1.8-2.7-3.4-5.5-5-8.3c-0.6-1,0-1.4-0.2-2.2
							c-0.8-3.3-1.4-5.8-3-9.1c0,0,0.3-0.2,0.5-0.3c-0.3-0.4-0.6-0.9-0.8-1.3c2.8,0.4,5.7,3.7,4.6-1.1l0,0c0.2,0.2,0.4,0.4,0.5,0.5
							c0,0,0,0,0,0.1l0,0c0.9,0.8,1.5,1.1,2.4,1.4l-1.1-1.8c0.3,0,0.6-0.1,0.8-0.3c0.1,0,0.2,0,0.2,0.1c0.2,0.3,0.3,0.5,0.3,0.5
							c0.2,0,0.4,0,0.5,0c1.7,1.2,3.6,3.4,4,2.5c0.1-0.6-0.9-1.6-1.9-2.7c0-0.1,0-0.2,0-0.4c1.2,1.6,1.2-0.7,2,0.2
							c0.8,1.4,1.8,2.7,2.7,4c3.4,5.6,6.5,10.3,10.3,15.5l0.5,0.7c1.8,2.6,3.4,5.1,4.9,7.8c-0.2-0.1-0.4-0.2-0.6-0.3
							c1.2,2.2,2.4,4.3,4,6.3c3.8,4.8,7.6,9.6,11.1,15c3.6,5.7,7.4,11.1,11.5,16.6c-1.8-2.2-3.6-4.4-5.2-6.8c-0.7-1.1-1.3-2.2-2-3.3
							c0.6,1.1,1.3,2.2,2,3.3c2.5,4.3,5,8.8,8.5,11.1c0.1,0.4-0.1,0.5,0.1,0.9c1.5,2.4,2.8,4.9,4.7,6.6c0.2-0.1,0.8,0.9,0.9,0.4
							c1.4,2,2.9,4.4,4.5,6.3c0.7,0.8,1.5,1.5,2.5,2.2c5.4,6.9,10.7,13.7,16.4,21.2c1.4,1.9,2.8,4.2,4,6.2c-2.4-2.6-4.7-5.4-7-8.2
							c-1.7-3.1-3.4-6-5.7-7.8c-0.5-0.5-1-0.9-1.5-1.4c2.4,3.1,4.8,6.2,7.2,9.2c1,1.8,2,3.7,3.1,5.5c0,0-0.1-0.1-0.1-0.1
							c-1.1-1.3-2.1-2.6-3.2-3.9c-1.5-2.7-3.1-5.3-5-7.2c-0.2-0.2-0.5-0.5-0.7-0.7c-0.5-0.5-1-0.9-1.5-1.4c1.5,1.9,3,3.8,4.4,5.7
							c0.9,1.2,1.8,2.3,2.8,3.5c0.4,0.8,0.9,1.6,1.3,2.4c-0.1-0.1-0.2-0.1-0.3-0.2c-0.6-0.6-3.7-1.3-3.6,0c1.6,2.7,3.8,5.7,5.5,8.1
							c0.9,1.2,1.6,2.3,2.1,3c0.5,0.8,0.8,1.2,0.8,1.2c-0.5,0.7-6.9-7.8-6.8-7.4c0.2,0.6,0.5,1.1,0.7,1.7c-0.4-0.4-0.9-0.8-1.3-1.1
							c-0.8-0.9-1.5-2.4-2.2-2.9c-2.5-1.8-3.8-4.8-6.2-7.1c-1.6-1.4-3.5-3.1-5.4-4.8c-0.3,0.2-0.8-0.9-0.9-0.4c-1.2-2-2.6-4.2-4-4.5
							l-0.1-0.1c-0.1-0.1-0.3-0.3-0.5-0.5c-1.8-3.4-4.1-5.1-6.5-7.6c-0.7-1-1.4-2-2-3c0.4,0.7,0.9,1.8,1.5,2.4
							c0.2,0.2,0.4,0.4,0.6,0.6c1.8,2.5,3.8,4.7,5.6,7c0.2,0.1,0.6,0.4,0.9,0.6c0.1,0.2,0.2,0.4,0.3,0.6c0.1,0,0.2,0,0.3,0
							c1.9,2.1,3.7,4.7,5.5,6.4c2.9,3.5,5.1,7.8,7.4,11.7c-1.5-1.8-2.9-3.5-4.4-5.2c1.7,2.2,3.4,4.2,5,6.2c0.2,0.3,0.4,0.7,0.6,1
							l1.3,2.1c-0.3-0.7-0.7-1.4-1-2c1,1.2,1.9,2.3,2.9,3.5c5,6.5,9.7,13.4,13.7,20.6c-0.3,0-0.6,0-0.9-0.1
							c-2.2-3.3-4.2-6.7-6.8-8.9c1.2,2,2.3,3.1,3.5,5c-0.1,0.1-0.2,0.2-0.4,0c0.9,1.1,2,2.4,2.8,3.7c-0.7-0.2-1.4-0.4-2.2-0.6
							c-0.8-0.5-1.4-1.5-2.2-2.5c-3-4.3-5.5-8.6-8.6-12.8c-2.3-4-4.6-8-7-11.8C395.6,185.1,398.2,188.3,400.9,191.4z M326.2,77.9
							c0.3,0.3,0.6,0.6,0.9,0.9c0-0.1,0-0.2,0-0.2C326.9,78.3,326.5,78,326.2,77.9z M330.9,86.1c-1.2-2.6-3.4-5.4-5.5-8.3
							c-0.1,0-0.1,0-0.1,0.1C326.6,80.5,328.9,83.3,330.9,86.1z M333.2,97.7L333.2,97.7L333.2,97.7L333.2,97.7z M364.1,136.6
							c-2.5-2.3-4.6-5.7-7-9c-0.6-1-1.9-1.7-2.8-3.1c-1.2-1.6-2.2-2.5-3.2-3.7l0.3,1.2c-1.3-2.5-3.1-3.3-4.3-5.9
							c-0.2,0.1-0.7,0-0.9-0.4c-1.2-1.6-1.9-3.6-3.1-4.7c-1.2-1.6-2.3-3.4-3.4-4.5c-0.2-0.3-1.1-0.7-1.7-1.3
							c-0.6-0.8-1.1-1.6-1.7-2.4c0,0.1,0,0.1-0.1,0.2c0.4,0.7,0.8,1.4,1.4,2c1.6,1.9,3.4,4.1,4.8,6.1c3.5,5,7.1,9.4,10.7,13.9
							c0.8,0.9,1.8,1.8,2.6,2.7c2.6,2.7,4.7,6.6,7.1,8C363.1,135.8,363.5,136.5,364.1,136.6z M373.7,136.1
							c-2.9-3.2-5.7-7.1-7.6-10.6c-1.7-2.8-7.5-10.1-8.7-7.5C363.1,119.2,371.3,140.8,373.7,136.1z M394.2,163.1
							c-1.1-1.3-2.2-2.5-3.2-4.2L394.2,163.1z M378.5,152.5c3.9,3.8,7,8.5,10.4,12.6c2.6,3.2,4.1,7.5,7.1,9.9l0.5-0.3l-0.4-0.2
							c-0.6-1.3-1-2.4-1.4-3.5l0.2,0.2l-0.2-0.3c-0.3-0.7-0.7-1.5-1.4-2.2c-0.3-0.3-0.6-0.7-0.9-1c-2.9-4.1-5.9-8.5-9.3-11.7
							c-2-2.1-4.1-3.7-6-5.8C377.4,150.8,377.9,151.9,378.5,152.5z"/>
						<path d="M397.4,184.8c1.1,1.4,2.2,2.8,3.3,4.2c0.9,1,1.8,2.1,2.8,3.1c4.3,5,7.9,11.7,11.9,17.4c0.6-0.1,1.1-0.4,1.5-0.9
							c-3.4-6.8-8.2-12.7-11.8-19.4l-0.1-0.1c-2.7-2.2-5.1-6.9-8-9.8c-3.1-2.9-5.5-6.1-8.5-9.1C391.5,175.1,394.7,179.7,397.4,184.8
							z"/>
						<path d="M365,149.2c0.9,1.3,1.9,2.6,2.8,3.9c2.7,3.6,5.3,6.7,8,9.8c-1.6-2.5-3.2-5-4.8-7.6C369.2,152.8,367.1,151.1,365,149.2
							z"/>
						<path d="M378,165.4c-0.7-0.8-1.5-1.7-2.2-2.5c2.4,3.7,4.9,7.3,7.4,10.9c4.4,5.7,8.7,11.5,13.3,17.1c0.5,0.6,1,1.3,1.5,1.9
							c-6.7-11.5-13.5-23.1-21.4-31.5c-0.1-0.2-0.3-0.3-0.5-0.5c2.9,4.5,5.9,9,8.9,13.4C382.7,171.3,380.4,168.3,378,165.4z"/>
						<path d="M396.3,183.4c0.2,0.3,0.4,0.7,0.6,1c0.3,0.4,0.6,0.7,0.9,1c-0.1-0.2-0.3-0.5-0.4-0.7
							C397.1,184.3,396.7,183.9,396.3,183.4z"/>
						<path d="M394.7,170.9l-0.1-0.1c-0.7-1-1.5-2.1-2.3-3.2c-1.2-1.4-2.5-2.8-3.7-4.4C390.7,166.2,392.7,169,394.7,170.9z"/>
						<path d="M392.9,158.9c-0.2-0.3-0.6-1-0.8-1.4l-0.7-0.4c0.2,0.3,0.4,0.7,0.6,1L392.9,158.9z"/>
						<path d="M377.8,140.1c4.4,5.7,8.5,11.1,12.7,16.4c0.3,0.2,0.6,0.4,0.9,0.6c-2.2-3.9-4.7-7.6-7.8-10.5c-0.6-0.6-1.7-1.3-2.1-2
							c-2.1-3.2-4.6-6-6.9-8.8c1.1,1.4,2.1,2.8,3.2,4.2L377.8,140.1z"/>
					</g>
				</g>
			</g>
		</g>
		<g>
			<line class="st0" x1="146.5" y1="66.4" x2="322.9" y2="62.7"/>
			<g>
				<g>
					<g>
						<path d="M315.7,69.3L315.7,69.3l0.4,0.1c0.4-0.6,1.1-0.5,2.1-0.3c0-0.2-0.1-0.4,0.2-0.5c1.5,0.3,0.8,0,1.9-0.4
							c-0.3,0-0.8,0.1-0.9-0.1l2.1-0.2c-0.3-0.3-0.6-0.7-0.2-1c-0.2-0.7,0.5-1.6,0.7-2.3c-0.4-0.1-0.7-0.2-0.8-0.3
							c0-0.3,0.4-0.4,0.9-0.5c0-0.1-0.1-0.1-0.1-0.2c0.1,0.1,0.1,0.1,0.1,0.2c0.3,0,0.6,0,0.9,0c-0.2-0.1-0.3-0.2-0.3-0.3l-1.3,0
							c0-0.1,0-0.1,0.1-0.2l-0.3,0.2l0.3,0.2c0.1,0.1-0.1,0.2-0.2,0.3c-0.3,0.1-0.4-0.1-0.6-0.2l-0.7,0.3c-0.2,0.5,1.8,0.3,0.7,0.8
							l-0.3-0.1c-0.5,0.1-1.2,0.2-1.5,0.5c-0.5-0.6-1.4,0.5-1.5-0.3c-2-0.4-4.5,0.4-6.5-0.5c-0.3,0.6-0.3,1.7-1.1,2.5
							c-0.2-0.1-0.4-0.2-0.3-0.3l-0.6,0.3c0.3,0,0.8-0.1,0.9,0.2c-0.9,0.3,0.4,0.5,0.4,0.8l-1.3,0.3l0.2,0.1
							C311,68.6,313.3,69.1,315.7,69.3L315.7,69.3z"/>
						<path d="M276.3,59.5l0,0.7c-19.6,2.1-46-0.2-70.2,0.7l0.5-2.5c-6.4,1.7-13.8,2.8-19.8,4.7l2.4,0.4c-2.1,1.5-7.6,2.5-11,2.2
							l0.3-0.7c4.7-0.5-0.3-0.2,1.5-2.1l0.8-0.4l-0.5-0.3l-0.8,0.4c0.1-0.4,0-0.9,0.8-1l-1.1,0c-2.4-1.8-2.4-3.3-2.1-5.3
							c-0.6,0.3,0.1,2.2-2.5,1.6l0.3-0.7l-2.8,1.2l-1.3-0.8c-1,0.4-1.6,0.9-2.7,0.7l-0.3,1.3c-4.6-0.4-10.5,1.3-15.2,0.4
							c-1,1.3-3.6-0.4-6.2,0.8l1.2,1.4c2.9,1.9,9.5,0.7,14.1,1.3l-0.2,0.8c-1,0.2-1.6,0.9-2.8,0.6l-0.3,1.3c2.1,4.6,8.3-1.2,9.9-0.5
							c3.6,1.2-2.3,2.9-0.6,2.7c-3.9,1.9,3.3,3.2,5,4.8c4.6,3,14.7,1.2,20.7,1c10-3.5,23.6-0.4,32.9-0.7c4.5,0.3,11.6-4.9,14.5-0.8
							l8.4,0.7l-0.2,0.8c8.2,0.1,17.2-1.9,24.8-2.7c3.3-0.2,4.3-2.2,5.9-0.1c6.6,1.3,14.4-1.8,20.8-2.2c0-0.7,0.8-1.4-0.4-1.8
							c-3.3,0.9-7.1-0.7-7.3-2.6l1.2,0.2l-2.2-1.5l-1.4,0.6c-0.4-0.4-0.5-0.8-0.6-1.1c-2.4-0.6-4.6-2.2-7.1-3.3
							C281.1,60.1,279.1,60.3,276.3,59.5z"/>
					</g>
				</g>
			</g>
		</g>
		<g>
			<line class="st0" x1="61.6" y1="221" x2="146.5" y2="66.4"/>
			<g>
				<g>
					<g>
						<path d="M67.7,220.8c-0.2,0.3-0.4,0.6-0.4,0.6l0.2,0.1C67.6,221.2,67.6,221,67.7,220.8z"/>
						<path d="M66,219l-0.1,0.2c0.1,0,0.1,0,0.2,0C66,219.2,66,219.1,66,219z"/>
						<path d="M67.5,221.5c0.7,0.3,1.4,0.4,1.9,1c-0.2,0.4-0.6,1.1-0.8,1.4c0.1,0.5,0.7,0.4,1,0.6c-0.2,0.4-0.4,0.7-0.2,0.8
							c0.3,0.5,0.8,0.3,1.3-0.4C69.7,222.4,71.1,218.1,67.5,221.5z"/>
						<path d="M67.7,217.9l-1,1.9c0.3,0.4,0.5,0.9,1,0.9C67.9,219.6,67.9,218.8,67.7,217.9z"/>
						<path d="M146.4,73c-0.1-0.1-0.1-0.1,0.2-0.4C146.5,72.7,146.5,72.8,146.4,73c0.1,0.1,0.2,0.1,0.2,0.3c0.5-1.3,1.1-2.9,1.8-4.3
							c-0.1-0.3-0.2-0.6-0.3-0.8c-1.8,3.5-3.7,7-4.4,10.3C144.9,76.5,145.4,74.9,146.4,73z"/>
						<path d="M147.3,67.3c0.1-0.1,0.1-0.2,0.2-0.4C147.1,67.2,147.2,67.2,147.3,67.3z"/>
						<path d="M117.2,131.3c-1,2.2-1.5,4.4-1.9,6.6c1.7-4.3,3.8-8.6,4.8-12C119.1,127.7,118.2,129.5,117.2,131.3z"/>
						<path d="M112.3,148.6c1.8-2.5,2.5-4.9,3.1-7.3c-1,2.2-2,4.4-3,6.6C112.3,148.1,112.3,148.4,112.3,148.6z"/>
						<path d="M112.8,145.1c1.3-2.4,1.9-4.8,2.4-7.2C114.3,140.3,113.4,142.8,112.8,145.1z"/>
						<path d="M123.5,88.4c0.4-1.9,0.7-3,0.9-3.5c-0.1-0.4-0.2-0.9-0.4-1.5c-0.1,0.1-0.1,0.2-0.2,0.3c-0.6,1.8-1.2,3.6-1.9,5.5
							c-0.2,0.8-0.3,1.6-0.3,2.3C122.3,90.4,122.9,89.4,123.5,88.4z"/>
						<path d="M124.4,84.8C125.3,88,125.4,82.6,124.4,84.8L124.4,84.8z"/>
						<path d="M129.5,101.1l-0.1,0.2c-0.1,0.3-0.2,0.5-0.3,0.8C129.3,101.7,129.4,101.4,129.5,101.1z"/>
						<path d="M113.8,118.2c0.7-1.4,1.3-2.9,1.9-4.4c-1.4,2.9-2.8,5.9-3.6,8.6c0.2-0.4,0.6-0.6,0.8-1
							C113,120.5,113.2,119.2,113.8,118.2z"/>
						<path d="M134,89.1c-1.7,4.1-3.2,8.2-4.6,12.2c-4,7.5-7.6,14.9-9.7,22.1c-1.7,6.4-7.5,16.2-7.9,23.3c0.4-0.6,0.8-1.1,1.1-1.7
							c-0.2,1-0.4,1.9-0.5,2.8c-4.6,9.7-9.2,19.1-14.5,28.7c-0.8,1.4-0.8,2.8-1.6,4.2c-0.8,1.5-1.5,2.9-2.2,4.3c0,0,0.1,0,0.1,0
							c-3,6-5.8,11.9-8.6,18.3c-1.4,2.9-3.1,5.7-4.7,8.5c-0.6,1.1-1.3,0.7-1.8,1.3c-2.4,2.4-4.3,4.1-6.4,7.1c0,0-0.3-0.2-0.5-0.3
							c-0.2,0.5-0.5,1-0.7,1.3c-1.1-2.6,0.4-6.8-3.2-3.5l0,0c0.1-0.3,0.1-0.5,0.2-0.7c0,0,0,0,0-0.1l0,0c0.2-1.1,0.2-1.9,0-2.8
							l-1,1.9c-0.2-0.2-0.4-0.5-0.6-0.5c0-0.1,0-0.2,0-0.2c0.2-0.3,0.3-0.5,0.3-0.5c-0.1-0.2-0.2-0.3-0.3-0.4c0.2-2,1.2-4.8,0.2-4.7
							c-0.6,0.2-0.9,1.5-1.4,3c-0.1,0-0.2,0.1-0.3,0.2c0.8-1.9-1.2-0.7-0.8-1.8c0.8-1.4,1.4-2.9,2.2-4.3c3.2-5.8,5.7-10.7,8.3-16.7
							c0.1-0.3,0.2-0.5,0.4-0.8c1.3-2.9,2.7-5.5,4.3-8.1c0,0.2,0,0.5,0,0.7c1.3-2.1,2.5-4.3,3.5-6.6c2.2-5.7,4.5-11.4,7.4-17.2
							c3.1-6,5.9-11.9,8.7-18.3c-1,2.7-2,5.3-3.3,7.9c-0.6,1.1-1.3,2.3-1.8,3.4c0.7-1.1,1.3-2.2,1.8-3.4c2.5-4.3,5.1-8.7,5.4-13
							c0.3-0.3,0.5-0.2,0.7-0.5c1.4-2.5,2.9-4.9,3.4-7.4c-0.2-0.1,0.4-1.2-0.1-1c1-2.2,2.4-4.7,3.2-7c0.4-1,0.6-2.1,0.7-3.2
							c3.3-8.1,6.5-16.2,10.1-24.8c1-2.1,2.2-4.5,3.4-6.5c-1.1,3.3-2.3,6.7-3.7,10.1c-1.8,3-3.4,6-3.9,8.9c-0.1,0.7-0.3,1.3-0.5,1.9
							c1.5-3.6,3-7.2,4.4-10.8c1.1-1.8,2.2-3.6,3.2-5.4c0,0,0,0.1,0,0.1c-0.6,1.6-1.2,3.1-1.8,4.7c-1.6,2.7-3.1,5.3-3.7,7.9
							c-0.1,0.3-0.1,0.6-0.2,1c-0.1,0.7-0.3,1.3-0.5,1.9c0.9-2.2,1.8-4.5,2.7-6.7c0.5-1.4,1.1-2.8,1.6-4.1c0.5-0.8,1-1.6,1.4-2.4
							c0,0.1,0,0.2,0,0.3c-0.2,0.8,0.7,3.9,1.8,3.1c1.5-2.7,3.1-6.1,4.3-8.8c0.6-1.4,1.2-2.5,1.5-3.4c0.4-0.8,0.6-1.3,0.7-1.3
							c0.9,0-3.4,9.9-3,9.6c0.4-0.5,0.7-1,1.1-1.5c-0.1,0.6-0.3,1.1-0.3,1.7c-0.4,1.2-1.4,2.5-1.4,3.4c-0.3,3-2.2,5.7-3.1,8.9
							c-0.5,2.1-0.9,4.6-1.4,7.1c0.3,0.2-0.4,1.2,0.1,1c-1.1,2-2.4,4.3-1.8,5.7l-0.1,0.2c-0.1,0.1-0.1,0.4-0.2,0.6
							c-2,3.2-2.3,6.1-3.3,9.5c-0.5,1.1-1,2.2-1.6,3.3c0.4-0.7,1.1-1.7,1.4-2.5c0.1-0.3,0.2-0.5,0.2-0.8c1.3-2.8,2.2-5.6,3.2-8.4
							c0-0.3,0-0.7,0.1-1.1c0.1-0.2,0.2-0.4,0.3-0.5c0-0.1-0.1-0.2-0.1-0.3c0.9-2.7,2.2-5.6,2.8-7.9c1.6-4.3,4.2-8.3,6.5-12.3
							c-0.8,2.2-1.6,4.3-2.3,6.4c1-2.6,2-5,2.9-7.4c0.2-0.3,0.4-0.7,0.6-1l1.2-2.1c-0.4,0.6-0.9,1.2-1.3,1.9c0.5-1.4,1-2.9,1.5-4.3
							c3.1-7.6,6.7-15.1,10.9-22.2c0.1,0.3,0.2,0.5,0.4,0.8c-1.8,3.5-3.7,7-4.4,10.3c1.1-2,1.6-3.6,2.6-5.5c0.1,0.1,0.2,0.1,0.2,0.3
							c0.5-1.3,1.1-2.9,1.8-4.3c0.2,0.7,0.4,1.4,0.5,2.2c0,0.9-0.6,2-1,3.1c-2.2,4.8-4.7,9.1-6.8,13.8c-2.3,4-4.6,8-6.7,12
							C131.2,96.9,132.7,93,134,89.1z M73.1,210.6c0.1-0.4,0.3-0.8,0.4-1.3c-0.1,0-0.1,0.1-0.2,0.1C73.1,209.8,73,210.2,73.1,210.6z
							 M77.8,202.4c-1.6,2.3-3,5.7-4.4,8.9c0,0,0.1,0.1,0.1,0.1C75.1,208.9,76.4,205.5,77.8,202.4z M86.7,194.6L86.7,194.6
							L86.7,194.6L86.7,194.6z M105,148.4c-0.7,3.3-2.7,6.9-4.3,10.6c-0.6,1.1-0.5,2.5-1.3,3.9c-0.8,1.9-1,3.1-1.7,4.6l0.9-0.9
							c-1.5,2.4-1.3,4.4-3,6.7c0.2,0.1,0.3,0.6,0.1,1c-0.8,1.9-2.1,3.5-2.6,5.1c-0.8,1.9-1.8,3.6-2.2,5.2c-0.2,0.4-0.1,1.3-0.3,2.2
							c-0.4,0.9-0.8,1.8-1.3,2.7c0.1,0,0.1,0,0.2,0c0.4-0.7,0.8-1.4,1-2.2c0.8-2.3,1.8-5,2.8-7.2c2.6-5.5,4.6-10.9,6.7-16.2
							c0.4-1.2,0.7-2.4,1.1-3.6c1.1-3.6,3.4-7.4,3.4-10.2C104.8,149.7,105.2,148.9,105,148.4z M99.8,140.4
							c-1.3,4.1-3.3,8.5-5.4,11.9c-1.6,2.8-5,11.6-2.2,11.3C90.4,158,105,140,99.8,140.4z M112.9,109c-0.5,1.6-1.1,3.2-2,4.9
							L112.9,109z M111.5,128c1.3-5.3,3.9-10.3,5.7-15.3c1.4-3.8,4.4-7.3,5-11.1l-0.5-0.3l0,0.4c-0.8,1.2-1.6,2-2.3,3l0.1-0.2
							l-0.1,0.3c-0.5,0.6-0.9,1.4-1.2,2.3c-0.1,0.4-0.3,0.9-0.4,1.3c-2.1,4.6-4.4,9.3-5.5,13.9c-0.9,2.8-1.2,5.4-2,8.1
							C110.6,129.8,111.3,128.8,111.5,128z"/>
						<path d="M130,95.5c0.6-1.6,1.3-3.3,2-5c0.4-1.3,0.9-2.6,1.3-4c2.2-6.2,6.2-12.7,9.1-19c-0.4-0.5-0.9-0.8-1.6-0.8
							c-4.2,6.3-6.9,13.5-10.9,20l0,0.2c-0.5,3.4-3.4,7.8-4.5,11.8c-0.9,4.1-2.5,7.8-3.6,11.9C124.6,105.4,126.9,100.3,130,95.5z"/>
						<path d="M115.4,141.3c0.7-1.4,1.3-2.9,2-4.4c1.7-4.1,3.1-7.9,4.5-11.8c-1.3,2.7-2.7,5.3-4.2,8
							C116.4,135.8,116.1,138.6,115.4,141.3z"/>
						<path d="M122.9,122c-0.4,1.1-0.7,2.1-1.1,3.2c2-3.9,3.9-7.9,5.8-11.8c2.8-6.7,5.6-13.3,8.2-20.1c0.3-0.8,0.6-1.5,0.9-2.3
							c-6.6,11.6-13.2,23.2-16.5,34.3c-0.1,0.2-0.1,0.4-0.2,0.6c2.5-4.8,4.8-9.6,7.1-14.4C125.7,114.9,124.3,118.4,122.9,122z"/>
						<path d="M129.4,97.1c0.2-0.3,0.4-0.7,0.6-1c0.2-0.4,0.3-0.9,0.5-1.3c-0.1,0.2-0.3,0.5-0.4,0.7C129.8,96,129.6,96.5,129.4,97.1
							z"/>
						<path d="M119.4,104.7l-0.1,0.1c-0.5,1.2-1.1,2.4-1.6,3.6c-0.6,1.8-1.2,3.6-1.9,5.4C117.3,110.6,118.7,107.5,119.4,104.7z"/>
						<path d="M109.9,112.3c-0.2,0.4-0.6,1.1-0.8,1.4l0,0.8c0.2-0.3,0.4-0.7,0.6-1L109.9,112.3z"/>
						<path d="M101.2,134.8c2.8-6.7,5.3-12.9,7.8-19.2c0-0.4,0.1-0.7,0.1-1.1c-2.3,3.9-4.2,7.9-5.2,12c-0.2,0.8-0.3,2.2-0.7,2.9
							c-1.7,3.4-2.9,6.9-4.2,10.4c0.7-1.6,1.4-3.2,2.1-4.9L101.2,134.8z"/>
					</g>
				</g>
			</g>
		</g>
		<g>
			<line class="st0" x1="153" y1="371.9" x2="61.6" y2="221"/>
			<g>
				<g>
					<path d="M82.1,273.8c-0.7-1.1-1.3-2.2-2-3.3c10,19.7,22.6,39.4,31.4,58.4c0.4,1.3,1.1,3.9,1.5,5.1c4.5,9.4,11.5,20.3,17.5,28.8
						c3,4.3,8.2,5.6,8.2,5.6c1.3,0.8,3.1,1.2,3-0.3c-1.1-2.4-4.4-7.9-3.2-8.6c0.3-0.2,1,0.9,1.6,2c1.2-0.7,5.5,1.2,6.2,2.3
						c1.3,0.8,7,6.4,8.3,7.1c2.9,2.8,1.2-9.8-0.6-14.8c-0.8-2.6,1.5-0.9,2.3-1.4c-1.6-2-1.4-3.7-3.1-5.7c0.3-0.2-3.4-7-5.5-10.3
						c0,0-1-0.9-3-4.3c-0.7-1.1-1-0.9-1.3-0.8c0.3-0.2,0.3-0.2,0.6-0.4c-1.3-0.8-2-3.3-3-4.3c0.3-0.2,0.3-0.2,0.6-0.4
						c-1.9-1.9-2.7-4.4-4.3-6.5c0.3-0.2,0.3-0.2,0.6-0.4c-0.7-1.1-1.3-2.2-1.1-2.4c0.3-0.2,0.3-0.2,0.6-0.4
						c-0.4-1.3-2.3-3.2-1.7-3.5c-0.3,0.2-0.3,0.2-0.6,0.4c-2.7-4.4-4.4-7.9-6.1-11.5c-4.2-9.6-11.5-20.3-18.1-30
						c-0.7-1.1-1.9-1.9-1.8-0.4c-0.7-1.1-1.3-2.2-2-3.3c-1.3-2.2-1.5-0.6-2.9-2.8c-12.2-16.9-21.5-35.5-33.1-52.7
						c2.4,4.6,3.8,8.3,6.8,12.6c-0.3,0.2-0.9,0.5-0.2,1.6c3.7,6.8,9,14.2,9.9,18.3c0.4,1.3,0.2,2.9,2.2,6.3l-2-3.3
						c-0.3,0.2-0.9,0.5-0.9,0.5c2.4,4.6,5.4,10.4,7.9,15c0,0-0.6,0.4-0.9,0.5l1.3,2.2c-0.7,3.5-7.8-8.9-11.5-14.3
						c-0.3,0.2-0.9,0.5-1.2,0.7l1.3,2.2l-0.6,0.4c-4-6.7-7.4-12.2-11.4-18.9c0.7,1.1,2,3.3,2.7,4.4c-0.3,0.2-0.6,0.4,0.1,1.5
						c-2.7-4.4-5.8-10.2-9-14.2c-1-0.9-1.2,0.7,0.6,4.2c2,3.3,3.4,5.5,5.4,8.9l-0.6,0.4c-1.3-2.2-3.1-5.7-4.7-7.8
						c-1-0.9,0.5,2.8-0.5,1.8c-0.7-1.1-1.3-2.2-2.3-3.2c2,3.3,5,7.6,6.7,11.1c0.4,1.3,0.8,2.6,0.2,2.9c3.7,5.4,5.5,10.3,6,14.6
						C76.4,265.1,80.1,270.5,82.1,273.8z"/>
				</g>
			</g>
		</g>
	</g>
	<g>
		<g>
			<path class="st1" d="M128.6,336.1c-18.8,13.5-23.1,39.6-9.6,58.4c13.5,18.8,39.6,23.1,58.4,9.6c18.8-13.5,23.1-39.6,9.6-58.4
				C173.5,326.9,147.3,322.6,128.6,336.1z"/>
			<g>
				<g>
					<g>
						<path d="M166.6,338.6c-6.8-2.6-14.3-3.1-20.6-1.6l1.9-0.4c0.3-0.1,0.6-0.1,1-0.2l1-0.1l2-0.2c0.7,0,1.3,0,2,0
							c-0.5,0-1,0-1.4,0c-0.5,0-0.9,0.1-1.4,0.1c-0.5,0-0.9,0-1.4,0.1c-0.5,0-0.9,0-1.4,0.1c-0.9,0.1-1.8,0.2-2.8,0.3
							c-0.9,0.2-1.9,0.3-2.9,0.5c0.5-0.4,1.4-0.7,2.3-1c0.4-0.2,0.8-0.3,1.2-0.4c0.3-0.1,0.6-0.3,0.7-0.5c4.9-0.9,10.1-0.5,14.8,1
							c4.7,1.5,8.9,4.1,12.3,7.3c-0.5-0.1-0.9-0.2-1.3-0.4c-0.4-0.1-0.8-0.3-1.1-0.5c-0.6-0.4-1.1-0.9-1.6-1.4
							c-0.5-0.5-0.9-1-1.4-1.5C167.8,339.2,167.2,338.9,166.6,338.6z"/>
						<path d="M132.3,341.3c0.8-0.6,1.7-1.1,2.5-1.6C133.9,340.3,133.1,340.9,132.3,341.3z"/>
						<path d="M184.6,397.1c-0.4,0.5-0.8,1.1-1.2,1.6c-0.5,0.5-0.9,1-1.4,1.5c0.4-0.5,0.9-1,1.3-1.5
							C183.8,398.1,184.2,397.6,184.6,397.1z"/>
						<path d="M180,342.6c0.6,0.4,1.1,0.8,1.6,1.2c3.3,3.9,5.7,8.4,7.2,13.3c-0.5-1.3-0.9-2.7-1.6-3.9c-0.3-0.6-0.7-1.3-1-1.9
							c-0.3-0.6-0.8-1.2-1.2-1.8l-1.2-1.8c-0.4-0.6-0.9-1.1-1.3-1.7c-0.4-0.6-0.8-1.2-1.3-1.7C180.9,343.8,180.4,343.2,180,342.6z"
							/>
						<path d="M176.9,337.8c-4.3-3.1-9.1-5.7-13.9-7.7C167.9,331.9,172.7,334.4,176.9,337.8z"/>
						<path d="M146.5,420.4c0,0.2-0.1,0.3-0.3,0.3c-0.2,0-0.4,0.1-0.6,0.1l-1-0.2l-1-0.3l-2-0.6c-0.7-0.2-1.3-0.4-1.9-0.6l-1.9-0.8
							c0.7,0.1,1.3,0,2,0.2c1.4,0.5,2.2,0.9,3.1,1.2c0.5,0.2,0.9,0.3,1.5,0.4C145,420.4,145.7,420.4,146.5,420.4z"/>
						<path d="M185.5,395.9l0-0.2c0.3-0.4,0.5-0.7,0.7-1.1c0,0,0.1-0.1,0.1-0.1C186.2,395,185.9,395.4,185.5,395.9z"/>
						<path d="M149.9,420.8c0,0.3,0.1,0.6,0.3,0.8c-1.6-0.2-3.1-0.5-4.6-0.8c0.2,0,0.4-0.1,0.5-0.1
							C147.2,420.6,148.8,421.1,149.9,420.8z"/>
						<path d="M184.1,413c0.8-0.6,1.2-1.7,1.4-2.1c2.3-1.3,4.5-2.9,6.8-5c0.2-0.5,0.9-1.3,1.3-2.2c0.5-0.3,1.1-0.6,1.7-1
							c-4.3,5.5-9.8,10.1-16.2,13.5C180.7,415.2,182.4,414.2,184.1,413z"/>
						<path d="M125.8,334.2c-0.7,0.6-1.5,1.3-2.3,1.9c-0.8,0.6-1.5,1.4-2.2,2.1c-1.6,1.3-2.9,2.9-4.3,4.5c-0.6,0.8-1.2,1.7-1.8,2.5
							c-0.3,0.4-0.6,0.9-0.9,1.3c-0.2,0.5-0.5,0.9-0.7,1.4c-0.4,0.9-0.9,1.8-1.2,2.8c-0.3,1-0.5,1.9-0.7,2.8c0.6-1,1.1-2,1.7-3
							c0.6-1,1.3-2,2-3c1.5-1.9,2.9-3.7,4.5-5.1c1.5-1.5,3.1-2.5,4.3-3.2c1.2-0.7,2.3-0.8,3-0.6c0.6,0.3,0.4,0.9-0.3,1.6
							c-0.7,0.8-1.8,1.9-3.2,3.1c-2.6,2.5-5.6,6-6.9,8.9c0.6-0.6,0.6-0.6,1.3-1.2c-0.6,0.6-1.3,1.2-1.3,2c0.5-0.7,1.4-1.5,2.2-2.4
							c0.4-0.4,0.7-0.8,1.1-1.1c0.4-0.3,0.7-0.5,1-0.5c0,0-0.1,0.4-0.1,0.7c0,0.2-0.1,0.4-0.1,0.5c0,0.1,0,0.2,0,0.2
							c0.9-0.6,1.9-1.3,2.9-2.2c1-0.8,2.1-1.6,3.2-2.5c1.2-0.7,2.3-1.5,3.4-2c1.2-0.5,2.2-0.9,3.2-1c-4.3,1.3-8.7,4.2-11.9,8.5
							c-3.2,4.3-5.4,10-5.9,15.9c-0.5,5.9,0.8,12.1,3.3,17.4c2.6,5.4,6.5,10,10.9,13.4c5.1,3.7,11.1,5.4,16.7,5.5
							c0.7,0.1,1.4,0,2.1-0.1c0.7-0.1,1.4-0.1,2-0.2c0.7-0.1,1.3-0.3,2-0.4c0.6-0.1,1.3-0.2,1.9-0.5c1.2-0.4,2.5-0.7,3.6-1.3
							c0.6-0.2,1.1-0.5,1.7-0.7c0.5-0.3,1-0.6,1.6-0.9c0.4-0.2,1-0.3,1.6-0.6c0.6-0.3,1.3-0.6,2.1-0.8c1.5-0.7,3.2-1.4,4.4-2.2
							c2.2-1.5,4-3.6,5.6-5.6l1.1-1.6l0.5-0.8l0.4-0.9l0.8-1.7l0.6-1.8l0.4-0.9l0.3-0.9c0.2-0.6,0.4-1.2,0.6-1.8
							c0.3-1.3,0.7-2.5,0.9-3.8l0.2-0.9l0.1-0.5l0-0.5c0.1-0.6,0.1-1.3,0.2-1.9c0.1-0.6,0-1.3,0.1-1.9l0.1-1c0-0.3,0-0.7,0-1
							c0-0.7-0.1-1.3-0.1-2c-0.1-0.6-0.2-1.3-0.3-2c-0.1-0.3-0.1-0.7-0.1-1l-0.2-1c-0.2-0.6-0.3-1.3-0.5-1.9
							c-0.2-0.6-0.5-1.3-0.7-1.9c-0.1-0.3-0.2-0.6-0.4-0.9l-0.5-0.9c-0.5-1.3-1.4-2.4-2.2-3.6c-0.7-0.9-1.1-2.3-0.8-3
							c0.3-0.7,1.3-0.8,3.5,1.4c3.6,3.7,6,8.7,6.7,14c-0.9-0.5-0.8-3.1-1.8-4c0.5,3.8,0.6,6.9,0.5,10.6l0-1.8c0-0.6,0-1.2-0.1-1.8
							c-0.2-1.2-0.2-2.4-0.5-3.6c0.6,3,0.7,6.3,0.3,9.5c-0.4,3.3-1.3,6.6-2.5,9.7c-0.3,0.5-0.7,1-1.2,1.4c-0.5,0.4-0.9,0.9-1.5,1.2
							c-0.5,0.4-1,0.9-1.4,1.5c-0.4,0.6-0.8,1.2-1,2.2c3.1-3,5.8-6.8,7.4-11.1c1.6-4.3,2.3-9.1,1.7-13.8c0,0,0,0,0.1,0
							c-0.6-4.1-1.8-7.8-3.8-11.4c0.6,1.1,1.4,2.1,1.7,3.3l-0.3-1.1c-0.1-0.4-0.3-0.7-0.4-1l-0.8-2.1c-0.3-0.7-0.7-1.3-1.1-2
							c-0.4-0.7-0.7-1.3-1.2-1.9l-1.3-1.8c-0.4-0.6-1-1.1-1.5-1.7c-1-1.2-2.2-2.1-3.3-3.1c3.8,2,7.1,5.2,9.6,9.1
							c2.5,3.8,4.2,8.3,4.8,13c0.7,4.6,0.4,9.4-0.8,13.9c-1.1,4.5-3.1,8.7-5.5,12.5c0.5-0.4,1-0.9,1.4-1.4c0.2-0.3,0.4-0.5,0.7-0.8
							c0.2-0.3,0.4-0.6,0.5-0.9c0.4-0.6,0.7-1.3,1-1.9c0.3-0.7,0.5-1.4,0.8-2c1.1-2.7,1.7-5.4,2.9-7.5c-1.4,8.4-6.3,16.2-13.1,21.4
							c0.5-0.5,0.9-0.9,1.2-1.5c-0.5,0.4-1.1,0.7-1.7,1.1c-0.6,0.4-1.1,0.7-1.7,1.1c-1.1,0.8-2.3,1.4-3.4,2.2
							c-1.2,0.6-2.4,1.3-3.6,1.9c-0.6,0.2-1.2,0.5-1.9,0.7c-0.6,0.2-1.2,0.5-1.9,0.6c-0.5,0.1-0.9,0.2-1.4,0.3
							c0.5-0.1,0.9-0.2,1.4-0.3c4.7-1.2,9.1-3.3,12.9-6.2c-1.5,1.6-3.4,3-5.9,4.2c0.8-0.1,1.7-0.4,2.6-0.9c0.9-0.4,2-0.9,2.9-1.5
							l1.7-1.3c0.6-0.4,1.1-1,1.6-1.5c0.5-0.5,1.1-1,1.6-1.5l1.4-1.6c-2.8,3.5-5.9,6.8-9.2,9.4c5.7-2.8,10.6-7.5,14.1-12.9
							c-1.8,3-3.8,6-6.4,8.5c-4.5,4-9.8,7-15.6,8.7c0.2-0.1,0.4-0.2,0.6-0.3c-0.4,0.2-0.9,0.3-1.3,0.4c-1.1,0.3-2.3,0.6-3.4,0.8
							c-1.2,0.2-2.3,0.4-3.5,0.5c-1.1,0.1-2.1,0.3-3.1,0.5c-1,0.2-2.1,0.3-3.2,0.5c-0.4,0-0.7,0-1.1,0c0.7-0.2,1-0.4-0.3-0.7
							c-0.7-0.2-1.4-0.3-2-0.4c-0.7-0.1-1.4-0.2-2.1-0.4c-0.7-0.2-1.4-0.3-2.1-0.4c-0.4-0.1-0.7-0.1-1.1-0.2l-1.1-0.3
							c-0.7-0.2-1.4-0.4-2.1-0.6c-0.7-0.2-1.4-0.6-2.1-0.9c-0.7-0.3-1.4-0.6-2-1c-0.6-0.4-1.3-0.9-1.9-1.4c-0.3-0.3-0.7-0.5-1.1-0.8
							c-0.4-0.3-0.8-0.6-1.2-0.8c-0.9-0.6-1.9-1.1-2.8-1.8c-0.4-0.6-0.7-0.7-1.1-0.7c-0.4-0.3-0.9-0.6-1.3-0.9
							c-0.9-0.9-1.8-1.8-2.8-2.6c0.9,0.9,1.9,1.7,2.8,2.6c0.3,0.3,0.7,0.6,1.1,0.9c-0.4-0.1-0.8-0.1-1.4-0.5c3.2,3.1,7,5.7,11.1,7.6
							c4.2,1.9,8.7,3.1,13.4,3.4c-0.6,0.1-1.4,0.2-1.7,0.3c0.9-0.1,1.9-0.1,2.8-0.3l2.3,0c0.8,0,1.5-0.1,2.2-0.2
							c0.7-0.1,1.5-0.2,2.2-0.3l2.2-0.5c-0.9,0.3-1.6,0.7-2.3,1.1c4.3-0.5,8.5-1.8,12.4-3.7c3.9-1.9,7.4-4.6,10.5-7.6l1.1-1
							c0.4-0.3,0.8-0.7,1.1-1.1l2.1-2.2c0.7-0.8,1.2-1.6,1.8-2.4c0.3-0.4,0.6-0.8,0.9-1.2l0.8-1.3c1.1-1.7,1.9-3.6,2.8-5.4
							c0.7-1.9,1.4-3.8,1.8-5.8c-1.6,4.2-3.5,8.3-6,12.1c2.9-5.3,4.7-11.2,5.2-17.2c0.1-0.7,0.1-1.5,0.1-2.3l0.1-2.3l-0.1-2.3
							c-0.1-0.8,0-1.5-0.2-2.3c-0.2-1.5-0.3-3-0.8-4.5l-0.5-2.2c-0.2-0.7-0.5-1.4-0.7-2.2c0.4,0.4,0.8,0.9,1.2,1.4
							c0.4,0.5,0.7,1.1,1.1,1.6c0.7,1.1,1.5,2.1,2.2,2.7c0.1-0.1,0.2-0.4,0.2-0.7c0-0.4,0-0.8-0.1-1.2c0-0.8,0-1.2,0.5-0.1
							c1.9,4.2,2.3,8.3,2.4,11.6c0,0.8,0.1,1.6,0.2,2.4c0,0.7,0.1,1.5,0.2,2.1c0.2,1.4,0.6,2.6,1.1,3.7c0.2,0.2,0.6-0.2,1.2-1
							c0.5-0.8,1.1-2,1.7-3.1c0.3-0.6,0.6-1.1,0.9-1.6c0.2-0.5,0.5-0.9,0.7-1.1c0.4-0.5,0.7-0.6,0.8,0.4c0.1,0.8,0,1.8,0,2.9
							c-0.1,1.1-0.1,2.3-0.3,3.7c-0.2,1.3-0.4,2.7-0.7,4.2c-0.3,1.4-0.8,2.9-1.2,4.5c-0.7,1.7-1.5,3.4-2.3,5.2
							c-0.2,0.2-0.2,0.6-0.3,1.2c-3,6.2-7.4,11.4-10.2,13.7c-0.5,0.4-1,0.9-1.5,1.3c-0.5,0.4-1.1,0.8-1.6,1.2
							c-0.7,0.3-1.3,0.5-1.8,0.6c-0.5,0.7-1.1,1.4-1.7,1.9c-1.5,0.9-3,1.8-4.6,2.6c-1.6,0.7-3.2,1.5-4.8,2.2
							c-0.9,0.2-1.9,0.4-2.8,0.7c-0.9,0.2-1.9,0.4-2.8,0.6c0.1,0.2,0.5,0.4,0.2,0.6c-1,0.3-2.1,0.5-3.1,0.8c-1,0.3-2.1,0.4-3.2,0.6
							c-1.1,0.1-2.1,0.4-3.2,0.4l-3.2,0.2c-0.9,0-1.7-0.2-2.5-0.4c-0.8-0.2-1.5-0.4-2.2-0.7c-1.2,0.5-2.7,0.5-4.5,0.5
							c-1.8,0-3.7-0.4-5.8-0.9c-1-0.2-2-0.6-3-0.9c-1-0.4-2-0.7-3-1.1c-1-0.4-1.9-0.8-2.8-1.2c-0.5-0.2-0.9-0.4-1.4-0.6
							c-0.4-0.2-0.9-0.4-1.3-0.6l0,0.1c-0.8-0.5-1.6-0.9-2.5-1.4c-0.8-0.4-1.6-1-2.4-1.6c-0.8-0.5-1.5-1.1-2.3-1.6
							c-0.7-0.6-1.4-1.2-2.2-1.8c-0.4-0.5-0.7-1.1-1-1.6c-0.9-0.4-1.6-1.1-2-1.3c-2-2.3-3.2-4.5-4.5-6.7c-0.4-0.3-1.3-0.7-1.9-1.5
							c-0.5-0.8-1-1.7-1.5-2.5c-0.5-0.8-0.9-1.7-1.3-2.5l-0.7-1.5c-0.2-0.5-0.5-1-0.6-1.5c-0.4-1-0.7-2.1-1.1-3.1
							c-2.3-7.2-2.6-14.7-1.4-21.7c0.3-0.2,0.5-0.2,0.8-0.3c-0.2-1.1,0.2-2.6,0.2-3.6c0.1,0.2,0.1,0.3,0.3,0.3
							c0.2-3.2,0.9-3.7,2-6.3c0.2-0.6,0.1-1.3,0.2-1.9c0.1-0.3,0.3-0.6,0.4-0.9c0.6-0.6,1.1-1.3,1.6-2c0.4-0.7,0.8-1.4,1.2-2.1
							c0.4-0.7,0.8-1.4,1.2-2.2c0.2-0.4,0.4-0.8,0.6-1.1c0.2-0.4,0.5-0.7,0.7-1.1l1.7-2.1c0.5-0.7,1.2-1.3,1.8-1.9l1.9-1.8l2-1.7
							c1.1-0.9,1.9-1.3,2.8-1.6C124.2,334.8,125,334.6,125.8,334.2z"/>
						<path d="M136.9,418c-3.3-1.4-6.3-3.1-9.1-5.1C131,414.8,134.1,415.8,136.9,418z"/>
						<path d="M205.5,369.9c0.6-1.4,0.8-3.1,0.9-4.9l0.2,3.6l-0.1,3.6c0,0.6,0,1.2-0.1,1.8l-0.2,1.8c-0.2,1.2-0.3,2.4-0.5,3.5
							c-0.5,2.3-0.9,4.7-1.7,6.9l-0.6,1.7c-0.2,0.6-0.4,1.1-0.6,1.7c-0.5,1.1-1,2.2-1.4,3.3l-0.1,0c0.4-0.9,0.8-1.8,1.2-2.8
							c0.2-0.5,0.4-1,0.6-1.5c0.2-0.5,0.3-1,0.5-1.5c0.3-1,0.7-2.1,1.1-3.2c0.3-1.1,0.5-2.2,0.7-3.2c0.1-0.5,0.2-1.1,0.3-1.6
							c0.1-0.5,0.1-1,0.2-1.6c0.1-1,0.2-2,0.2-2.9c0.1-0.9-0.1-1.8-0.2-2.6C205.9,371.2,205.7,370.5,205.5,369.9z"/>
						<path d="M146.2,420.7c-0.1,0.1-0.3,0.1-0.5,0.1c0,0,0,0,0,0C145.8,420.8,146,420.7,146.2,420.7z"/>
						<path d="M192.3,356c-0.1-0.2-0.2-0.4-0.2-0.7c0.9,1.6,1.3,3.4,1.9,5.1c-0.3-0.7-0.6-1.4-0.8-2.2
							C192.8,357.6,192.6,356.8,192.3,356z"/>
						<path d="M182.2,339.3c-2.8-2.5-5.9-4.7-9.3-6.3c-4.1-2.5-8.6-4.3-13-5.8c4.2,0.9,8.3,2.3,12.1,4.3
							C175.8,333.6,179.2,336.3,182.2,339.3z"/>
						<path d="M203.1,352c-0.5-1.9-0.9-3.9-1.6-5.8c0.9,1.8,1.5,3.7,2.2,5.6C203.4,351.5,203.3,351.9,203.1,352z"/>
						<path d="M195.3,371c0-0.4,0-0.8,0-1.1c0.2,1,0.3,2,0.5,2.9C195.7,372.4,195.5,371.5,195.3,371z"/>
						<path d="M193.4,333.2c0.5,0.5,0.9,1.2,1.4,1.8l1.3,1.8c-0.6-0.6-1.3-1.2-2-1.7C194,334.5,193.7,333.8,193.4,333.2z"/>
						<path d="M174.5,319.9c-0.9-0.4-1.9-0.8-2.8-1.2c-0.9-0.3-1.8-0.7-2.7-1c1.1,0.3,2.3,0.6,3.4,1c1.1,0.4,2.2,0.9,3.4,1.3
							C175.2,320.1,174.8,320.1,174.5,319.9z"/>
					</g>
				</g>
			</g>
		</g>
		<g>
			<path class="st2" d="M320.9,24.7c-22-7.1-45.5,5-52.6,27c-7.1,22,5,45.5,27,52.6c22,7.1,45.5-5,52.6-27
				C355,55.4,342.9,31.8,320.9,24.7z"/>
			<g>
				<g>
					<g>
						<path d="M332.2,21c1.6,1.2,2.6,2.1,3.2,2.9c0.6,0.7,0.8,1.3,0.9,1.8c0.1,1-0.2,1.7,0.5,2.9c0,0-0.8-0.5-1.6-0.9
							c-0.4-0.2-0.8-0.5-1.1-0.6c-0.3-0.1-0.5-0.2-0.5-0.2c-0.9-0.8-2-1.7-3.1-2.5c-1.1-0.8-2.2-1.6-3.2-2.3c-2-1.3-3.3-2.4-2.3-2.7
							c0.3,0,1.4,0,2.8,0.1C329,19.6,330.7,20.1,332.2,21z"/>
						<path d="M322.1,22.6c0.6,0.2,0.7,0.4,1.3,0.6c0,0-0.6,0.2-1.1,0.4c-0.6,0.2-1.1,0.4-1.1,0.4L322.1,22.6z"/>
						<path d="M341.2,31.7c0,0,0.7,0.6,1.3,1.2c0.6,0.6,1.2,1.3,1.2,1.3c0.4,0.7-1.1-0.6-1.2-0.4c0,0,0.5,0.8,1,1.7
							c0.5,0.8,0.9,1.7,0.9,1.7c-0.3-0.6-0.6-1.1-0.9-1.4c-0.3-0.4-0.6-0.7-0.8-1c-0.5-0.5-0.9-0.9-1.1-1.2
							C341,33.1,340.9,32.8,341.2,31.7z"/>
						<path d="M345.9,72.4c-0.7,1-0.9,0.5-1.1-0.4c-0.2-0.8-0.3-2-0.6-2.5c0.1-0.4,0.2-0.8,0.4-1.2c0.1-0.4,0.3-0.7,0.5-0.9
							c0.4-0.4,0.8-0.4,1.1,0.3c0,0.3,0,0.6-0.1,0.8c0,0.3-0.1,0.5-0.1,0.7c0,0.4,0,0.8,0,1.2C346,71.3,346,71.8,345.9,72.4z"/>
						<g>
							<path d="M352.5,48.7c-0.5-0.2-0.9-0.8-1.3-1.6c-0.5-0.8-1-1.7-1.5-2.5c-0.2-0.4-0.5-0.8-0.7-1.2c-0.2-0.4-0.5-0.7-0.7-0.9
								c-0.4-0.5-0.8-0.7-1-0.3c-0.4,0.6-0.7,1.1-0.6,2c0,0,0.2,0.2,0.4,0.4c0.2,0.3,0.5,0.6,0.8,1c0.6,0.8,1.1,1.5,1.1,1.5
								c0.4,1.1,0.6,1.9,0.7,2.4c0.1,0.5,0.1,0.8,0,0.9c-0.2,0.2-0.6-0.2-1-0.7c-0.5-0.5-1-1.1-1.4-1.2c-0.4-0.1-0.5,0.3-0.4,1.8
								c0.5,1.1,0.7,1.7,1.1,2.2c1.4,2.5,1.6,1.7,1.9-0.2c0.5,2.1,0.7,3.5,0.5,4.5c-0.2,1-0.6,1.6-1,2.1c-0.4,0.5-0.9,0.8-1.2,1.3
								c-0.2,0.2-0.3,0.5-0.3,0.9c-0.1,0.4-0.1,0.8-0.1,1.3c0.4,2.9,1,3.5,1.8,3.5c0.8,0,1.6-0.5,2,0.3c-0.6,0-1.2,0.6-1.8,1.8
								c-0.1,0.3-0.3,0.6-0.4,0.9c-0.2,0.3-0.3,0.7-0.5,1.1c-0.4,0.8-0.7,1.6-1,2.5c-1.6,3.6-3.6,7.9-5.8,11.5
								c-1.5,3.7-4.5,6.9-8,9.6c-3.5,2.7-7.4,5-11.5,7.4c-3.9,1.2-9.2,1.9-14.4,1.7c0-0.1,0-0.2,0-0.4c-0.1,0.1-0.2,0.2-0.2,0.4
								c-0.9-0.5-2.2-0.7-3.5-0.9c-1.3-0.2-2.8-0.4-4.2-0.6c-1.3-0.3-2.6-0.7-3.5-1.1c-0.9-0.5-1.4-1.1-1.4-1.8l-0.9-0.1
								c-1.1-0.3-1.5-0.6-1.7-0.8c-0.2-0.2-0.1-0.3,0.1-0.4c0.4-0.2,0.9-0.4,0-1.2c-0.9-0.4-1.9-0.8-2.7-1.6c-0.4-0.3-0.8-0.7-1.2-1
								c-0.2-0.2-0.4-0.3-0.6-0.5c-0.2-0.2-0.4-0.4-0.5-0.6c-0.7-0.7-1.4-1.3-2.1-1.7c-0.7-0.5-1.4-0.7-2.1-0.7
								c-0.1-0.3,0.3-0.1,0.1-0.5c0,0-0.2-0.1-0.4-0.3c-0.3-0.2-0.6-0.4-0.8-0.7c-0.6-0.5-1.2-1.1-1.2-1.1c-0.6,0.2-1.5,0.1-1.6,0.9
								c-0.5-0.6-1.4-0.8-1.9-1.8c-1.6-2.3,0.8-0.9,0.6-2c-2.1-2.7-3.9-6-5-9.6c-1-3.6-1.1-7.3-0.6-10.5c0.5,0,0.9-0.4,1.2-1.2
								c0.1-0.4,0.3-0.8,0.4-1.2c0.1-0.5,0.1-1,0.3-1.5c0.3-1,0.4-2.2,0.6-3.3c0.3-1,0.5-2,0.6-2.8c0.4-0.6,0.9-1.3,1.2-2
								c0.3-0.7,0.6-1.4,0.9-2.1c0.3-0.7,0.6-1.4,0.8-2.2c0.3-0.7,0.6-1.4,0.9-2.1c0.1-0.4,0.3-0.7,0.4-1.1c0.2-0.3,0.4-0.7,0.5-1
								c0.4-0.6,0.7-1.3,1.1-1.9c0.9-1.1,1.8-2,2.9-2.5c-0.3,0.7-0.7,1.4-1.2,2c-0.3,0.3-0.5,0.6-0.8,0.9c-0.3,0.3-0.5,0.6-0.7,0.9
								c-0.5,0.6-0.9,1.2-1.2,1.6c-0.2,0.5-0.3,0.9-0.1,1.2c0,0,0.3-0.2,0.6-0.3c0.3-0.2,0.6-0.3,0.6-0.3c0.5-0.4,1.1-1,1.7-1.5
								l0.4-0.4l0.5-0.4c0.3-0.2,0.6-0.5,0.9-0.8c0.3-0.3,0.6-0.5,0.8-0.8c0.2-0.3,0.5-0.5,0.7-0.8c0.4-0.5,0.7-1,0.8-1.6
								c-1.6,0.4-2.2-0.1-3-0.2c0.7-1.1,0.5-1.7,1.6-2.9c0.9-0.7,2-1.5,2.8-1.8c0.9-0.3,1.6-0.4,1.9,0.1c-0.4,0.5-1,0.8-1.6,1.1
								c-0.5,0.3-1.1,0.7-1.5,1c0.2,0.6,1.1,0.3,2.1-0.2c1-0.4,2.2-0.9,2.9-1.1c-1.6-0.5-1.2-1.8-1.1-2.8c0.1-0.9-0.2-1.6-3.7-0.5
								c0,0,0.8-0.6,1.6-1.2c0.4-0.3,0.8-0.6,1.1-0.8c0.3-0.2,0.5-0.3,0.5-0.3c0.4-0.8-0.1-1-1.2-0.9c-1,0.2-2.5,0.7-3.9,1.2
								c-2.6,1.2-5.1,2.2-2.7-1c0.1-0.5-0.1-0.8-0.2-1.1c0-0.4,0.1-0.9,1.1-1.9c-0.9,0-1.9,0.5-2.9,1.1c-0.9,0.6-1.7,1.4-2,2
								c-0.7,0-1.6,0.5-2.6,1.2c-0.3,0.2-0.5,0.4-0.8,0.6c-0.2,0.2-0.5,0.5-0.7,0.7c-0.5,0.5-1,1-1.5,1.4c-1,0.9-1.9,2-2.7,2.6
								c-0.8,0.7-1.5,1-2,0.7c-0.4,1-0.8,1.9-1.2,2.7c-0.4,0.8-0.9,1.5-1.3,2.3c-0.8,1.4-1.7,2.7-2.6,3.9c-0.8,1.3-1.7,2.5-2.6,3.9
								c-0.8,1.4-1.5,3-2.1,4.9c-0.6,2.4-0.8,3.9-0.8,4.8c0,0.8,0.3,1.1,0.6,1.1c0.6,0,1.4-0.7,2,0.7c-0.3,1.2-0.4,2.4-0.4,3.5
								c0.1,1.2,0.2,2.3,0.4,3.4c0.1,0.5,0.2,1,0.3,1.5c0.2,0.5,0.3,0.9,0.5,1.4c0.3,0.9,0.6,1.7,0.9,2.3c0.5,2.4,0.1,4.2-0.7,2.6
								c0.2,2.5,0.8,4.8,1.5,7.2l1.2,3.5c0.4,1.2,1,2.3,1.6,3.4c2.3,4.5,5.2,8.7,9,12.3c3.7,3.5,8,6.5,12.7,8.8
								c4.7,2.1,9.7,3.6,14.9,4.3c4.1,1.1,8.4,1,12.4,0.4c1-0.2,2-0.2,3-0.4c1-0.2,2-0.4,3-0.5c0.5-0.1,1-0.1,1.6-0.2
								c0.5-0.1,1-0.2,1.6-0.2c1.1-0.1,2.2-0.2,3.3-0.2l-1.5,0c-0.3-0.2,0.7-0.6,1.5-1.1c-1.5,0-2.9-0.1-4.3-0.2
								c1.2-0.3,2.4-0.6,3.6-1c1.1-0.4,2.3-0.9,3.4-1.4c0.2-0.4,0.6-0.7,1-1.1c0.4-0.4,1-0.8,1.6-1.2c0.6-0.4,1.3-0.8,2-1.3
								c0.7-0.5,1.4-1,2.1-1.5c0.7-0.5,1.4-1,2.1-1.6c0.6-0.6,1.3-1.1,1.8-1.7c0.5-0.6,1-1.1,1.4-1.6c0.3-0.6,0.6-1.1,0.7-1.5
								c2.4-2.2,3.8-3.8,4.9-4.9c0.3-0.3,0.5-0.5,0.8-0.8c0.2-0.2,0.4-0.5,0.6-0.7c0.4-0.4,0.7-0.8,1.1-1.1c0.3-0.4,0.7-0.7,1.1-1.2
								c0.2-0.2,0.4-0.4,0.6-0.7c0.2-0.3,0.4-0.6,0.6-0.9c0.9-1.3,2.2-3.2,3.5-6.4c1-3.6,1.4-7.6,1.7-11.7c0.1-4.1,0-8.4-0.6-12.6
								c-0.1-0.8-0.1-1.5-0.1-2.2c-0.1-0.7-0.1-1.3-0.1-1.9c0-1.1,0.2-1.7,0.5-1.5c-0.1-0.5-0.3-0.9-0.4-1.4c-0.2-0.5-0.4-1-0.5-1.5
								c-0.4-1-0.8-2.1-1.2-3.2c-0.5-1.1-1-2.1-1.4-3.1c-0.2-0.5-0.4-1-0.7-1.5c-0.3-0.5-0.5-0.9-0.7-1.3c-0.6-0.9-1.2-1.6-1.7-2.2
								c-0.5-0.6-1-1-1.4-1.4c-0.8-0.7-1.3-1.1-1.6-1.2c-0.6-0.1-0.4,0.9,0.3,2.4c0.2,0.4,0.4,0.8,0.6,1.2c0.2,0.5,0.4,0.9,0.6,1.4
								c0.4,1,0.9,2,1.3,3.1C351.3,45.3,352.1,47.3,352.5,48.7z"/>
							<path d="M276,71.2c0.6,0.1,0.8-0.5,1-1.3c0.2-0.8,0.3-1.6,0.5-2.1c0,0-0.1-0.3-0.3-0.5c-0.1-0.3-0.2-0.6-0.2-0.6
								c-0.5-2.8-1.8-3-2.4-1.1c0.2,0.2,0.4,0.5,0.6,0.9c0.1,0.4,0.2,0.9,0.4,1.5c0.1,0.5,0.2,1.1,0.3,1.6c0,0.3,0,0.5,0.1,0.8
								C275.9,70.8,275.9,71,276,71.2z"/>
							<path d="M289.2,90.5l-1,0.6c0,0,0.2,0.1,0.5,0.3c0.3,0.2,0.7,0.4,1.1,0.6c0.8,0.4,1.7,0.8,1.7,0.8c0.1-0.3-0.2-0.7-0.6-1.1
								C290.4,91.3,289.7,91,289.2,90.5z"/>
							<path d="M302,24.4c-0.5,0.1-1,0.1-1.5,0.1c-0.5,0.1-0.9,0.1-1.3,0.1c-0.9,0.1-1.6,0.1-2.4,0.2c-0.8,0.1-1.6,0.3-2.4,0.5
								c-0.4,0.1-0.9,0.3-1.4,0.4c-0.5,0.2-0.9,0.4-1.5,0.7c0,0,0.4,0.4,0.8,0.7c0.4,0.4,0.8,0.8,0.8,0.8c4.4-0.8,8.9-0.5,13.7-0.7
								c1.6-1.1,0.2-1.4-1.6-1.7C303.3,25.5,301.3,25.5,302,24.4z"/>
							<path d="M291.6,23.5c3.7-2.5,8.5-3.4,13-3.6c1.1,0,2.3,0,3.4-0.1c1.1-0.1,2.2,0,3.3,0c0.5,0,1.1,0,1.6-0.1c0.5,0,1,0,1.6-0.1
								c1-0.1,2-0.2,3.1-0.4c-0.3-1.3-1.4-2-3-2.5c-0.8-0.3-1.8-0.3-2.8-0.4c-1,0-2.1,0-3.2,0.1c-2.2,0.3-4.5,0.7-6.6,1.2
								c-1,0.3-2,0.4-2.9,0.6c-0.9,0.2-1.8,0.3-2.5,0.3c-3.6,1.5-5.6,2.8-9.6,5.3c-1.3,1.3-0.6,1.3,0.6,1
								C288.6,24.4,290.5,23.8,291.6,23.5z"/>
							<path d="M319.2,21.9c0.9,0.3,2,0.3,2.6,0.4c0.8-0.2-0.8-1-1.5-1.5C319.3,20.4,316.7,20.8,319.2,21.9z"/>
						</g>
					</g>
				</g>
			</g>
		</g>
		<g>
			<path class="st2" d="M314.7,328.2c-22.1,6.7-34.6,30-27.9,52.1c6.7,22.1,30,34.6,52.1,27.9c22.1-6.7,34.6-30,27.9-52.1
				C360.1,334,336.8,321.5,314.7,328.2z"/>
			<g>
				<g>
					<g>
						<path d="M325.3,320l-0.2,0l-0.5,0c-0.6,0.6-1.9,0.4-3.5,0.6c0,0.2,0.2,0.3-0.4,0.5c-2.6,0-1.3,0.2-3.1,0.8
							c0.6-0.1,1.3-0.2,1.6-0.1c0,0-0.2,0-0.5,0.1c-0.3,0.1-0.8,0.1-1.2,0.3c-0.9,0.3-1.7,0.5-1.7,0.5c0.6,0.2,1,0.5,0.5,0.9
							c0.5,0.6-0.4,1.7-0.6,2.5c0.6-0.1,1.1-0.1,1.3,0c0,0.3-0.5,0.6-1.2,0.8c0.1,0.1,0.1,0.1,0.3,0.2c-0.1,0-0.2-0.1-0.3-0.2
							c-0.4,0.1-0.9,0.3-1.4,0.4c0.3,0,0.6,0,0.5,0.2l1.9-0.5c0.1,0.1,0,0.1-0.1,0.2l0.4-0.3l-0.4-0.1c-0.2-0.1,0.1-0.3,0.3-0.4
							c0.5-0.2,0.7-0.1,0.9,0c0,0,1-0.6,1-0.5c0.3-0.7-2.8,0.3-1.2-0.6l0.5,0c0.8-0.3,1.8-0.4,2.3-0.9c0.9,0.5,2.2-0.8,2.4,0
							c0.8,0.1,1.6,0.1,2.5,0c0.9,0,1.7-0.1,2.6,0c1.8,0.1,3.6,0.2,5,1c0.6-0.5,0.8-1.6,2.3-2.1c0.3,0.1,0.7,0.3,0.5,0.4
							c0,0,1-0.1,1-0.1c-0.3-0.1-0.6-0.1-0.8-0.2c-0.3-0.1-0.5-0.1-0.6-0.3c1.6,0-0.6-0.6-0.4-0.9c0,0,0.5,0,1.1,0
							c0.5,0,1.1,0.1,1.1,0.1l-0.2-0.2c-0.9-0.3-1.9-0.4-2.8-0.7c-0.9-0.2-1.9-0.5-2.9-0.7c-1.9-0.3-3.9-0.7-5.9-0.7L325.3,320z"/>
						<path d="M363.6,360.5l0.7-0.2c0.8,3.2,1.4,6.7,1.2,10.4c0,0.5,0,0.9,0,1.4c0,0.5-0.1,0.9-0.2,1.4c-0.1,0.9-0.2,1.8-0.4,2.8
							c-0.2,0.9-0.5,1.8-0.7,2.8c-0.1,0.5-0.3,0.9-0.4,1.4l-0.5,1.4c-1.4,3.6-3.3,7.2-5.9,10.3c-2.6,3.1-5.6,5.9-9.1,8.1
							c-3.5,2.2-7.4,3.8-11.4,4.8c-4,1-8.3,1.3-12.4,0.9c-4.1-0.4-8.2-1.4-12-3c-3.8-1.7-7.2-3.9-10.3-6.5c0,0,0.6-0.3,1.1-0.7
							c0.6-0.4,1.1-0.7,1.1-0.7c-3.6-2-7-5-9.7-8.6c-2.7-3.6-4.8-7.8-6.4-11.8c0,0,0,0.2,0,0.5c0,0.3,0,0.7,0.1,1.1
							c0.1,0.8,0.2,1.7,0.2,1.7c-1.1-1.3-2.2-3.9-2.7-6.9c-0.2-1.5-0.5-3.1-0.4-4.6c0-0.8,0-1.5,0.1-2.2c0.1-0.7,0.2-1.4,0.4-2
							l0.6,0.6c-0.2,1.7-0.1,2.5-0.1,2.8c0,0.3,0.1,0.1,0.3-0.2c0.3-0.6,0.7-1.6,1.6-0.2l0.3,1.1l0.4-0.6l-0.3-1.1
							c0.4,0.2,0.9,0.1,1,1.2c0,0,0-0.4,0.1-0.7c0-0.2,0-0.4,0.1-0.5c0-0.1,0-0.2,0-0.2c2.3-2.8,3.8-2.4,5.7-1.7
							c-0.1-0.4-0.6-0.5-1-0.8c-0.4-0.4-0.5-1,0.2-2.4l0.5,0.6c0,0,0-0.2,0-0.6c0-0.3-0.1-0.8-0.1-1.2c0-0.9,0-1.8,0-1.8
							s0.3-0.3,0.7-0.6c0.3-0.3,0.7-0.5,0.7-0.5c0.2-1.2,0-2.2,0.9-3.2l-1-1c0.4-0.6,0.8-1.2,1.2-1.9c0.4-0.6,0.9-1.3,1.3-1.9
							c0.2-0.3,0.4-0.7,0.7-1c0.2-0.3,0.5-0.6,0.8-1c0.5-0.6,1-1.3,1.6-1.9c1.2-1.2,2.3-2.5,3.6-3.4c0.3-0.2,0.7-0.5,1-0.7l0.5-0.3
							l0.5-0.3c0.7-0.4,1.4-0.7,2.1-1c0.2-1,1.4-1.3,2.6-1.8c0.3-0.1,0.7-0.3,1-0.4c0.4-0.1,0.7-0.2,1.1-0.4
							c0.7-0.3,1.5-0.6,2.2-1.2c0,0-0.5-0.2-0.9-0.4c-0.5-0.2-0.9-0.4-0.9-0.4c-1-0.1-2.4-0.1-3.8,0.5c-0.7,0.2-1.5,0.5-2.2,0.8
							c-0.7,0.4-1.5,0.8-2.3,1.3c-0.4,0.2-0.8,0.5-1.2,0.7c-0.4,0.3-0.7,0.5-1.1,0.8c-0.7,0.6-1.5,1.1-2.2,1.6
							c-1.3,1.2-2.7,2.3-3.9,3.4l-0.4-0.7c0.4-0.6,0.6-1.2,1-1.7c0.4-0.5,0.8-1,1.6-1.5l-0.5-1.3c-1.3-0.4-2.6,0-3.7,0.9
							c-1,1-1.9,2.3-2.6,3.7c-0.3,0.7-0.6,1.5-0.9,2.2c-0.3,0.7-0.5,1.4-0.7,2c-0.3,1.3-0.7,2.3-1.1,2.7c-1.8,2-2,1-1.9-0.4
							c0.1-1.3,0.7-2.9,0.1-1.7c0.8-3.1-0.5-2.5-2.5-0.7c-1.9,1.8-4.2,4.9-5.3,6c-1.5,1.6-2.6,4-3.6,6.9c-0.4,1.5-0.8,3-1,4.7
							c-0.2,1.7-0.3,3.4-0.3,5.1c0.1,1.7,0.1,3.5,0.4,5.2c0.3,1.7,0.5,3.4,1,5.1c0.5,1.6,0.9,3.2,1.4,4.7c0.6,1.4,1.1,2.8,1.6,4.1
							c0.6,1,1.3,1.9,1.9,2.9c0.3,0.5,0.6,1,1,1.5c0.3,0.5,0.7,1,1.1,1.4c0.7,1,1.4,2,2.1,2.9c0.8,0.9,1.6,1.9,2.3,2.8
							c3.2,3.7,6.9,7.3,11,10.3c4.1,3,8.6,5.3,13.2,7c1.2,0.4,2.3,0.7,3.4,1.1c1.1,0.3,2.3,0.5,3.4,0.7c0.6,0.1,1.1,0.2,1.7,0.3
							c0.6,0.1,1.1,0.1,1.7,0.1c1.1,0.1,2.2,0.2,3.2,0.2c4,0.1,9.2-1.4,13.5-3.5c1.1-0.4,2.1-1,3.1-1.4c1-0.5,2-0.8,2.9-1.2
							c1.8-0.8,3.6-1,5.2-0.7c0,0,0.8-0.4,2.1-1.1c0.6-0.3,1.4-0.7,2.1-1.2c0.7-0.5,1.5-1,2.3-1.5c1.6-1,3-2.3,4.1-3.2
							c0.5-0.5,1-0.8,1.3-1.1c0.3-0.3,0.5-0.5,0.5-0.5l0.3,0.8c5.3-5.3,9.2-12.5,11.1-19.9c2-7.4,1.9-15,0.9-21.6
							c-0.2-1.4-0.6-2.6-0.9-3.6c-0.4-1-0.8-1.7-1.1-2.4c-0.6-1.4-0.8-2.4-0.3-4c-1.1-5.8-4.6-11.5-9.1-15.9
							c-4.5-4.5-9.8-7.7-14.7-10.1c-0.3,0.6-1.9,0.5-0.4,1.8c0.6,0.3,1.3,0.5,1.9,0.9c0.6,0.3,1.2,0.7,1.7,1.1c1,0.9,2,1.8,2.7,2.7
							c1.3,1.9,1.9,3.6,1.3,4.3l-1.3-1.4c0,0,0.4,0.8,0.7,1.7c0.2,0.4,0.3,0.8,0.4,1.2c0.1,0.3,0.2,0.5,0.2,0.5l1.9,1.2
							c0,0.7-0.1,1.1-0.3,1.3c1.7,3.3,2.1,6.6,2.4,10.2c0.4,0.5,0.8,1,1.1,1.6c0.3,0.6,0.5,1.2,0.8,1.9
							C363.4,356.9,363.5,358.6,363.6,360.5z"/>
					</g>
				</g>
			</g>
		</g>
		<g>
			<path class="st2" d="M188.4,62.7c0-23.1-18.7-41.8-41.8-41.8c-23.1,0-41.8,18.7-41.8,41.8c0,23.1,18.7,41.8,41.8,41.8
				C169.6,104.5,188.4,85.8,188.4,62.7z"/>
			<g>
				<g>
					<g>
						<path d="M195.4,72.2c-0.6,1.9-1.3,3.1-1.8,3.9c-0.5,0.8-1,1.2-1.5,1.4c-0.9,0.4-1.6,0.3-2.6,1.4c0,0,0.2-0.9,0.4-1.8
							c0.1-0.5,0.2-0.9,0.2-1.2c0-0.3,0.1-0.6,0.1-0.6c0.4-1.1,1-2.4,1.5-3.7c0.4-1.3,0.8-2.6,1.3-3.8c0.7-2.3,1.3-3.8,1.9-3.1
							c0.1,0.3,0.5,1.3,0.7,2.7C195.7,68.8,195.7,70.6,195.4,72.2z"/>
						<path d="M190.7,63.2c0,0.7-0.2,0.8-0.2,1.4c0,0-0.4-0.5-0.7-1c-0.4-0.5-0.7-0.9-0.7-0.9L190.7,63.2z"/>
						<path d="M187.9,84.1c0,0-0.3,0.8-0.8,1.6c-0.4,0.8-0.8,1.5-0.8,1.5c-0.6,0.6,0.2-1.2,0-1.2c0,0-0.6,0.7-1.3,1.5
							c-0.6,0.8-1.3,1.4-1.3,1.4c0.5-0.5,0.8-0.9,1.1-1.3c0.3-0.4,0.5-0.8,0.7-1.1c0.4-0.6,0.6-1.1,0.8-1.5
							C186.6,84.3,186.8,84.2,187.9,84.1z"/>
						<path d="M150.6,101.1c-1.1-0.4-0.7-0.7,0-1.2c0.7-0.5,1.8-0.9,2.2-1.3c0.4,0,0.9,0,1.2,0c0.4,0,0.7,0.1,1,0.2
							c0.5,0.2,0.6,0.6,0,1.1c-0.3,0.1-0.6,0.1-0.8,0.2c-0.3,0-0.5,0.1-0.7,0.1c-0.4,0.1-0.8,0.2-1.1,0.3
							C151.7,100.7,151.2,101,150.6,101.1z"/>
						<g>
							<path d="M175.1,100.1c0-0.5,0.5-1.1,1.1-1.8c0.6-0.7,1.3-1.5,2-2.2c0.3-0.4,0.7-0.7,0.9-1c0.3-0.3,0.5-0.7,0.6-0.9
								c0.3-0.5,0.4-0.9,0-1c-0.7-0.2-1.3-0.3-2.1,0.1c0,0-0.1,0.2-0.3,0.5c-0.2,0.3-0.5,0.7-0.7,1c-0.5,0.8-1.1,1.5-1.1,1.5
								c-0.9,0.7-1.6,1.1-2.1,1.4c-0.5,0.2-0.8,0.3-0.9,0.3c-0.3-0.1,0-0.6,0.4-1.2c0.4-0.6,0.8-1.3,0.7-1.6
								c-0.1-0.4-0.5-0.4-1.8,0.2c-1,0.8-1.4,1.2-1.7,1.7c-2,2.1-1.1,2,0.7,1.7c-1.8,1.1-3.1,1.7-4.1,1.9c-1,0.1-1.7-0.1-2.3-0.3
								c-0.6-0.3-1-0.6-1.6-0.7c-0.3-0.1-0.6-0.1-0.9-0.1c-0.4,0-0.8,0.1-1.3,0.3c-2.6,1.3-3,2-2.8,2.8c0.2,0.8,1,1.4,0.4,2
								c-0.1-0.6-1-1-2.2-1.2c-0.3-0.1-0.7-0.1-1-0.1c-0.4-0.1-0.8-0.1-1.2-0.2c-0.8-0.1-1.7-0.2-2.7-0.2c-3.9-0.4-8.6-1-12.7-2
								c-4-0.3-8-2.2-11.6-4.6c-3.7-2.5-7-5.5-10.6-8.7c-2.4-3.3-4.6-8.2-6-13.2c0.1,0,0.2-0.1,0.4-0.1c-0.1-0.1-0.3-0.1-0.4-0.1
								c0.1-1,0-2.3-0.3-3.6c-0.2-1.3-0.5-2.8-0.7-4.2c-0.1-1.4-0.2-2.7-0.1-3.7c0.2-1,0.6-1.7,1.3-1.9l-0.2-0.9
								c0-1.1,0.2-1.7,0.3-1.9c0.1-0.2,0.3-0.2,0.4,0c0.3,0.3,0.7,0.8,1.1-0.4c0.1-1,0.2-2,0.7-3c0.2-0.5,0.4-1,0.6-1.5
								c0.1-0.2,0.2-0.5,0.3-0.7c0.1-0.2,0.2-0.5,0.4-0.7c0.5-0.9,0.8-1.8,1-2.6c0.3-0.8,0.3-1.5,0-2.2c0.3-0.2,0.2,0.2,0.5,0
								c0,0,0.1-0.2,0.2-0.5c0.1-0.3,0.2-0.7,0.4-1c0.3-0.7,0.7-1.5,0.7-1.5c-0.4-0.5-0.6-1.4-1.4-1.3c0.4-0.7,0.3-1.6,1.1-2.4
								c1.7-2.3,1.1,0.4,2.1-0.1c1.9-2.8,4.5-5.6,7.6-7.7c3.1-2,6.6-3.3,9.8-3.8c0.1,0.5,0.7,0.7,1.5,0.8c0.4,0,0.8,0,1.3,0
								c0.5,0,1-0.2,1.5-0.2c1.1-0.1,2.2-0.3,3.3-0.4c1.1-0.1,2.1-0.2,2.8-0.2c0.7,0.2,1.5,0.4,2.3,0.5c0.8,0.1,1.5,0.1,2.3,0.2
								c0.8,0.1,1.5,0.1,2.3,0.1c0.8,0.1,1.5,0.1,2.3,0.2c0.4,0,0.8,0.1,1.2,0.1c0.4,0.1,0.7,0.1,1.1,0.2c0.7,0.2,1.4,0.3,2.1,0.5
								c1.3,0.5,2.5,1.1,3.3,2c-0.7-0.1-1.5-0.2-2.3-0.5c-0.4-0.1-0.8-0.3-1.1-0.5c-0.4-0.1-0.8-0.3-1.1-0.4
								c-0.7-0.3-1.4-0.5-1.9-0.6c-0.5-0.1-1,0-1.2,0.3c0,0,0.2,0.2,0.5,0.4c0.2,0.2,0.5,0.5,0.5,0.5c0.6,0.3,1.2,0.7,1.9,1.1
								l0.5,0.3l0.5,0.3c0.3,0.2,0.7,0.4,1,0.6c0.3,0.2,0.7,0.4,1,0.5c0.3,0.1,0.6,0.3,0.9,0.4c0.6,0.2,1.2,0.3,1.7,0.2
								c-0.8-1.4-0.6-2.1-0.7-2.9c1.2,0.4,1.7,0,3.2,0.7c1,0.7,2,1.4,2.6,2.1c0.6,0.8,0.8,1.4,0.5,1.8c-0.6-0.3-1-0.8-1.5-1.2
								c-0.5-0.4-1-0.8-1.4-1.1c-0.5,0.3,0.1,1.1,0.8,1.9c0.7,0.9,1.6,1.9,2,2.4c0-1.7,1.3-1.7,2.3-1.9c0.9-0.2,1.4-0.7-0.7-3.7
								c0,0,0.8,0.6,1.6,1.1c0.4,0.3,0.8,0.6,1.1,0.8c0.3,0.2,0.5,0.4,0.5,0.4c0.9,0.2,0.9-0.4,0.5-1.4c-0.5-0.9-1.4-2.2-2.3-3.4
								c-1.9-2.2-3.7-4.2,0.2-2.9c0.5,0,0.7-0.4,1-0.5c0.3-0.2,0.9-0.2,2.1,0.4c-0.2-0.9-1.1-1.7-2-2.4c-0.9-0.7-1.8-1.2-2.5-1.3
								c-0.2-0.6-0.9-1.4-1.9-2.1c-0.2-0.2-0.5-0.4-0.8-0.6c-0.3-0.2-0.6-0.3-0.9-0.5c-0.6-0.3-1.2-0.7-1.8-1
								c-1.2-0.7-2.4-1.2-3.3-1.8c-0.9-0.6-1.4-1.1-1.3-1.7c-1.1-0.1-2.1-0.2-3-0.3c-0.9-0.1-1.7-0.3-2.5-0.5
								c-1.6-0.3-3-0.8-4.5-1.3c-1.5-0.4-2.9-0.9-4.5-1.3c-1.6-0.3-3.3-0.5-5.3-0.5c-2.5,0.2-4,0.5-4.8,0.7c-0.8,0.3-1,0.6-0.9,0.9
								c0.2,0.6,1.2,1.1,0,2.1c-1.2,0.1-2.4,0.3-3.5,0.7c-1.1,0.4-2.1,0.9-3.1,1.4c-0.5,0.3-0.9,0.5-1.4,0.8
								c-0.4,0.3-0.8,0.6-1.2,0.9c-0.7,0.6-1.4,1.1-2,1.5c-2.2,1.3-4,1.4-2.7,0.1c-2.3,1-4.3,2.3-6.5,3.6l-3,2.3
								c-1,0.8-1.9,1.7-2.8,2.5c-3.6,3.5-6.7,7.7-8.9,12.3c-2.2,4.6-3.8,9.6-4.5,14.8c-0.6,5.1-0.4,10.3,0.5,15.5
								c0.2,4.3,1.6,8.3,3.4,11.9c0.5,0.9,0.9,1.9,1.3,2.8c0.5,0.9,1,1.8,1.4,2.7c0.2,0.5,0.4,0.9,0.7,1.4c0.2,0.5,0.5,0.9,0.7,1.4
								c0.5,1,0.9,2,1.2,3.1l-0.5-1.4c0.1-0.3,0.8,0.5,1.5,1.1c-0.5-1.4-0.8-2.8-1.2-4.1c0.6,1,1.3,2.1,2,3.1c0.8,1,1.6,1.9,2.4,2.8
								c0.4,0.1,0.8,0.3,1.3,0.6c0.5,0.3,1.1,0.7,1.6,1.1c0.6,0.5,1.2,1,1.8,1.5c0.6,0.5,1.4,1,2.1,1.6c0.7,0.5,1.4,1.1,2.1,1.5
								c0.7,0.4,1.5,0.8,2.2,1.2c0.7,0.3,1.4,0.6,2,0.8c0.6,0.2,1.2,0.2,1.7,0.2c2.8,1.6,4.8,2.4,6.2,3.1c0.3,0.2,0.7,0.3,1,0.5
								c0.3,0.1,0.6,0.3,0.8,0.4c0.5,0.2,1,0.5,1.4,0.7c0.5,0.2,0.9,0.4,1.4,0.7c0.3,0.1,0.5,0.2,0.9,0.4c0.3,0.1,0.7,0.2,1,0.3
								c1.5,0.4,3.7,1.1,7.1,1.4c3.7-0.2,7.7-0.9,11.7-2c4-1.2,8-2.6,11.9-4.4c0.7-0.3,1.4-0.6,2.1-0.8c0.6-0.3,1.2-0.5,1.8-0.6
								c1-0.3,1.7-0.3,1.6,0c0.4-0.3,0.8-0.5,1.2-0.8c0.4-0.3,0.8-0.6,1.3-1c0.9-0.7,1.8-1.4,2.7-2.1c0.9-0.8,1.7-1.6,2.5-2.3
								c0.4-0.4,0.8-0.7,1.2-1.1c0.4-0.4,0.7-0.8,1-1.1c0.6-0.9,1.1-1.6,1.6-2.3c0.4-0.7,0.7-1.3,0.9-1.8c0.5-1,0.6-1.6,0.6-1.9
								c-0.1-0.6-1-0.1-2.2,1c-0.3,0.3-0.6,0.6-1,0.9c-0.4,0.3-0.8,0.6-1.2,1c-0.8,0.7-1.6,1.5-2.5,2.2
								C178.1,97.8,176.4,99.3,175.1,100.1z"/>
							<path d="M130.3,34.1c0.1,0.6,0.8,0.6,1.5,0.6c0.8,0,1.6-0.2,2.1-0.2c0,0,0.2-0.2,0.4-0.4c0.2-0.2,0.5-0.4,0.5-0.4
								c2.5-1.3,2.3-2.6,0.3-2.6c-0.1,0.3-0.3,0.6-0.7,0.8c-0.4,0.3-0.8,0.5-1.3,0.8c-0.5,0.3-1,0.5-1.5,0.7
								c-0.3,0.1-0.5,0.2-0.7,0.3C130.7,33.9,130.5,34,130.3,34.1z"/>
							<path d="M116,52.6l-0.9-0.7c0,0-0.1,0.2-0.2,0.6c-0.1,0.3-0.2,0.8-0.2,1.3c-0.1,0.9-0.3,1.8-0.3,1.8c0.4,0,0.6-0.4,0.9-1
								C115.6,53.9,115.7,53.2,116,52.6z"/>
							<path d="M182.8,44.5c-0.2-0.5-0.4-1-0.6-1.4c-0.2-0.4-0.4-0.8-0.5-1.2c-0.3-0.8-0.6-1.5-0.9-2.3c-0.4-0.7-0.8-1.4-1.2-2.1
								c-0.2-0.4-0.5-0.8-0.8-1.2c-0.3-0.4-0.7-0.8-1.1-1.2c0,0-0.2,0.5-0.5,1c-0.2,0.5-0.5,1-0.5,1c2.1,3.9,3.2,8.3,4.9,12.8
								c1.6,1.2,1.4-0.3,1.1-2.1C182.3,46.1,181.6,44.2,182.8,44.5z"/>
							<path d="M180.6,34.3c3.5,2.7,5.8,7,7.4,11.3c0.4,1.1,0.7,2.1,1.1,3.2c0.4,1,0.6,2.1,1,3.1c0.2,0.5,0.4,1,0.6,1.5
								c0.2,0.5,0.4,1,0.5,1.5c0.4,1,0.8,1.9,1.3,2.8c1.1-0.6,1.5-2,1.5-3.7c0-0.9-0.2-1.8-0.5-2.8c-0.3-1-0.6-2-1.1-3
								c-1-2-2-4.1-3.2-5.9c-0.6-0.9-1-1.8-1.5-2.6c-0.5-0.8-0.8-1.6-1.1-2.3c-2.6-3-4.4-4.5-8-7.5c-1.6-0.8-1.5-0.2-0.7,0.9
								C178.8,31.8,179.9,33.4,180.6,34.3z"/>
							<path d="M190.5,60.2c0,0.9,0.3,2,0.4,2.5c0.4,0.7,0.7-1.1,1-1.9C191.9,59.8,190.8,57.4,190.5,60.2z"/>
						</g>
					</g>
				</g>
			</g>
		</g>
		<g>
			<path class="st2" d="M75.2,253.1c21.8-7.5,33.5-31.3,25.9-53.2c-7.5-21.8-31.3-33.5-53.2-25.9c-21.8,7.5-33.5,31.3-25.9,53.2
				C29.5,249.1,53.3,260.7,75.2,253.1z"/>
			<g>
				<g>
					<g>
						<path d="M81.8,256.1c-0.3,0.2-0.6,0.3-0.8,0.4c-0.2,0.1-0.3,0.1-0.3,0.1c0,0.1,0.1,0.1,0.1,0.2
							C81.1,256.5,81.5,256.3,81.8,256.1z"/>
						<path d="M81.8,253.5l-0.3,0.2c0.1,0,0.1,0.1,0.1,0.1C81.6,253.6,81.7,253.5,81.8,253.5z"/>
						<path d="M80.7,256.8c0.4,0.6,1.2,1.1,0.9,2c-0.7,0.3-2,0.8-2.6,1.1c-0.5,0.6,0.3,0.7,0.4,1.1c-0.7,0.3-1.4,0.5-1.3,0.7
							c-0.1,0.3,0,0.5,0.4,0.5c0.4,0,0.9-0.1,1.6-0.3c0.5-0.8,1.4-1.6,2.2-2.4c0.8-0.8,1.5-1.6,2-2.2c0.4-0.6,0.5-1,0-1.1
							c-0.2-0.1-0.6,0-1.2,0.1C82.5,256.3,81.8,256.6,80.7,256.8z"/>
						<path d="M84.8,253l-3.1,1.6c-0.1,0.6-0.4,1.2,0.1,1.4C83.4,254.9,84.2,254,84.8,253z"/>
						<path d="M67.2,258.1c0-0.1,0-0.2,0.6-0.1C67.6,258,67.4,258.1,67.2,258.1c0,0.1,0.1,0.3-0.2,0.4c2.2-0.6,4.8-1.2,7.2-2
							c0.3-0.3,0.5-0.6,0.7-0.9c-2.9,1-6,1.7-8.9,2.1c-1.5,0.2-2.9,0.5-4.3,0.5c-0.7,0.1-1.4,0.1-2.1,0.2c-0.3,0-0.7,0.1-1,0.1
							c-0.3,0-0.7,0-1,0.1c0.9,0.1,1.8,0.1,2.6,0.1c0.8,0,1.6-0.1,2.4-0.1C63.9,258.5,65.4,258.3,67.2,258.1z"/>
						<path d="M74.9,254.3c0.2-0.1,0.4-0.1,0.6-0.2C74.9,254.1,74.9,254.2,74.9,254.3z"/>
						<path d="M23.2,185.9c0.5-0.9,1.1-1.7,1.7-2.5c0.6-0.8,1.1-1.6,1.6-2.4c0.6-0.8,1.1-1.5,1.7-2.3l0.8-1.2
							c0.3-0.4,0.6-0.7,0.9-1.1c-5.9,5.5-10,12.7-11.7,18.4c0.3-0.8,0.6-1.6,1-2.3l1.2-2.3C21.2,188.7,22.3,187.4,23.2,185.9z"/>
						<path d="M45.3,164.8c-1.3,0.3-2.6,0.8-3.8,1.3c-0.6,0.2-1.2,0.5-1.7,0.7c-0.5,0.3-1.1,0.6-1.6,0.9c-1,0.6-2,1.2-2.9,1.9
							c-0.9,0.7-1.7,1.5-2.5,2.2l2.7-1.9c0.9-0.6,1.9-1.1,2.8-1.7c1.9-1.2,3.9-1.9,5.9-2.8C44.6,165.3,45,165,45.3,164.8z"/>
						<path d="M40.2,168.2c-2.2,1.1-4.2,2.3-5.8,3.8c-0.8,0.7-1.7,1.4-2.4,2.1c-0.7,0.8-1.4,1.6-2.1,2.3c0.8-0.8,1.7-1.6,2.5-2.3
							c0.9-0.7,1.7-1.4,2.6-2.1c0.4-0.4,0.9-0.7,1.3-1c0.4-0.3,0.9-0.6,1.3-0.9C38.5,169.4,39.3,168.8,40.2,168.2z"/>
						<path d="M39.6,237.2c1,0.5,1.8,0.8,2.3,1.1c0.6,0.3,1,0.5,1.3,0.7c0.4,0,0.9-0.1,1.6-0.1c-0.1-0.1-0.2-0.1-0.3-0.2l-1.4-0.6
							l-1.3-0.8c-0.4-0.3-0.9-0.5-1.4-0.8l-1.3-1c-0.4-0.2-0.8-0.4-1.2-0.6c-0.4-0.2-0.7-0.4-1.1-0.6l0.6,0.8
							c0.2,0.3,0.5,0.5,0.7,0.7C38.7,236.2,39.2,236.7,39.6,237.2z"/>
						<path d="M43.3,239c-1.8,0.2-1.2,0.5-0.4,0.7C43.6,239.8,44.5,239.7,43.3,239z"/>
						<path d="M23.9,235.6l-0.2-0.4c-0.2-0.3-0.5-0.7-0.7-1.1C23.3,234.7,23.6,235.1,23.9,235.6z"/>
						<path d="M24.9,203.3c-0.5,2.1-0.8,4.3-0.8,6.4c0.2-4.3,1.2-8.7,2.4-12.3c-0.2,0.5-0.6,0.9-0.8,1.5
							C25.5,200,25.4,201.8,24.9,203.3z"/>
						<path d="M38.2,248.2c-5.7-3.2-10.8-7.7-14.5-13c-3.3-5.7-5.3-12-6.1-18.3c-0.8-6.3-0.4-12.6,0.8-18.5c1-5.2,4.2-12.1,9.2-17.8
							c0.6-0.7,1.2-1.4,1.9-2.1c0.6-0.7,1.3-1.3,2-2c0.7-0.6,1.3-1.3,2-1.9c0.7-0.6,1.4-1.2,2.1-1.7c1.3-1.2,2.8-2.2,4.1-3.2
							c1.3-1.1,2.7-1.9,3.8-2.8c-1.2,0.4-2.3,0.8-3.3,1.3c1.4-0.9,2.8-1.8,4.1-2.7c9-3.6,19.2-4.6,28.8-2.5l1.8,0.4
							c0.6,0.2,1.2,0.3,1.8,0.5c1.2,0.4,2.4,0.7,3.5,1.1l3.4,1.4c0.6,0.2,1.1,0.5,1.7,0.8l1.6,0.9l1.6,0.9c0.5,0.3,1,0.7,1.6,1
							c1,0.7,2.1,1.4,3.1,2.1c1,0.8,1.9,1.6,2.9,2.4l0.7,0.6l0.7,0.7l1.3,1.3c0.5,0.5,1,1,1.6,1.5c0.5,0.5,1,1,1.4,1.4
							c0.5,0.5,1,0.9,1.4,1.4c0.2,0.3,0.5,0.5,0.7,0.8c0.2,0.3,0.4,0.6,0.6,0.9c0.9,1.3,1.8,2.5,2.5,3.8c0.7,1.3,1.4,2.7,2.2,4
							c0,0,0.1-0.1,0.1-0.2c5.5,11.2,7.4,24.4,4.4,37.4c-1.5,6.1-4.5,11.8-8.1,16.8c-0.3,0.5-0.6,0.8-0.9,1.1
							c-0.3,0.2-0.5,0.4-0.8,0.5c-0.5,0.2-0.9,0.4-1.5,0.9c-1.2,1-2.2,2-3.4,2.8c-1.2,0.8-2.2,1.7-3.4,2.4c-1.2,0.7-2.3,1.5-3.6,2.3
							c-1.3,0.7-2.6,1.5-4.1,2.3c0,0-0.2-0.3-0.3-0.5c-0.8,0.6-1.6,1-2.3,1.3c0.9-1.6,2.7-3.8,3.4-5c0.7-1.3,0.2-1.6-3.4-0.1l0,0
							c0.3-0.3,0.6-0.6,0.9-0.8c0,0,0.1,0,0.1-0.1c0,0,0,0,0,0c0.7-0.6,1.2-1.2,1.6-1.7c0.4-0.5,0.6-1.1,0.9-1.7
							c-0.8,0.7-1.8,1.3-2.7,2c0-0.3,0-0.6-0.3-0.8c0.1-0.1,0.1-0.2,0.2-0.3c0.4-0.3,0.8-0.5,0.8-0.5c0-0.2,0.1-0.4,0-0.6
							c0.9-1.2,2.1-2.6,2.9-3.7c0.7-1.2,1.1-2,0.6-2c-0.4,0.1-0.8,0.5-1.4,1.2c-0.6,0.6-1.3,1.4-2.1,2.2c-0.2,0-0.3,0.1-0.5,0.1
							c2.2-2-0.8-1.1,0.4-2.3c0.4-0.4,0.9-0.7,1.3-1.1l1.2-1.2l1.2-1.2c0.4-0.4,0.7-0.9,1.1-1.3c1.5-1.7,2.7-3.6,3.9-5.4
							c0.5-1,1-1.9,1.5-2.8c0.4-1,0.8-2,1.2-2.9c1.4-4,2.1-8.1,2-12.6c0-0.4,0-0.8,0-1.2c0-0.5,0-1.1,0-1.6c-0.1-0.5-0.1-1-0.2-1.6
							c-0.1-1-0.2-2.1-0.4-3.1l-0.6-3c-0.3-1-0.5-2-0.8-3c0.2,0.2,0.4,0.4,0.6,0.7c-0.3-1.7-1.1-3.2-1.7-4.8
							c-0.3-0.8-0.8-1.5-1.2-2.3c-0.4-0.7-0.8-1.5-1.4-2.1c-2.5-3.4-5.6-6.2-8.9-8.5c-3.4-2.4-7.1-4.2-11.1-5.6
							c-8.4-2.9-17.5-2.3-25.4,1.4l1.2-0.7l1.2-0.5c0.8-0.3,1.7-0.7,2.5-1c0.9-0.2,1.8-0.5,2.7-0.7c0.9-0.2,1.8-0.3,2.8-0.4l1.3-0.1
							l1.3,0c0.8,0,1.7,0,2.5,0c-0.8-0.1-1.7-0.1-2.5-0.1c-0.4,0-0.8,0-1.2,0l-1.2,0.1c-0.8,0.1-1.6,0.1-2.4,0.2
							c-0.8,0.1-1.6,0.3-2.4,0.4c-0.4,0.1-0.8,0.1-1.2,0.2c-0.4,0.1-0.8,0.2-1.1,0.4c-0.8,0.2-1.5,0.5-2.2,0.7
							c-0.7,0.3-1.4,0.7-2.1,1c-0.7,0.4-1.3,0.7-1.9,1.1c-0.6,0.4-1.1,0.9-1.6,1.3c-0.2,0.2-0.5,0.4-0.7,0.7
							c-0.2,0.3-0.4,0.5-0.6,0.8c-0.5,0.1-0.6,0-1,0.3l-1.1,0.7c-0.4,0.3-0.7,0.6-1,0.8c-0.7,0.6-1.4,1.1-2,1.7
							c-0.6,0.6-1.2,1.3-1.7,1.9c-0.3,0.3-0.5,0.6-0.7,1c-0.2,0.4-0.4,0.7-0.5,1.1c0.2,0.1-0.8,1.3-0.2,1.1
							c-1.6,2.5-3.5,5.4-4.1,8.3c-0.1,0.3-0.2,0.6-0.2,0.9c-0.1,0.3-0.1,0.6-0.1,1c0,0.6,0,1.3,0,1.9c-0.2,0.6-0.2,1.3-0.3,1.9
							c-0.1,0.6-0.2,1.2-0.2,1.9l0,1.9c0,0.6,0,1.2,0,1.9c0.1,1.2,0.2,2.5,0.5,3.7l0.3,1.8l0.5,1.8c0.7,2.4,1.7,4.6,2.9,6.7
							c0.3,0.5,0.7,1,1,1.5c0.4,0.5,0.6,1.1,1,1.5c0.8,0.9,1.5,1.9,2.4,2.8c1.6,1.9,3.7,3.7,5.6,5.2c-3.3-1.6-6.4-4.1-8.9-7.2
							c-1.9-3.4-3.1-6.8-4.8-9.7c-0.3-0.7-0.6-1.4-0.9-2.1c1.1,4.4,3.1,8.5,5.7,11.8c0.6,0.9,1.1,2,1.9,2.9l1.1,1.4
							c0.4,0.5,0.8,0.8,1.2,1.3c0,0-0.1,0-0.1-0.1l-1.1-0.8l-1-1l-1-1c-0.4-0.3-0.6-0.7-0.9-1.1c-0.2-0.4-0.5-0.8-0.7-1.1l-0.4-0.6
							l-0.3-0.6c-0.4-0.8-0.8-1.5-1.2-2.2c-0.6-1.5-1.5-2.9-2.2-4.3c-0.2-0.3-0.4-0.7-0.6-1c-0.4-0.7-0.7-1.4-1-2.1
							c0.3,1.4,0.9,2.7,1.4,4c0.2,0.7,0.6,1.3,0.9,1.9c0.3,0.6,0.6,1.3,1,1.8l1.4,2.1c0.2,0.4,0.5,0.7,0.8,1l0.8,1
							c0.5,0.9,1.2,1.7,1.8,2.6c-0.1-0.1-0.2-0.1-0.3-0.2c-0.4-0.3-1.4-0.6-2.3-0.7c-0.9-0.1-1.7,0-1.5,0.8c1.2,1.6,2.6,3.2,4.2,4.6
							c0.7,0.8,1.6,1.4,2.4,2c0.4,0.3,0.8,0.6,1.2,0.9c0.4,0.2,0.8,0.5,1.2,0.7c1.5,1,3,1.6,4,2.1c0.5,0.3,0.9,0.4,1.2,0.5
							c0.3,0.1,0.4,0.2,0.4,0.2c0,0.2-0.7,0.2-1.9-0.2c-1.1-0.4-2.7-0.9-4.1-1.7c-0.7-0.4-1.5-0.7-2.1-1.2c-0.6-0.4-1.2-0.8-1.8-1.2
							c-0.3-0.2-0.5-0.3-0.7-0.4c-0.2-0.1-0.4-0.3-0.5-0.4c-0.3-0.2-0.4-0.3-0.4-0.2c0.2,0.3,0.5,0.6,0.7,0.9l0.8,0.8
							c-0.7-0.4-1.4-0.7-1.9-1.1c-0.6-0.5-1.3-1.2-1.9-1.8c-0.6-0.6-1.1-1.3-1.6-1.5c-0.4-0.3-0.8-0.6-1.2-0.9
							c-0.4-0.3-0.7-0.7-1.1-1.1c-0.3-0.4-0.7-0.8-1-1.2c-0.3-0.4-0.7-0.8-0.9-1.3c-0.6-0.9-1.1-1.9-1.7-2.8c-0.5-1-1-2-1.6-3
							c-0.4-0.6-0.7-1.3-1.1-2c-0.4-0.7-0.8-1.4-1.2-2.2c-0.3-0.8-0.7-1.6-1-2.4c-0.2-0.4-0.3-0.8-0.5-1.3c-0.2-0.4-0.3-0.9-0.4-1.3
							c-0.4,0-0.3-1.8-0.7-1.1c-0.2-1.7-0.1-3.5-0.2-5.1c-0.1-0.8-0.1-1.5-0.2-2.2c-0.1-0.6-0.2-1.2-0.5-1.6l0-0.3c0-0.2,0-0.6,0-1
							c0.4-1.4,0.6-2.7,0.8-4c0.3-1.3,0.6-2.5,0.8-3.7c0.6-2.4,1.1-4.8,2.1-7.4c0.2-0.4,0.4-0.9,0.6-1.3c0.3-0.4,0.5-0.8,0.8-1.2
							c0.5-0.8,1.1-1.6,1.6-2.5c-0.7,1.1-2,2.6-2.6,3.8c-0.2,0.4-0.3,0.8-0.5,1.2c-0.3,0.6-0.5,1.1-0.8,1.7
							c-0.3,0.5-0.5,1.1-0.7,1.7c-0.4,1.1-0.8,2.3-1.1,3.4c-0.3,1.1-0.5,2.3-0.8,3.4c-0.1,0.6-0.2,1.1-0.3,1.7l-0.2,1.7
							c0,0.4,0.1,1,0.1,1.6c-0.1,0.3-0.1,0.6-0.2,1c0.1,0.1,0.1,0.2,0.2,0.3c0,1.1,0,2.2,0,3.3c0.1,1.1,0.2,2.2,0.2,3.3
							c0.1,1.1,0.3,2.1,0.5,3.1c0.1,0.5,0.2,1,0.3,1.5c0.1,0.5,0.3,0.9,0.4,1.3c0.2,0.8,0.4,1.6,0.7,2.4c0.2,0.8,0.5,1.6,0.8,2.4
							c0.3,0.8,0.5,1.6,0.8,2.4c0.3,0.8,0.6,1.6,1,2.4l0.5,1.2l0.6,1.1l1.2,2.3c0.4,0.7,0.9,1.5,1.3,2.2c0.5,0.7,0.9,1.5,1.4,2.1
							c-0.6-0.6-1.1-1.3-1.7-1.9c-0.5-0.7-1.1-1.3-1.6-2c-0.5-0.7-0.9-1.4-1.4-2.1c-0.5-0.7-1-1.4-1.3-2.1c2,3.7,4.3,6.9,7.1,9.5
							c0.4,0.4,0.7,0.9,1.1,1.3l2.5,2.6c-0.7-0.9-1.5-1.7-2.2-2.5c0.9,0.7,1.7,1.4,2.6,2.1c0.9,0.6,1.8,1.2,2.7,1.8
							c0.3,0.2,0.6,0.4,0.9,0.6l1,0.6l1.9,1.1c1.3,0.7,2.7,1.3,4,1.9l2.1,0.8c0.7,0.2,1.4,0.6,2.1,0.7l2.1,0.6
							c0.4,0.1,0.7,0.2,1.1,0.3l1.1,0.2c5.7,1.1,11.6,1.2,17.3,0.1c-0.2,0.3-0.4,0.6-0.6,0.8c-5.6,1.2-11.3,1-16.1,1
							c1.6,0.4,3.1,0.4,4.5,0.5c1.4,0.1,2.8,0,4.4,0c0,0.1,0,0.3-0.2,0.3c1,0,2.2-0.3,3.3-0.5c0.6-0.1,1.1-0.2,1.7-0.3
							c0.6-0.1,1.1-0.3,1.7-0.4c-0.6,0.6-1.4,1.3-2.2,1.9c-0.6,0.2-1.3,0.4-2.2,0.5c-0.4,0.1-0.9,0.1-1.3,0.2
							c-0.5,0-0.9,0.1-1.4,0.1c-4,0.2-8-0.4-11.7-1.4l-2.8-0.8c-0.9-0.3-1.8-0.7-2.8-1.1l-1.4-0.5c-0.5-0.2-0.9-0.4-1.3-0.6
							c-0.9-0.4-1.8-0.9-2.7-1.3c-6-3.9-11.1-9.2-14.7-15.2C27.9,241.3,32.9,245.5,38.2,248.2z M96.9,244.4c0.4-0.6,0.8-1.2,1.1-1.8
							c-0.1,0.1-0.2,0.1-0.3,0.2C97.3,243.2,97.1,243.8,96.9,244.4z M105.3,231c-1.9,4.2-4.6,9.8-8.4,14.4c0,0.1,0,0.1,0.1,0.1
							C100.5,241.9,103.5,236.4,105.3,231z M112.7,212.7l-0.1,0.1c0,0,0.1,0,0.1,0L112.7,212.7z M52.6,169.6
							c0.6-0.2,1.3-0.5,1.9-0.7c0.7-0.2,1.4-0.4,2.1-0.5c0.7-0.1,1.5-0.3,2.2-0.4c0.8-0.1,1.5-0.2,2.3-0.2c3.1-0.2,6.5,0,9.8,0.5
							c1,0.2,2,0.2,3.1,0.3c1.1,0.1,2.3,0.3,3.6,0.7c1.6,0.5,2.9,0.9,4.2,1.3c0.6,0.2,1.2,0.4,1.8,0.7c0.6,0.2,1.2,0.5,1.8,0.8
							l-1.6-1.3c1,0.6,2,1.1,2.9,1.5c0.9,0.5,1.8,0.9,2.6,1.4c1.8,0.8,3.3,2,5.1,3.7c0.1-0.2,0.9,0,1.4,0.5c1.3,1.2,2.6,2.4,3.6,3.8
							c1,1.3,2.1,2.5,3,3.7c1.1,1.4,2.1,2.9,2.9,4.4c0.8,1.5,1.7,2.8,2.4,4.1c0.3,0.7,1.4,1.8,2.1,3.1c0.6,1.7,1.1,3.4,1.7,5.1
							c0-0.1,0.1-0.2,0.1-0.3c-0.4-1.4-0.8-2.8-1.4-4.2c-1.8-4.1-4.3-8.6-6.9-12c-0.4-0.5-0.8-1.1-1.2-1.6c-0.4-0.5-0.9-1-1.3-1.5
							c-0.4-0.5-0.9-1-1.3-1.5l-0.7-0.7l-0.7-0.7c-1-0.9-1.9-1.8-2.9-2.6c-1-0.8-2.1-1.5-3.1-2.3c-4.2-2.8-8.7-4.9-13.4-6.3
							c-1-0.3-2.1-0.4-3.1-0.6l-1.5-0.3c-0.5-0.1-1-0.1-1.5-0.2c-1.6-0.1-3.1-0.4-4.8-0.4c-0.8,0-1.6-0.1-2.4-0.1
							c-0.8,0-1.6,0-2.4,0.1c-0.8,0-1.5,0.1-2.3,0.1c-0.7,0.1-1.4,0.2-2.1,0.4c-0.7,0.1-1.3,0.3-1.9,0.5c-0.6,0.2-1.1,0.4-1.6,0.6
							C54.4,168.9,53.1,169.1,52.6,169.6z M48.6,179.6c0.3-0.2,0.6-0.4,0.9-0.5c0.3-0.2,0.6-0.3,1-0.4c0.7-0.3,1.3-0.6,2-0.8
							c0.7-0.3,1.4-0.4,2.1-0.7c0.7-0.2,1.4-0.4,2.2-0.6c0.7-0.1,1.5-0.2,2.2-0.3c0.7-0.1,1.4-0.2,2.2-0.2c1.4,0,2.8,0,4.2,0.2
							c2.2,0.1,6.3,0.7,9.8,1.4c0.8,0.2,1.7,0.4,2.4,0.5c0.7,0.1,1.4,0.2,1.9,0.2c1.1,0.1,1.7-0.2,1.4-1c-0.4,0.1-1,0-1.5,0
							c-0.6,0-1.3-0.1-2-0.3c-0.7-0.1-1.5-0.4-2.3-0.5c-0.8-0.2-1.7-0.3-2.6-0.6c-3.6-0.7-7.9-1.4-12-1.2c-2,0.2-4,0.3-5.7,0.7
							c-0.9,0.2-1.7,0.3-2.4,0.6c-0.7,0.3-1.4,0.5-1.9,0.8c-0.6,0.2-1.1,0.5-1.4,0.7c-0.4,0.3-0.7,0.5-0.8,0.8
							C47.9,178.8,48,179.2,48.6,179.6z M28.7,213.4c-0.1-1-0.3-2-0.3-3c0-0.5,0-1,0.1-1.6c0-0.3,0-0.5,0.1-0.8
							c0.1-0.3,0.1-0.5,0.2-0.8c-0.2,1-0.1,2.1-0.2,3.1C28.5,211.4,28.7,212.4,28.7,213.4z M28.4,189.9c-0.4,0.9-0.8,1.8-1.2,2.6
							c-0.3,0.9-0.7,1.8-1.1,2.7c-0.4,0.9-0.6,1.8-0.9,2.7c-0.3,0.9-0.6,1.8-0.8,2.8c-1,3.7-1.3,7.6-1.2,11.2
							c0.1,1.4,0.1,2.8,0.3,4.2l0.2,2.1c0.1,0.7,0.2,1.4,0.4,2.1c0.1,0.7,0.2,1.4,0.4,2.1c0.2,0.7,0.4,1.3,0.7,1.9
							c0.3,0.6,0.5,1.3,0.8,1.8c0.3,0.6,0.7,1.1,1.1,1.6l0.5-0.2l-0.4-0.4c-0.3-0.9-0.5-1.7-0.6-2.5c-0.1-0.8-0.2-1.6-0.4-2.3
							c0,0.1,0.1,0.2,0.1,0.2l-0.2-0.4c-0.1-1-0.3-2.1-0.6-3.3c-0.2-0.5-0.3-1.1-0.5-1.7c-0.1-0.8-0.2-1.6-0.3-2.5l-0.1-2.5
							c0-0.4-0.1-0.8,0-1.3l0.1-1.3c0.1-0.8,0-1.7,0.1-2.5c0.2-1.7,0.3-3.3,0.7-4.9c0.2-0.8,0.2-1.6,0.5-2.4
							c0.2-0.8,0.4-1.6,0.6-2.4c0.2-1,0.6-1.8,0.9-2.8c0.3-0.9,0.5-1.8,0.9-2.7c0.4-0.9,0.7-1.8,1.1-2.7c0.5-0.8,1-1.7,1.5-2.6
							c-0.4,0.5-0.9,1-1.4,1.5c-0.2,0.3-0.5,0.5-0.7,0.8C28.6,189.4,28.5,189.6,28.4,189.9z"/>
						<path d="M30.3,240.6c1.9,1.8,3.9,3.4,6,4.8c0.8,0.6,1.7,1,2.6,1.4c0.9,0.4,1.7,0.9,2.7,1.2c4.2,1.9,8.9,3.4,13.9,4.1
							c4.9,0.7,10.1,0.5,14.7-0.9c0.1-0.6,0-1.2-0.4-1.7c-4.9,0.8-9.9,1-14.8,0.2c-4.9-0.8-9.7-2.5-13.8-5.4l-0.2-0.1
							c-0.5-0.2-1.1-0.4-1.6-0.7c-0.6-0.3-1.1-0.7-1.7-1c-0.6-0.4-1.2-0.8-1.7-1.2c-0.5-0.5-1.1-1-1.7-1.5c-1.2-1-2.1-2.2-3.2-3.3
							c-0.6-0.5-1-1.2-1.5-1.7c-0.5-0.6-1-1.1-1.4-1.6c-3.8-4.3-6.1-9.8-7.7-15.6c0,1.1,0.3,2.1,0.5,3.2c0.2,1,0.4,2.1,0.7,3.1
							c0.3,1,0.6,2,0.9,3c0.4,1,0.8,1.9,1.2,2.9c0.4,1,0.9,1.9,1.4,2.8c0.5,0.9,0.9,1.9,1.5,2.7c0.6,0.9,1.1,1.8,1.7,2.6
							C29,238.9,29.6,239.8,30.3,240.6z"/>
						<path d="M32.9,171.9c-1.2,0.8-2.2,1.8-3.3,2.7l-1.6,1.4l-1.5,1.6c-5.4,5.9-8.7,12.4-10.4,19.2c1.7-4.8,4.2-9.4,7.5-13.5
							C26.6,179,29.3,175.4,32.9,171.9z"/>
						<path d="M15,202.4c0.1-0.5,0.1-1,0.2-1.4c0.1-0.5,0.2-0.9,0.3-1.4c0.2-0.9,0.4-1.9,0.6-2.8c-2.5,7.2-3.1,14.9-2,22.3
							c1.1,6,3.4,11.8,6.6,16.8c3.2,5.1,7.4,9.4,12.2,12.7c0.5,0.4,1.1,0.8,1.6,1.1c0.6,0.3,1.1,0.7,1.7,1
							c-8.8-6.1-15.2-15.4-18-25.3c-1.5-4.9-2.1-10-2.1-15c0.1-5,0.8-9.8,2-14.5c0.1-0.3,0.2-0.7,0.3-1.1c-0.9,2.1-1.5,4.3-2.2,6.4
							c-0.2,1.1-0.4,2.2-0.7,3.3c-0.2,1.1-0.3,2.2-0.4,3.3l-0.1,1.7l-0.1,0.8l0,0.8l0,3.3c0,1.1,0.2,2.2,0.3,3.3l0.2,1.6l0.3,1.6
							C14.3,215.1,14,208.7,15,202.4z"/>
						<path d="M28.5,238.8c0.4,0.5,0.7,0.9,1.1,1.4c0.5,0.5,0.9,1,1.4,1.4c-0.3-0.3-0.5-0.6-0.7-0.9C29.7,240,29.1,239.4,28.5,238.8
							z"/>
						<path d="M26.1,222.3l0-0.2c-0.3-0.8-0.4-1.6-0.6-2.4l-0.3-1.2c-0.1-0.4-0.1-0.8-0.2-1.3c-0.2-1.2-0.6-2.4-0.7-3.6
							c-0.1-1.2-0.3-2.5-0.2-3.8C23.8,214.4,24.6,219,26.1,222.3z"/>
						<path d="M30.1,208.6c0.1-0.5,0.3-1.3,0.4-1.8l-0.2-0.9c-0.1,0.4-0.2,0.8-0.3,1.3c0,0,0,0.4,0,0.7c0,0.2,0,0.4,0,0.5
							C30.1,208.5,30.1,208.6,30.1,208.6z"/>
						<path d="M42.9,184c-7.1,5.4-11.4,13-12.7,20.7c0,0.4,0.1,0.8,0.1,1.2c0.1-0.6,0.4-1.2,0.6-1.8l0.6-1.8
							c0.2-0.6,0.5-1.2,0.7-1.8l0.3-0.9c0.1-0.3,0.3-0.6,0.4-0.9c0.3-0.6,0.5-1.1,0.8-1.7c0.2-0.6,0.6-1.1,0.8-1.7
							c0.3-0.6,0.5-1.1,0.8-1.7c0.3-0.5,0.6-1.1,0.9-1.6c0.4-0.9,1.1-2.3,1.8-3c3.2-3.3,6.7-6.3,10.8-8.5c-2,0.9-3.9,2.1-5.7,3.4
							L42.9,184z"/>
					</g>
				</g>
			</g>
		</g>
		<g>
			<path class="st2" d="M447.1,220.2c0-23.1-18.7-41.8-41.8-41.8c-23.1,0-41.8,18.7-41.8,41.8c0,23.1,18.7,41.8,41.8,41.8
				C428.4,262,447.1,243.3,447.1,220.2z"/>
			<g>
				<g>
					<path d="M412.8,173.5l-1.2-0.2c1,0.1,2,0.3,3,0.5c1,0.2,2,0.5,3,0.8c2,0.5,3.9,1.4,5.8,2.2c-3.8-2.6-8.5-4.7-13.3-5.3
						c-2.4-0.2-4.7-0.3-6.9,0.3c-1.1,0.3-2.1,0.5-3,1c-0.9,0.5-1.8,1-2.6,1.6c-0.3-0.5-1-0.9-2-1.1c-1-0.1-2.2-0.1-3.4-0.1
						c-1.2,0-2.4,0.3-3.2,0.6c-0.9,0.3-1.4,0.5-1.4,0.6l-1.2,0.8l-1.2,0.8c-0.8,0.5-1.6,1.1-2.4,1.6c1.1-0.7,2.2-1.4,3.3-2.2
						c-1.1,0.7-2.2,1.5-3.3,2.2c-4.9,3.5-9.5,7.5-13.6,12.3c-4.1,4.7-7.6,10.4-9.9,16.7c-1.3,3.5-2.8,10.4-2.4,17.4
						c0,0.9,0.1,1.8,0.2,2.6c0.1,0.9,0.2,1.7,0.3,2.6c0.1,0.9,0.3,1.7,0.5,2.5c0.2,0.8,0.3,1.6,0.5,2.4c0.8,3,1.7,5.7,2.5,7.5
						c0.4,1.1,0.8,2.1,1.4,3.1c-0.4-0.9-0.6-1.3-0.7-1.8c-0.2-0.4-0.3-0.9-0.7-1.8c2.5,4.1,5.4,7.3,8.3,10.1c-0.2-0.7-0.1-1-0.8-2.6
						c0,0,1.1,1.8,1.1,1.7c1,0.4,2.1,1.4,3.3,2.4c1.2,0.9,2.4,1.9,3.3,2.4c-0.3,0-0.2,0.3,0.1,0.7c0.3,0.4,0.9,0.8,1.4,1.3l-0.3-0.6
						c4,3.4,9.6,5.9,14,7.3c0.6,0.2,1,0.5,1.3,0.7c0,0,1.1,0.2,2.2,0.4c0.6,0.1,1.1,0.2,1.5,0.2c0.4,0,0.7,0.1,0.7,0.1
						c-0.5,0.6,3.6,1.1,1.4,1.2c0.9-0.1,1.7,0,2.6,0c0.8,0,1.7,0,2.5,0c0.8,0,1.7,0.1,2.5-0.1c0.8-0.1,1.6-0.3,2.4-0.5
						c5.6-0.4,11.4-2,16.5-4.7c5.2-2.7,9.7-6.6,13.1-11.1l-0.4,0c0.6-0.8,1.1-1.6,1.6-2.4c0.4-0.8,0.9-1.7,1.3-2.6
						c0.5-0.8,0.9-1.8,1.3-2.7c0.5-0.9,1.1-1.8,1.6-2.8c0.2-0.8,0.4-1.7,0.6-2.6c0.2-0.9,0.3-1.9,0.5-2.7c0.1-0.9,0.2-1.7,0.2-2.4
						c-0.1-0.7-0.2-1.3-0.4-1.6c0.2-0.9,0.3-1.6,0.4-2.3c0-0.7,0-1.3,0-2c0-0.6,0-1.2-0.1-1.9c-0.1-0.7-0.1-1.4-0.2-2.3
						c-0.3,0.4-0.5-0.4-0.6-1.1c-0.1-0.7-0.3-1.4-0.6-0.5c-1,2.2-0.2,2.3-1.1,4.1l0.2,0c-1.9,8.4-6.3,15.9-12.4,21.4
						c-0.9,1-1.9,2.1-3.1,2.9c-0.6,0.4-1.1,0.9-1.7,1.3c-0.6,0.4-1.2,0.8-1.9,1.1l-0.9,0.6l-1,0.5l-2,0.9c-0.7,0.3-1.4,0.5-2.1,0.8
						c-0.7,0.2-1.3,0.6-2,0.7c-0.7,0.2-1.5,0.5-2.3,0.7c-0.8,0.2-1.6,0.3-2.3,0.5c-1.6,0.4-3.2,0.5-4.7,0.7l-0.6,0.1l-0.6,0
						c-0.4,0-0.8,0-1.2,0c-0.8,0-1.6,0.1-2.3,0c-0.8-0.1-1.5-0.1-2.2-0.2c-0.4,0-0.7,0-1.1-0.1c-0.4-0.1-0.7-0.1-1-0.2
						c-0.7-0.1-1.2-0.3-1.7-0.6c-0.2-0.1-0.5-0.3-0.7-0.4c-0.2-0.2-0.4-0.4-0.7-0.5c-0.6-0.2-1.2-0.4-1.8-0.6
						c-0.3-0.1-0.6-0.2-1-0.3c-0.3-0.1-0.6-0.3-0.9-0.4c-0.6-0.3-1.3-0.6-1.9-0.9c-0.6-0.3-1.2-0.7-1.9-1.1
						c-1.3-0.7-2.5-1.6-3.7-2.5c-0.6-0.4-1.1-0.9-1.7-1.4c-0.6-0.5-1.1-0.9-1.7-1.4c0.1,0.1,0.1,0.2,0.2,0.2c-0.5-0.5-1-1.1-1.4-1.6
						c-0.4-0.5-0.9-1-1.2-1.6c-0.3-0.6-0.7-1.1-1-1.7c-0.2-0.3-0.4-0.6-0.6-0.8c-0.2-0.3-0.4-0.6-0.6-0.9c-0.1,0.1-0.4-0.3-0.6-0.4
						c0.2-0.4-2.4-3.8-4.2-8c-1.8-4.1-2.6-8.8-2.3-9.3c-0.1-0.3-0.1-0.6-0.1-1c0-0.8,0.2-1.6,0.3-2.4c0.1-0.8,0.2-1.6,0.4-2.4
						c0.2-0.8,0.5-1.5,0.7-2.3c0.1-0.4,0.2-0.8,0.3-1.1l0.5-1.1c0.3-0.7,0.6-1.4,0.9-2.1c0.3-0.7,0.7-1.3,1-2
						c0.6-1.3,1.3-2.5,1.8-3.7c0-0.3,0.1-0.6,0.1-0.9c0.1-0.3,0.1-0.6,0.2-0.9c0.1-0.6,0.3-1.2,0.3-1.7c0.8-0.6,0.3-1.2,1.1-2
						c0.8-0.3,1.4-0.7,1.8-1c0.4-0.3,0.8-0.6,1-0.8c0.4-0.5,0.2-0.7-0.6-0.4c1.4-2,3.3-3.5,4.9-4.9c0.7-0.7,1.4-1.4,2.2-2.1
						c0.7-0.6,1.2-0.6,1.8-0.5c1.7-1.4,1.4-0.7,3.5-1.5c0.2,0.1,0.6-0.1,1.1-0.4c0.5-0.3,1.1-0.6,1.7-1c0.6-0.4,1.3-0.8,1.8-1.1
						c0.5-0.2,1-0.4,1.1-0.4l-0.3,0.2c0.7-0.1,1.3-0.2,1.8-0.2c0.6,0,1.1,0,1.7,0.1c1.1,0.2,2.2,0.2,3.4,0.2
						c3.5-0.1,7.1,0.2,10.6,0.8c3.5,0.7,6.8,1.9,9.6,3.5c0.3-0.5-1.3-0.5-1-1.3c3.4,1.8,6.2,4.6,8.8,7.3c0.4,0.6,0.7,1.4,0.8,1.8
						c0.6,1,0.7,0.3,1.2,1l-0.3,0.5c1.2,0.7,0.6,1.8,1.5,2.6c0.2-0.1,0.5,0.2,0.7,0.6c-0.5,0.3,0.7,1.1,0.2,1.3l0,0
						c0.1,0.2,0.2,0.4,0.3,0.7c0.1,0.1,0.4,0.3,0.8,0.6c0.4,0.3,0.9,0.8,1.3,1.3c0.5,0.5,1,0.9,1.4,1.3c0.4,0.4,0.6,0.7,0.7,0.8
						l0,0.3c0.3,0.6,0.8,0.8,0.7,0.4l0.3,0.8l-0.1-0.1l0.3,0.8c0,0.2-0.2,0.4-0.5,0.3c0.3,0.4,0.6,0.9,0.6,1.4
						c0.1-1.4-0.1-3.2,0-4.8c0.4,0.5,0.5,1.6,0.8,2.2c0,0.2,0,0.5,0,0.8c0,0.3,0,0.6,0,1c0,0.7,0,1.4,0,2c0.1,0.3,0.8,0.3,0.6,1
						c-0.4,0.4,0.1,0.7-0.1,1.2c-0.3-0.5-0.3-1.1-0.4-1.7c-0.5,0.2-0.1,1.5-0.2,2c0.2,0.2,0.2,1.3,0.4,2c-0.5-0.3-0.3,0.6-0.6,1
						c0,0.5,0.2,0.8,0.4,0.6c0.6,0.1,0.2-1.9,0.9-1.3c-0.3,0.2-0.1,1.1-0.1,1.7c0.3,0,0.2-0.4,0.5,0c0,0.6,0.4,1.2,0.1,1.5
						c-0.1-0.1-0.1-0.3-0.1-0.5c0,0.4-0.6-0.6-1.1-1.6c-0.5-0.9-1-1.8-0.9-1.3c0.1-0.1,0.6,0.8,1.1,1.8c0.5,1,0.9,2,0.9,1.8
						c0.1-0.5,0.6,0.3,0.7-0.1l-0.4-0.5c0.1-0.7,0.6-0.9,0.8-0.7c0,0.6-0.6-0.2-1.1-1c-0.5-0.8-1-1.5-0.8-1.1c0,0,0.1-0.4,0.1-0.4
						c0.2,0.4,0.4,1.4,0.1,1.8c0.3,0,0.4,0.5,0.6,0.9l0,0.2c0.2,0.4,0.1,1.1,0.5,0.8c-0.1-1.3,0.7-0.9,1.5-0.5
						c0.8,0.5,1.7,1,1.7-0.4c-0.6,1.2-0.7-0.4-0.9-1.6c0.2-0.1,0.5-0.7,0.7-1.6c-0.2-0.8-0.3-0.4-0.5-0.5c0.1-0.4,0.1-1.3,0.5-1.2
						c-0.5-0.5,0.1-1-0.1-1.7c-0.3-0.6-0.2,0.1-0.4-0.3c-0.2-0.9-0.5-2.3-0.6-3c0.2-0.4,0.6-1.4,1.2-0.9c0.3,1.5-0.9-0.3-0.5,1.2
						c0.6-0.8,0.5,1.3,1.2,1.4c0.2-0.6,0-1.6-0.3-2.4l-0.1,0.2c-0.2-0.7-0.9-2.1-0.8-3c0.3,0.1,0.4-0.3,0.6,0.2l-0.3-1
						c-0.1-0.1-0.3-0.2-0.2,0.1c-0.4-0.4-0.4-0.9-0.4-1.3c0.1-0.1-0.8-1.3-1.6-2.3c-0.4-0.5-0.8-1.1-1.2-1.4
						c-0.3-0.4-0.6-0.6-0.5-0.6c-0.4-0.6-0.1-1-0.7-1.5c-0.1,0,0.2,0.4,0.6,0.9c0.4,0.5,1,1.2,1.4,1.9c1,1.4,1.9,2.7,1.6,2.3
						c0-0.2-0.3-0.7-0.8-1.4c-0.5-0.7-1-1.6-1.8-2.4c-0.7-0.8-1.4-1.6-1.8-2.3c-0.5-0.6-0.9-1.1-0.8-1.2c-0.3-0.4-0.8-0.9-0.9-0.6
						c-0.4-0.8,0.6-0.1,0.4-0.8c0,0-0.1,0.1-0.2,0l-0.1-0.7c-0.6-0.5-1.2-1.1-1.8-1.8c-0.6-0.7-1.2-1.4-2-1.7
						c0.6,0.1,1.3,0.1,2.2,0.6l0,0.2c0.2,0,0.8,0.6,1,0.4c-0.5-0.8-1.1-1.4-2-1.9c-0.1-0.2-0.2-0.4-0.2-0.5c0,0,0,0.1-0.1,0.1
						c-0.1-0.4-0.1-0.3,0.1-0.3c0,0,0.1,0,0.1,0c0.1-0.5-0.7-1.1-1.7-1.7c-0.9-0.6-2.1-1.1-2.6-1.8c-0.5-0.2-0.1,0.1-0.7-0.2
						c-0.3-0.3-0.6-0.6-0.9-0.9c-0.3-0.3-0.6-0.5-0.9-0.8c-0.6-0.5-1.2-1-2-1.6c-0.7,0-0.8,0.1-0.4,0.8c0,0-0.3-0.2-0.6-0.4
						c-0.3-0.2-0.6-0.4-0.6-0.4c1.6-0.3-2-2-0.3-2.2c-0.3-0.4-1.1-0.8-1.9-1c-0.2,0.2-0.4,0.5-1.4,0.1c-1.2-0.8-0.9-0.6-2-1.3
						c-0.2-0.4,0.3-0.4,0.3-0.6c-1.9-0.3-1.3-1.2-3.1-1.6c-1.1-0.2-3.3-0.7-3.4-0.1C412.5,174.4,412.6,174,412.8,173.5z"/>
				</g>
			</g>
		</g>
	</g>
	<g class="st3">
		<text transform="matrix(1 0 0 1 153.9444 164.7642)" class="st4 st5 st6">Hetero</text>
		<text transform="matrix(1 0 0 1 170.7676 226.0977)" class="st4 st5 st6">Nano</text>
		<text transform="matrix(1 0 0 1 175.9619 286.0972)" class="st4 st5 st6">Carb</text>
		<text transform="matrix(1 0 0 1 183.7612 338.7642)" class="st4 st5 st7">2019</text>
	</g>
	<g id="Layer_2">
		<path class="st8" d="M293.6,148c-0.8,7.7,2,14.4,6.2,14.8c4.2,0.4,8.3-5.5,9.1-13.2c0.8-7.7-2-14.4-6.2-14.8
			C298.5,134.4,294.4,140.3,293.6,148z"/>
		<path class="st9" d="M276.8,207.1c0,7.7,3.8,13.9,8.5,13.9c4.7,0,8.5-6.2,8.5-13.9c0-7.7-3.8-13.9-8.5-13.9
			C280.6,193.2,276.8,199.4,276.8,207.1z"/>
		<path class="st8" d="M198.4,142.1c0-2.9,2.3-5.2,5.2-5.2c2.9,0,5.2,2.3,5.2,5.2c0,2.9-2.3,5.2-5.2,5.2
			C200.7,147.3,198.4,145,198.4,142.1z"/>
		<path class="st10" d="M252.5,142.1c0-2.4,2.1-4.4,4.7-4.4c2.6,0,4.7,2,4.7,4.4c0,2.4-2.1,4.4-4.7,4.4
			C254.6,146.5,252.5,144.5,252.5,142.1z"/>
		<path class="st11" d="M215.8,205.6c-2.6,6-2,12.1,1.2,13.4c3.3,1.4,8-2.4,10.5-8.4c2.6-6,2-12.1-1.2-13.4
			C223,195.8,218.3,199.6,215.8,205.6z"/>
		<path class="st12" d="M268,264.8c0,4.9,3.6,8.9,8,8.9c4.4,0,8-4,8-8.9c0-4.9-3.6-8.9-8-8.9C271.6,256,268,259.9,268,264.8z"/>
		
			<ellipse transform="matrix(0.1771 -0.9842 0.9842 0.1771 -130.418 480.7011)" class="st13" cx="222.2" cy="318.3" rx="16.2" ry="6.1"/>
		<path class="st8" d="M213.8,264.9c-2.6,6-2,12.1,1.2,13.4c3.3,1.4,8-2.4,10.5-8.4c2.6-6,2-12.1-1.2-13.4
			C221,255.1,216.3,258.9,213.8,264.9z"/>
	</g>
	<g>
		<g>
			<path d="M188.5,156.8c-0.6,3.4-1.8,5.4-3.5,6.1c-0.5-0.6-1.9-1.2-4-1.7c-1.8-0.4-2.9-1.5-3.4-3.1c-0.5-1.8-0.9-4.2-1-7.3
				c-0.1-2.5-0.3-5.1-0.4-7.6l-1.2-1.4c-1.8,0.1-3.5,0.3-5.3,0.4c-2.2,0.2-3.8,0.6-5,1.2c0,0.4-0.1,0.8-0.2,1.3
				c-0.1,0.5-0.2,0.8-0.2,1c0,0.4,0.1,0.8,0.4,1.2c-0.2,1-0.4,2.1-0.4,3.2c0,1,0.1,2.4,0.3,4.2c0.2,1.9,0.3,3.3,0.4,4.1
				c-0.6,0.7-0.9,1.2-0.9,1.4c0,0.2,0.1,0.4,0.3,0.6c0,0-0.4,0.7-1.3,2c-0.5,0.8-1.1,1.3-1.7,1.4c-0.5,0.1-1.1-0.1-1.8-0.6
				c-0.7-0.5-1.2-0.8-1.5-0.8c-0.4,0-0.8,0.2-1.2,0.7c-0.7-0.2-1-0.9-1.1-2.1c-0.1-1.2-0.4-2-1-2.3c-0.1-1.8,0-4.2,0.1-7.1
				c0.3-4.5,0.4-6.9,0.4-7.2c0.5-2.4,0.8-5.4,0.8-8.8c0-1.1,0-2.6-0.1-4.7c-0.1-2.1-0.1-3.7-0.1-4.7c0-2.4,0.1-4.4,0.4-6.3
				c0.1,0,0.3-0.1,0.6-0.4c-0.4-0.3-0.6-0.8-0.6-1.4c0-0.7,0.3-1.7,0.9-3c0.4-0.3,0.6-0.9,0.6-1.7c0-0.9,0.1-1.4,0.3-1.7
				c0.2,0.1,0.3,0.2,0.4,0.4c0,0.1,0,0.3,0,0.6c0,0.3-0.1,0.6-0.1,0.7l0.9,6.5h0.3c0-0.6,0.1-1.5,0.3-2.7c0.2-1.2,0.3-2.2,0.3-2.9
				c0-0.8-0.1-1.6-0.3-2.2c0.1-0.2,0.4-0.4,0.9-0.4l1.5,2.4c0.2,1.8,0.6,5.5,1.1,11.2c0.4,4.7,1,8.3,1.6,10.9
				c2.5-0.2,4.5-0.4,5.8-0.4c2.2,0,4,0.2,5.4,0.7c0.4-1.1,0.6-2.7,0.6-4.8c0-2.6,0.1-4.3,0.2-5c0.3-2.2,0.6-4.4,0.9-6.6
				c0.4-2.5,1.2-4.5,2.3-6c-0.1-0.2-0.1-0.4-0.1-0.5c0-0.3,0.1-0.6,0.4-1c0.3-0.4,0.4-0.7,0.4-1c0-0.1,0-0.3-0.1-0.5
				c1.2-0.1,1.9,0.2,2.4,1c0.1-0.2,0.4-0.4,0.9-0.4c0,0.2-0.1,1.7-0.3,4.5c-0.1,0.5-0.1,1,0.1,1.6c0.3,0.9,0.5,1.4,0.5,1.4
				c0.2-0.1,0.3-0.5,0.3-1c0-0.5,0.1-0.9,0.3-1c0.3,0.1,0.6,0.5,0.7,1.2c0.3,1,0.4,1.5,0.4,1.6c0.2-0.5,0.4-1,0.4-1.5
				c0-0.5-0.2-1.4-0.7-2.7c-0.5-1.2-0.6-2.1-0.5-3c1.4,1.7,2.2,4.4,2.4,8c0.1,3,0.3,6,0.4,9.1c0.3,2.1,0.4,4.4,0.4,6.9
				c0,0.6-0.1,3.9-0.2,9.9C188.1,150.8,188.2,154.1,188.5,156.8z M160.1,158.4c-0.2-0.8-0.3-2-0.3-3.6c0-1.6-0.1-2.8-0.3-3.6
				c-0.2,0.5-0.4,1.7-0.7,3.5c-0.2,1.4-0.6,2.5-1.1,3.2c-0.2-1.2-0.4-2.4-0.4-3.9c0-1.4,0.1-2.7,0.4-3.9c-0.6,2.6-0.9,4.9-0.9,6.9
				c0,1.2,0.1,2.2,0.3,3.2c0.1,0.6,0.8,1.2,2.1,1.7l-0.4-0.4c0,0,0.2-0.6,0.4-1.9C159.4,159.1,159.7,158.6,160.1,158.4z
				 M160.7,122.7c0-1.1-0.1-1.7-0.3-2v2.4L160.7,122.7z M161.6,121.1v-1.7h-0.3v1.7H161.6z M175.8,139.1c-0.2,0-0.5-0.1-0.7-0.1
				c-0.3,0-1,0.1-1.9,0.3c-0.7,0.2-1.3,0.2-1.9,0.1c-1,1.2-2.5,1.8-4.6,1.8c-0.7,0-1.6-0.1-2.7-0.2c-1.2-0.1-2.1-0.2-2.5-0.2
				l-0.3,0.3c1.5,0.5,3.2,0.8,5,0.8c1.9,0,3.6-0.3,5-0.8C172.5,140.8,174,140.1,175.8,139.1z M162.5,120.7c-0.2,0.3-0.4,0.8-0.4,1.4
				c0,1,0.1,1.6,0.1,1.7c0.2-0.5,0.3-1.1,0.3-1.9c0-0.7-0.1-1.2-0.3-1.6L162.5,120.7z M179.6,149.6l-0.3,0.4c-0.7-0.1-1-0.8-0.9-1.9
				l0.1-2.8c0-0.1,0,0.9,0,3c0,1.2-0.2,2.2-0.6,2.7c0.2,0,0.5-0.2,0.9-0.6C179.1,149.9,179.4,149.6,179.6,149.6z M185.3,158.1
				c0,0.4-0.1,1.1-0.6,2.1c-0.5-0.9-1-2.2-1.5-4.1c0.1,0.7,0,1.6-0.3,2.7c-0.6-0.8-0.9-3-0.9-6.5v5.1c0.2,0.8,0.5,1.6,0.8,2.4
				c0.3,0.8,0.9,1.1,1.8,0.9c0.4-0.1,0.6-0.5,0.6-1.1C185.3,158.6,185.3,158,185.3,158.1z"/>
			<path d="M217.6,152.1c-0.1,0.2-0.3,0.4-0.4,0.4c0,0-0.2-0.1-0.4-0.2c-0.2-0.1-0.3-0.2-0.4-0.2c-0.1,0-0.2,0-0.3,0.1
				c-0.1,0.9-0.4,2.2-0.9,3.9c-0.2-0.2-0.4-0.3-0.6-0.3c-0.2,0-0.4,0.1-0.7,0.4c-0.4,0.5-0.6,0.7-0.6,0.8c0,0.1,0,0.3,0.3,0.6
				c0.8-0.7,1.3-1,1.7-0.9l0.3,0.4c-3.2,4.8-7.8,7.3-13.9,7.3c-0.7,0-1.5,0-2.2-0.1l-3.2-1.3c-1.3-0.5-2.1-1.2-2.4-2.3
				c-0.2,0.2-0.5,0.4-0.7,0.4c-0.5,0-1.1-0.5-1.6-1.5c0.1-0.3,0.1-0.6,0.1-0.8c0-0.6-0.5-1.6-1.5-3.1c-0.5-1.2-0.7-2.5-0.7-3.7
				c0-2.2,0.8-4.7,2.4-7.4c1.4-2.3,2.9-4.5,4.2-6.7h0.6l-1.7,4.4c-0.6,1.8-0.9,3.4-0.9,4.7c0,1.1,0.2,2.1,0.6,3.1
				c0.1,0,0.3,0,0.6-0.3c0-0.7,0.1-2.5,0.6-5.3c1-3.1,2.5-5.9,4.5-8.4c-0.1-0.2-0.2-0.4-0.4-0.4c-0.1,0-0.4,0.2-0.8,0.6l-0.8,0.9
				c-0.2-0.8,0-1.4,0.7-1.9c0.6-0.5,1.3-0.9,1.8-1.4c0.2,0.1,0.5,0.2,0.8,0.2c-0.4,0,0.3-0.2,2-0.5c-0.3,1-0.4,1.3-0.4,0.9
				c0,0.2,0.1,0.4,0.4,0.5c0.6-0.8,1.3-1.2,2.2-1.2c0.6,0,1.5,0.3,2.6,0.9c1.2,0.7,2.1,1.1,2.6,1.2c3,1.7,4.4,3.9,4.2,6.6
				c-0.1,1.7-1.5,3.7-4.2,6c-0.6,0-1.2,0.2-2,0.8c-0.8,0.6-1.4,0.9-1.9,1c-0.5,0.1-0.9,0.1-1.3,0.1c-1,0-2.9-0.7-5.5-2.2l-1.4-2.4
				c-0.8,0.8-1.2,1.9-1.2,3.2c0,0.7,0.1,1.7,0.4,2.8c0.3,1.4,0.5,2.3,0.5,2.7c1.2,1.2,2.6,1.8,4.3,1.8c0.9,0,2.3-0.2,4.2-0.6
				c1.9-0.4,3.3-0.6,4.2-0.5c0.5-0.2,1.4-0.9,2.9-1.9c1.2-0.9,2.2-1.3,3.1-1.4C217.5,151.8,217.6,152,217.6,152.1z M201.5,136.3
				c-0.4,0.4-0.8,0.9-1.2,1.3c-0.4,0.5-0.9,0.7-1.3,0.8c-0.5,1.6-0.9,3.2-1.4,4.8c-0.6,1.9-0.9,3.5-0.9,4.9c0,1,0.1,1.9,0.3,2.9
				c-0.2-0.9-0.3-1.8-0.3-2.7C196.6,144.8,198.2,140.8,201.5,136.3z M206,161.4c-0.5,0-1.7,0.3-3.6,0.8c-1.5,0.3-2.7,0.5-3.7,0.5
				c-0.5,0-1,0-1.4-0.1c0.7,0.2,1.5,0.4,2.3,0.4C200.6,162.9,202.8,162.4,206,161.4z M209.7,146.5c-0.1-1.8-0.9-3.5-2.2-5
				c-1.2-1.4-2.7-2.4-4.4-3c-1.5,0.5-2.6,2.1-3.4,4.8l2-0.3c0.6,0.2,1.4,0.3,2.4,0.3c1,0,1.8,0.1,2.3,0.3c-0.2-0.2-0.3-0.4-0.3-0.6
				c0-0.2,0.1-0.4,0.3-0.8c0.2-0.3,0.3-0.6,0.3-0.8c0.8,0.9,1.5,2.9,2,6L209.7,146.5z"/>
			<path d="M242.7,135.7c-0.3-1.1-0.8-1.6-1.5-1.6c-0.1,0-0.3,0-0.5,0.1l-0.3,0.4l1.3,1.1l-2,1.9c0.2,0.2,0.5,0.4,0.9,0.4
				c0.7,0,1,0,1.1,0l0.4-0.4v0.7c-1.7,0.7-3.5,1.4-5.2,2.1c-2.1,0.9-3.7,1.8-4.9,3l0.3,5.4c0-0.1-0.1-1-0.4-2.7
				c-0.2-1.1-0.5-1.9-0.9-2.3c-0.2,1.4-0.4,3-0.4,4.6c0,2.4,0.3,5.9,1,10.6c0.1-0.2,0.4-0.4,1-0.4c0,0.1-0.2,0.3-0.6,0.6
				c-0.3,0.3-0.5,0.6-0.5,0.8c0,0.1,0,0.2,0.1,0.4c0.9,0.3,1.4,0.9,1.4,1.8c0,0.3-0.1,1-0.4,1.9c-0.2,0.9-0.4,1.6-0.4,2.1
				c-0.2-0.3-0.3-0.6-0.3-0.7l0.3-0.4c-0.2-0.7-0.9-1.3-2.2-1.7c-1.1-0.3-1.6-1-1.5-2.2c-0.4-5.6-1.2-11.5-2.4-17.7
				c-0.7-0.4-2-1-3.9-1.6c-1.7-0.5-3-1.1-3.8-1.7l0.6-0.7c-1.7-1-2.7-2.5-3-4.4l1-1.1c1.3-0.1,2.7-0.3,4-0.5
				c1.6-0.2,2.9-0.6,3.7-1.3c-0.3-2.3-0.4-5-0.4-8.2c0-5.1,0-7.9,0-8.4l0.4-1.4c0.2,0.7,0.6,1.4,1.2,2.2c0.9,1.3,1.4,2,1.4,2.1
				c0.2-0.1,0.4-0.3,0.4-0.6c0-0.5,0-0.8,0-0.9l0.6,0.7l2,13.8l0.6,0.7c1.7-0.2,3.5-0.4,5.4-0.4c1.9,0,3.7,0.1,5.4,0.4
				c0,0.6,0.1,1,0.4,1.1l0.3-0.4c0.3,0.2,0.4,0.6,0.4,1.4C243.2,134.8,243,135.3,242.7,135.7z"/>
			<path d="M269.8,152.1c-0.1,0.2-0.3,0.4-0.4,0.4c0,0-0.2-0.1-0.4-0.2c-0.2-0.1-0.3-0.2-0.4-0.2c-0.1,0-0.2,0-0.3,0.1
				c-0.1,0.9-0.4,2.2-0.9,3.9c-0.2-0.2-0.4-0.3-0.6-0.3c-0.2,0-0.4,0.1-0.7,0.4c-0.4,0.5-0.6,0.7-0.6,0.8c0,0.1,0,0.3,0.3,0.6
				c0.8-0.7,1.3-1,1.7-0.9l0.3,0.4c-3.2,4.8-7.8,7.3-13.9,7.3c-0.7,0-1.5,0-2.2-0.1l-3.2-1.3c-1.3-0.5-2.1-1.2-2.4-2.3
				c-0.2,0.2-0.5,0.4-0.7,0.4c-0.5,0-1.1-0.5-1.6-1.5c0.1-0.3,0.1-0.6,0.1-0.8c0-0.6-0.5-1.6-1.5-3.1c-0.5-1.2-0.7-2.5-0.7-3.7
				c0-2.2,0.8-4.7,2.4-7.4c1.4-2.3,2.9-4.5,4.2-6.7h0.6l-1.7,4.4c-0.6,1.8-0.9,3.4-0.9,4.7c0,1.1,0.2,2.1,0.6,3.1
				c0.1,0,0.3,0,0.6-0.3c0-0.7,0.1-2.5,0.6-5.3c1-3.1,2.5-5.9,4.5-8.4c-0.1-0.2-0.2-0.4-0.4-0.4c-0.1,0-0.4,0.2-0.8,0.6l-0.8,0.9
				c-0.2-0.8,0-1.4,0.7-1.9c0.6-0.5,1.3-0.9,1.8-1.4c0.2,0.1,0.5,0.2,0.8,0.2c-0.4,0,0.3-0.2,2-0.5c-0.3,1-0.4,1.3-0.4,0.9
				c0,0.2,0.1,0.4,0.4,0.5c0.6-0.8,1.3-1.2,2.2-1.2c0.6,0,1.5,0.3,2.6,0.9c1.2,0.7,2.1,1.1,2.6,1.2c3,1.7,4.4,3.9,4.2,6.6
				c-0.1,1.7-1.5,3.7-4.2,6c-0.6,0-1.2,0.2-2,0.8c-0.8,0.6-1.4,0.9-1.9,1c-0.5,0.1-0.9,0.1-1.3,0.1c-1,0-2.9-0.7-5.5-2.2l-1.4-2.4
				c-0.8,0.8-1.2,1.9-1.2,3.2c0,0.7,0.1,1.7,0.4,2.8c0.3,1.4,0.5,2.3,0.5,2.7c1.2,1.2,2.6,1.8,4.3,1.8c0.9,0,2.3-0.2,4.2-0.6
				c1.9-0.4,3.3-0.6,4.2-0.5c0.5-0.2,1.4-0.9,2.9-1.9c1.2-0.9,2.2-1.3,3.1-1.4C269.7,151.8,269.8,152,269.8,152.1z M253.7,136.3
				c-0.4,0.4-0.8,0.9-1.2,1.3c-0.4,0.5-0.9,0.7-1.3,0.8c-0.5,1.6-0.9,3.2-1.4,4.8c-0.6,1.9-0.9,3.5-0.9,4.9c0,1,0.1,1.9,0.3,2.9
				c-0.2-0.9-0.3-1.8-0.3-2.7C248.8,144.8,250.4,140.8,253.7,136.3z M258.2,161.4c-0.5,0-1.7,0.3-3.6,0.8c-1.5,0.3-2.7,0.5-3.7,0.5
				c-0.5,0-1,0-1.4-0.1c0.7,0.2,1.5,0.4,2.3,0.4C252.8,162.9,255,162.4,258.2,161.4z M261.9,146.5c-0.1-1.8-0.9-3.5-2.2-5
				c-1.2-1.4-2.7-2.4-4.4-3c-1.5,0.5-2.6,2.1-3.4,4.8l2-0.3c0.6,0.2,1.4,0.3,2.4,0.3c1,0,1.8,0.1,2.3,0.3c-0.2-0.2-0.3-0.4-0.3-0.6
				c0-0.2,0.1-0.4,0.3-0.8c0.2-0.3,0.3-0.6,0.3-0.8c0.8,0.9,1.5,2.9,2,6L261.9,146.5z"/>
			<path d="M292.7,138l-0.9,3.8c-0.5,0.2-1.1,0.3-1.6,0.3c-0.7,0-1.7-0.2-3.1-0.7c-1.3-0.5-2.3-0.7-3.1-0.7c-0.5,0-1.1,0.1-1.6,0.2
				c-1.8,1.4-2.7,3.5-2.7,6c0,1,0.2,2.5,0.5,4.6c0.3,2.1,0.5,3.6,0.4,4.6c1,1.8,1.5,3.2,1.5,4c0,1.1-0.4,2.1-1.3,3
				c-0.8,1-1.8,1.5-2.8,1.6c-1.8-1-3-2.4-3.6-4.3c-0.4-1.3-0.6-3.2-0.6-5.6c0-0.2,0-0.6,0-1.1c0-0.5,0-0.8,0-1.1
				c0-3.6-0.6-6.3-1.7-8l0.6-0.6l-0.9-0.9c0.2-0.1,0.3-0.3,0.3-0.5c0-0.1-0.1-0.4-0.4-0.8c-0.3-0.4-0.4-0.7-0.4-0.9
				c0-2.4,0.2-4.2,0.9-5.4c0.1,0.2,0.3,0.4,0.4,0.4c0.1,0,0.3-0.1,0.5-0.4c0.2-0.2,0.4-0.4,0.6-0.4c0.8,1.5,1.7,2.3,2.7,2.3
				c0.7,0,1.9-0.6,3.5-1.9c1.6-1.2,2.9-1.8,3.9-1.7C288.3,133.9,291.2,135.3,292.7,138z"/>
			<path d="M311.8,145.6c-0.4,6.6-2.9,12.4-7.3,17.4l-1.8,0.6c3.4-3,5.5-5.9,6.3-8.9c-0.3-0.3-0.5-0.4-0.6-0.3c0-0.8,0.4-1.8,1-2.9
				c0.6-1.1,1-2,1.1-2.6c-1.1-2.1-2.2-4.1-3.3-6.2c-1.5-2.3-3.1-3.7-4.8-4.3c-0.2,0-0.4-0.3-0.6-0.8c-0.2-0.5-0.3-0.7-0.4-0.7
				c-0.1,0-0.3,0.1-0.5,0.4l0.3,0.4c-0.1,0-1.2,0.3-3.4,0.7c-1.3,0.3-2.4,0.8-3.2,1.7c0,0.6,0.3,1.4,0.8,2.4c0.5,1,0.8,1.8,0.8,2.2
				c0,0.4-0.1,0.8-0.4,1.2c0,0.8-0.1,1.9-0.3,3.4c-0.2,1.5-0.3,2.5-0.3,3.2c0,1.9,0.6,3.3,1.7,4.4c2.2-0.3,4.2-1.2,6-2.7
				c1.8-1.5,3-3.5,3.7-5.8c0.1,0.6,0.1,1.2,0.1,1.7c0,2.1-0.9,4-2.6,5.9c-1.6,1.4-3.2,2.8-4.8,4.2c-0.4,0.2-1.1,0.3-2.1,0.4
				c0-0.1,0-0.4,0.3-0.7c-0.2-0.2-0.5-0.4-0.9-0.4c-0.6,0-0.9,0-0.9,0c-0.6,0.7-0.9,1-1,1.1c-0.4,0.4-0.8,0.6-1.2,0.6
				c-1.5-1.1-2.4-2.9-2.8-5.4c-0.1-1-0.2-3.2-0.2-6.5c0.8-0.3,1.2-1.1,1.4-2.3c0.2-1.2,0.5-1.9,1-2.2c-0.3-0.5-0.4-1-0.4-1.5
				c0-0.4,0.1-1,0.4-1.8c0.2-0.8,0.4-1.4,0.4-1.8c1.4-1.6,2.8-3.3,4.1-4.9c1.7-1.8,3.5-2.7,5.2-2.7c0.3,0,0.7,0,1,0.1
				C309.3,136.4,312.1,140.8,311.8,145.6z M301.2,164c-0.2,0.5-0.6,0.7-1.2,0.7c-1.1,0-1.6-0.1-1.5-0.1c-0.2-0.3-0.8-0.6-1.8-0.9
				c-1-0.3-1.6-0.7-1.8-1.1c1.2,0.1,2.8,0,4.8-0.4c0.2-0.1,0.4-0.1,0.5-0.1C300.6,162.1,300.9,162.7,301.2,164z M306,136.1v-0.4
				c-0.4-0.7-1-1-1.8-1L306,136.1z"/>
		</g>
		<g>
			<path d="M173.9,196.7l-0.6,0.7c0,1.3,0.2,3.8,0.6,7.6c0.3,3.4,0.4,6,0.4,7.9c0,4-0.6,7.4-1.7,10.1c-0.7-0.7-1-1.5-1-2.4
				c0-0.5,0.1-1.2,0.4-2.2c0.3-1.1,0.5-1.8,0.6-2.2c0.4-2.5,0.6-5.4,0.6-8.6c0-1.9-0.1-4.8-0.3-8.7c-0.2-3.9-0.3-6.8-0.3-8.7
				c0,0.1,0.1,0.4,0.4,0.7c0.1,0,0.3-0.1,0.6-0.4c0.5,1.6,0.5,3,0,4.3c0.2,0.1,0.4,0.4,0.4,0.9C174,196.3,173.9,196.6,173.9,196.7z
				 M207.8,221.6c-0.2,0-0.7,0.1-1.7,0.3c-0.7,0.1-1.3,0.2-1.7,0.2c-1.3,0-2.3-0.5-2.7-1.6c-3.6-1.4-5.9-3.4-6.8-6.1
				c-0.3-1.7-1.4-3.6-3.4-5.6c-2.3-2.4-3.6-4.2-4.1-5.3c-1.4-2.1-2.9-5.3-4.4-9.5c-1.6-4.7-3-7.9-4-9.6c-0.9,1.2-1.4,3.2-1.4,5.8
				c0,0.4,0,1.1,0.1,1.9c0,0.9,0,1.5,0,1.9c0,1.4-0.1,2.6-0.3,3.5c-0.1,1.9,0,4.7,0.5,8.3c0.5,4,0.8,6.8,0.8,8.4
				c0,3.8-0.9,6.9-2.6,9.3c-0.2,0-0.5,0.2-0.8,0.4c-0.3,0.2-0.6,0.4-0.8,0.4c-0.1,0-0.3,0-0.4-0.1c0.7-3.7,1-8.3,1-13.7
				c0-1.2-0.1-6-0.4-14.5l0.3,0.4c0.4-1.3,0.4-3.6,0.1-6.8c-0.2-2.9,0-5.1,0.9-6.6c0.1-0.3,0.1-0.6,0.1-0.8c0-0.4-0.3-0.8-0.8-1.1
				c-0.5-0.4-0.9-0.7-1-1c-1.1,0.5-1.7,1.6-1.9,3.2c0,1.4,0,2.9-0.1,4.3c-0.2-0.5-0.3-1.2-0.3-1.9c0-0.4,0.1-1.1,0.2-2
				c0.1-0.9,0.2-1.6,0.2-2c0-0.3,0-0.6-0.1-0.9c0.1-1.1,0.5-2.4,1.2-3.7c1.1-2.2,1.6-3.3,1.7-3.5c0.8,0.1,1.6,0.6,2.4,1.7
				c0.7,0.8,1.3,1.5,2,2.3c0.1-0.6-0.1-1.5-0.7-2.6c-0.7-1.3-1.1-2.3-1.2-2.8c0.2-0.2,0.5-0.4,0.9-0.4c0.3,0,0.7,0.1,1.2,0.4
				c0.5,0.2,0.9,0.4,1.1,0.4c0,0.2,0.2,0.6,0.6,1.1c-0.2,0.4-0.3,0.6-0.3,0.7c1.4,0.6,2.6,1.9,3.6,4c1.7,3.4,2.5,5.1,2.5,5.1
				c1.2,3.1,2.4,6.3,3.7,9.4c1.6,3.6,3.7,6,6.3,7.2c0.7-5.1,1.6-12.8,2.6-23.2c0,2.7-0.2,6.8-0.6,12.3c-0.4,5.7-0.6,9.9-0.6,12.6
				c0,5.4,0.6,10,1.9,13.8c-0.4,1.1-0.2,1.9,0.6,2.5c0.1,0,0.7-0.2,1.8-0.5c0.8-0.2,1.3-0.6,1.7-0.9l-0.6-1.8c0.2,0,0.5-0.2,0.9-0.7
				c0-2.2-0.1-5.2-0.4-9.1c-0.3-4.1-0.5-7-0.5-8.8c0-2.4,0.2-4.7,0.6-6.8l-0.4-0.4l-0.6,0.7c-0.5,3.2-0.7,6.6-0.7,10.3
				c0,3.6,0.2,7.1,0.7,10.3l-0.3,2.9c-0.6-0.3-1-1.2-1.2-2.4c-0.2-1.5-0.5-2.5-0.8-3c-0.2,1.1-0.4,2.2-0.4,3.5
				c0,1.2,0.1,2.4,0.4,3.5c-0.7-0.7-1-1.7-1-3c0-0.8,0.1-1.7,0.4-2.8l0.4-0.4c-0.8-2.8-1.2-6-1.2-9.4c0-2.5,0.3-6.2,0.9-11.2
				c0.6-5,0.9-8.7,0.9-11.2c0-2.6-0.2-5-0.6-7.2l0.6-0.7c0.3,0.4,0.6,1.4,0.8,2.8c0.1,1.2,0.5,2.1,1.1,2.6c0.7-0.2,1-0.8,1-1.8
				c0-0.8,0-1.7,0-2.5l-0.4-0.4c2.3,6,3.4,13.3,3.4,22.2c0,4.6-0.4,10.9-1.1,19c0,0.6,0,1.5,0.3,2.7c0.2,1.2,0.4,2,0.4,2.5
				c0,1.2-0.6,2.2-1.7,2.8c0.1,0.2,0.3,0.4,0.6,0.4h0.7c-0.2,0.2-0.3,0.5-0.3,0.8C207.2,220,207.4,220.6,207.8,221.6z M190.1,194.1
				c-0.9-1.5-1.9-3.9-3.2-7.2c-1.2-3.3-2.3-5.7-3.2-7.2c1,2.4,1.9,4.9,2.8,7.3C187.6,190,188.8,192.3,190.1,194.1z M196.8,208.9
				c0-0.5,0.1-1,0.1-1.4c0-0.5-0.2-0.9-0.7-1.1l-0.3,1.8c0,0.3,0,0.5,0.3,0.6C196.4,209,196.6,209,196.8,208.9z M204.3,184.7
				C204.3,184.8,204.3,184.8,204.3,184.7c0,0,0-0.7,0-2.2c0-0.9-0.2-1.5-0.6-1.8c0.2-0.1,0.3-0.4,0.3-0.9V179h-0.3l-0.4,6.5
				c0.2,0,0.4-0.1,0.6-0.3C204.1,184.8,204.3,184.7,204.3,184.7z M206.2,220.5c-0.2,0.1-0.6,0.1-1.1,0c-0.6-0.1-0.9-0.1-1.1,0
				c-0.3,0.1-0.4,0.5-0.3,1.1C204.9,221.8,205.8,221.5,206.2,220.5z M204.2,177.1l0.1-1.1c0-0.4-0.1-0.7-0.4-0.7v2.2L204.2,177.1z
				 M205.9,217.6l-1,1.1l0.4,0.4C205.8,218.4,206,218,205.9,217.6z"/>
			<path d="M243.1,220.4c-0.8,1.4-1.9,2.5-3.2,3.5c-0.9-0.1-1.8-0.7-2.5-1.7c-0.3,0.2-0.6,0.4-0.9,0.4c-0.3,0-0.7-0.2-1.3-0.5
				c-0.6-0.3-1-0.5-1.2-0.5c-1.4-0.8-3.2-2.7-5.3-5.6c-0.8,0.5-2,1.5-3.5,2.8l0.3-3.2l0.6,0.7c0.3-0.7,0.6-1.7,0.8-3
				c0.3-2,0.4-3.1,0.4-3.2c0.1-0.3,0.1-0.6-0.1-0.9l-0.4-0.8c-1,1.1-2,3.1-3,6c-1,2.9-2,5-3,6.2c0.3,0.3,0.6,0.4,0.6,0.4l0.4-0.4
				l0.3,0.4c-0.8,1.6-2,2.7-3.7,3.1c-1.6,0.2-3.2,0.5-4.8,0.7c-2.9-2.3-4.3-5.7-4.3-10.3c0-5.9,1.4-11,4.3-15.5l0.6,0.7
				c0.3-0.3,0.5-0.4,0.6-0.4c-1.1,3-1.8,7.8-2.2,14.3c0.1,0.1,0.2,0.5,0.3,1c0,0.6,0.2,0.9,0.6,1l0.3-0.3c0.1,0.3,0.3,0.8,0.6,1.4
				c0-0.9,0-1.8,0-2.7c0-2.7,0.6-5.8,1.7-9.2c1-2.9,1.9-5.8,2.9-8.6c-0.2-0.5-0.5-0.7-0.7-0.7c-0.2,0-0.5,0.2-0.9,0.5
				c-0.4,0.3-0.7,0.5-0.9,0.5c-0.2,0-0.4-0.1-0.6-0.2c2.4-2.6,5.5-3.9,9.4-3.9c1.2,0,2.5,0.1,3.8,0.4c1.8,0.4,3.4,2,4.8,4.9
				c0,0,0,0.5,0,1.6c0,0.6-0.2,1-0.6,1.2c1.4,7.1,3.3,12.4,5.7,16c-2.8-2.6-5-6.9-6.6-12.9c-0.1,0.6-0.1,1.2-0.1,1.7
				c0,4.6,2.3,8.6,6.8,12.2l1.9,1c-0.5,0-0.8,0.1-0.9,0.4C240.6,219.6,241.8,220.1,243.1,220.4z M218.9,222.5
				c-0.5,0-1.1,0.1-1.6,0.2c-0.7,0.1-1.1,0.4-1.2,0.9L218.9,222.5z M228.4,202.4c0-1.9-1.1-2.8-3-2.8c-0.7,0-1.5,0.1-2.4,0.4
				c-2.1,1.9-3.5,4.6-4.4,8.3c-0.5,3.3-1.1,6.5-1.6,9.8l1.6,0.4c2.1-0.8,3.7-2.8,4.8-6c1.3-4.1,2.5-6.6,3.4-7.6
				c0.2,0.1,0.3,0.4,0.3,1l0.3-0.4c0-0.2,0-0.4,0-0.6c0-0.4,0.2-0.9,0.5-1.5C228.1,202.8,228.3,202.5,228.4,202.4z M241.3,221.8
				c-0.9-0.1-2,0-3.5,0.4c1.5,0.2,2.2,0.4,2,0.4C240.4,222.5,240.9,222.3,241.3,221.8z"/>
			<path d="M271.7,222.2c-0.9-0.2-1.7,0.2-2.2,1.2c-1.2-0.8-2.2-1.5-2.7-1.9c-1.1-1-1.8-2-2.1-3.2c-0.5-1.1-0.8-2.8-0.9-5.2
				c-0.2-2.6-0.4-4.3-0.6-5.3c-0.5-1.8-1.4-3.1-2.9-4c-3-0.2-5.1,0.3-6.3,1.5c-3,3.4-4.5,9.1-4.5,17.2c-1.1,1-2.4,1.1-3.9,0.4
				c-1.5-0.8-2.4-2.9-2.9-6.3c0-0.9,0-2.4,0-4.7c0.6-1.7,1-4,1-6.9c0-2.4,0-4.8,0-7.1c0.1-2.5,0.4-4.6,0.9-6.2
				c0.2-0.1,0.4-0.2,0.6-0.2c0.4,0,0.7,0.2,0.9,0.7c0.2,0.5,0.5,1,0.7,1.4c0,2.7-0.2,6-0.6,10c-0.3,3.2-0.6,6.3-0.9,9.5
				c1.5-2.1,2.4-5.2,2.5-9.4c0-3.6,0-7.2,0-10.9c0.6,0.2,1,0.8,1.2,1.9c0.2,1.2,0.5,2,0.8,2.4c3.3-2.3,6.6-3.4,10-3.4
				c3.2,0,5.8,1.1,7.8,3.4c3.6,3.9,5.5,9.3,5.5,16C273,216.4,272.6,219.4,271.7,222.2z M246.2,221.1v-1.2h-0.6L246.2,221.1z
				 M254.1,203.1c-0.8,0.1-2.2,0.7-4.2,1.9c0.1,0.1,0.2,0.3,0.2,0.6c0,0.2-0.1,0.5-0.2,0.8c-0.1,0.4-0.2,0.6-0.2,0.8
				c0,0.3,0.2,0.6,0.6,0.9c0.1-0.1,0.7-1,1.8-2.8C252.7,204.3,253.4,203.6,254.1,203.1z M251,197.3l-1,0.7h0.4L251,197.3z
				 M259.3,202.4c-1.5-0.9-3.1-1.4-4.9-1.4c-1.7,0-3.1,0.5-4.4,1.4c2.2-0.5,4-0.8,5.4-0.8C256.9,201.6,258.2,201.8,259.3,202.4z"/>
			<path d="M295.8,204.9c-0.4,6.6-2.9,12.4-7.3,17.4l-1.8,0.6c3.4-3,5.5-5.9,6.3-8.9c-0.3-0.3-0.5-0.4-0.6-0.3c0-0.8,0.4-1.8,1-2.9
				c0.6-1.1,1-2,1.1-2.6c-1.1-2.1-2.2-4.1-3.3-6.2c-1.5-2.3-3.1-3.7-4.8-4.3c-0.2,0-0.4-0.3-0.6-0.8c-0.2-0.5-0.3-0.7-0.4-0.7
				c-0.1,0-0.3,0.1-0.5,0.4l0.3,0.4c-0.1,0-1.2,0.3-3.4,0.7c-1.3,0.3-2.4,0.8-3.2,1.7c0,0.6,0.3,1.4,0.8,2.4c0.5,1,0.8,1.8,0.8,2.2
				c0,0.4-0.1,0.8-0.4,1.2c0,0.8-0.1,1.9-0.3,3.4c-0.2,1.5-0.3,2.5-0.3,3.2c0,1.9,0.6,3.3,1.7,4.4c2.2-0.3,4.2-1.2,6-2.7
				c1.8-1.5,3-3.5,3.7-5.8c0.1,0.6,0.1,1.2,0.1,1.7c0,2.1-0.9,4-2.6,5.9c-1.6,1.4-3.2,2.8-4.8,4.2c-0.4,0.2-1.1,0.3-2.1,0.4
				c0-0.1,0-0.4,0.3-0.7c-0.2-0.2-0.5-0.4-0.9-0.4c-0.6,0-0.9,0-0.9,0c-0.6,0.7-0.9,1-1,1.1c-0.4,0.4-0.8,0.6-1.2,0.6
				c-1.5-1.1-2.4-2.9-2.8-5.4c-0.1-1-0.2-3.2-0.2-6.5c0.8-0.3,1.2-1.1,1.4-2.3c0.2-1.2,0.5-1.9,1-2.2c-0.3-0.5-0.4-1-0.4-1.5
				c0-0.4,0.1-1,0.4-1.8c0.2-0.8,0.4-1.4,0.4-1.8c1.4-1.6,2.8-3.3,4.1-4.9c1.7-1.8,3.5-2.7,5.2-2.7c0.3,0,0.7,0,1,0.1
				C293.3,195.7,296,200.1,295.8,204.9z M285.2,223.3c-0.2,0.5-0.6,0.7-1.2,0.7c-1.1,0-1.6-0.1-1.5-0.1c-0.2-0.3-0.8-0.6-1.8-0.9
				c-1-0.3-1.6-0.7-1.8-1.1c1.2,0.1,2.8,0,4.8-0.4c0.2-0.1,0.4-0.1,0.5-0.1C284.5,221.4,284.9,222.1,285.2,223.3z M290,195.4v-0.4
				c-0.4-0.7-1-1-1.8-1L290,195.4z"/>
		</g>
		<g>
			<path d="M208.7,268.7c-0.8,2.1-1.5,4.1-2.3,6.1c-1,2.4-2.3,4.1-4.2,5c-2.8,1.7-5.7,2.6-8.7,2.6c-2.5,0-4.7-0.6-6.5-1.9
				c-0.1-0.5-0.5-0.7-0.9-0.6c-0.6,0-1-0.1-1.1-0.3c-3-2.4-5.1-5.9-6.4-10.2c-0.7-2.4-1.4-6.5-2.1-12.3c0.3-0.2,0.4-0.6,0.4-0.9
				c0-0.2-0.1-0.5-0.2-0.9c-0.1-0.4-0.2-0.7-0.2-1c0-0.2,0-0.4,0.1-0.6c0-1.2,0.4-2.7,0.9-4.4c0.8-2.3,1.3-3.7,1.4-4.2
				c0.4-0.7,1-1.8,1.6-3.2c0.6-1.5,1.2-2.6,1.6-3.2l0.6-0.6c-0.2-0.1-0.4-0.4-0.4-0.9h0.4c1.1-2.1,1.9-3.6,2.4-4.3
				c1.1-1.5,2.3-2.6,3.7-3.1c2.8,0.2,5.5,0.4,8.3,0.6c3.1,0.5,5.4,1.7,7,3.7c0.8,0.1,1.4,0.6,1.8,1.4c0.3,0.7,0.6,1.5,0.9,2.2
				c0.3,1.6,0,2.8-0.9,3.7c-1.5,0.2-2.4,0.4-2.6,0.4c-0.8,0-1.5-0.2-2.1-0.7c-2-2.8-3.9-4-5.9-3.7c-3.9,2-7.3,5.9-10,11.7
				c-0.6,0.4-0.9,0.9-0.9,1.4c0,0.2,0.1,0.5,0.3,0.7c-0.3,3.3-0.4,6.2-0.4,8.6c0,5.7,1.1,10.2,3.2,13.5l0.6,0.6
				c0.8-0.8,1.9-1.1,3.5-0.9l0.6,0.6c1.2-0.5,3.4-2,6.4-4.3l0.3,0.4c0.2-0.7,1-1.5,2.4-2.5c0.5,0,0.8,0.1,0.9,0.4
				c0,0.5-0.4,1-1.3,1.4c-0.8,0.4-1.3,0.8-1.3,1.2c0,0.3,0.1,0.6,0.4,1.1c1.3-1.8,3-2.6,5-2.4c0.5-0.4,0.7-0.9,0.6-1.6
				c-0.2-0.2-0.5-0.3-0.9-0.3c-0.7,0-1.1,0-1.2,0c0-0.2,0-0.4-0.1-0.5c-0.3-0.2-0.4-0.4-0.4-0.4c-0.3,0.3-0.5,0.4-0.6,0.4
				c1.2-0.7,2.1-1,3-1c0.7,0,1.3,0.2,1.7,0.6c0,0-0.1,0.2-0.3,0.4c-0.2,0.2-0.3,0.4-0.3,0.6c0.4,0.7,0.9,0.8,1.5,0.3L208.7,268.7z
				 M183.7,238.2c-1.4,1.5-2.5,3.6-3.1,6.3c-0.4,2.4-0.9,4.8-1.3,7.2l2-9.2c0.5-0.7,1.1-1.4,1.6-2.1
				C183.5,239.7,183.7,239,183.7,238.2z M187.8,236c-0.7,0.2-1.2,0.7-1.5,1.7c-0.3,0.9-0.6,1.8-0.8,2.7c-3,3.8-4.5,8.4-4.5,13.5
				c0,1,0,2,0.1,3.1c0-3,0.7-7.3,2.4-13c1.1-0.9,1.9-2.1,2.7-3.8C186.7,238.8,187.3,237.4,187.8,236z M197.6,273.3l-2.1,1.2h0.6
				L197.6,273.3z M206.3,269.3c-0.8,0.1-1.8,0.4-3.2,0.9l0.3,0.4l-3.8,4.6c0.7-0.1,1.3-0.6,1.9-1.4c0.7-1.1,1.3-1.7,1.7-1.9l0.6,0.6
				C204.3,271.6,205.1,270.6,206.3,269.3z"/>
			<path d="M241.4,279.4c-0.8,1.4-1.9,2.5-3.2,3.5c-0.9-0.1-1.8-0.7-2.5-1.7c-0.3,0.2-0.6,0.4-0.9,0.4c-0.3,0-0.7-0.2-1.3-0.5
				c-0.6-0.3-1-0.5-1.2-0.5c-1.4-0.8-3.2-2.7-5.3-5.6c-0.8,0.5-2,1.5-3.5,2.8l0.3-3.2l0.6,0.7c0.3-0.7,0.6-1.7,0.8-3
				c0.3-2,0.4-3.1,0.4-3.2c0.1-0.3,0.1-0.6-0.1-0.9l-0.4-0.8c-1,1.1-2,3.1-3,6c-1,2.9-2,5-3,6.2c0.3,0.3,0.6,0.4,0.6,0.4l0.4-0.4
				l0.3,0.4c-0.8,1.6-2,2.7-3.7,3.1c-1.6,0.2-3.2,0.5-4.8,0.7c-2.9-2.3-4.3-5.7-4.3-10.3c0-5.9,1.4-11,4.3-15.5l0.6,0.7
				c0.3-0.3,0.5-0.4,0.6-0.4c-1.1,3-1.8,7.8-2.2,14.3c0.1,0.1,0.2,0.5,0.3,1c0,0.6,0.2,0.9,0.6,1l0.3-0.3c0.1,0.3,0.3,0.8,0.6,1.4
				c0-0.9,0-1.8,0-2.7c0-2.7,0.6-5.8,1.7-9.2c1-2.9,1.9-5.8,2.9-8.6c-0.2-0.5-0.5-0.7-0.7-0.7c-0.2,0-0.5,0.2-0.9,0.5
				c-0.4,0.3-0.7,0.5-0.9,0.5c-0.2,0-0.4-0.1-0.6-0.2c2.4-2.6,5.5-3.9,9.4-3.9c1.2,0,2.5,0.1,3.8,0.4c1.8,0.4,3.4,2,4.8,4.9
				c0,0,0,0.5,0,1.6c0,0.6-0.2,1-0.6,1.2c1.4,7.1,3.3,12.4,5.7,16c-2.8-2.6-5-6.9-6.6-12.9c-0.1,0.6-0.1,1.2-0.1,1.7
				c0,4.6,2.3,8.6,6.8,12.2l1.9,1c-0.5,0-0.8,0.1-0.9,0.4C238.9,278.6,240.1,279.1,241.4,279.4z M217.1,281.5
				c-0.5,0-1.1,0.1-1.6,0.2c-0.7,0.1-1.1,0.4-1.2,0.9L217.1,281.5z M226.6,261.4c0-1.9-1.1-2.8-3-2.8c-0.7,0-1.5,0.1-2.4,0.4
				c-2.1,1.9-3.5,4.6-4.4,8.3c-0.5,3.3-1.1,6.5-1.6,9.8l1.6,0.4c2.1-0.8,3.7-2.8,4.8-6c1.3-4.1,2.5-6.6,3.4-7.6
				c0.2,0.1,0.3,0.4,0.3,1l0.3-0.4c0-0.2,0-0.4,0-0.6c0-0.4,0.2-0.9,0.5-1.5C226.4,261.8,226.6,261.4,226.6,261.4z M239.5,280.8
				c-0.9-0.1-2,0-3.5,0.4c1.5,0.2,2.2,0.4,2,0.4C238.7,281.5,239.2,281.3,239.5,280.8z"/>
			<path d="M262.4,256.3l-0.9,3.8c-0.5,0.2-1.1,0.3-1.6,0.3c-0.7,0-1.7-0.2-3.1-0.7c-1.3-0.5-2.3-0.7-3.1-0.7
				c-0.5,0-1.1,0.1-1.6,0.2c-1.8,1.4-2.7,3.5-2.7,6c0,1,0.2,2.5,0.5,4.6c0.3,2.1,0.5,3.6,0.4,4.6c1,1.8,1.5,3.2,1.5,4
				c0,1.1-0.4,2.1-1.3,3c-0.8,1-1.8,1.5-2.8,1.6c-1.8-1-3-2.4-3.6-4.3c-0.4-1.3-0.6-3.2-0.6-5.6c0-0.2,0-0.6,0-1.1
				c0-0.5,0-0.8,0-1.1c0-3.6-0.6-6.3-1.7-8l0.6-0.6l-0.9-0.9c0.2-0.1,0.3-0.3,0.3-0.5c0-0.1-0.1-0.4-0.4-0.8
				c-0.3-0.4-0.4-0.7-0.4-0.9c0-2.4,0.2-4.2,0.9-5.4c0.1,0.2,0.3,0.4,0.4,0.4c0.1,0,0.3-0.1,0.5-0.4c0.2-0.2,0.4-0.4,0.6-0.4
				c0.8,1.5,1.7,2.3,2.7,2.3c0.7,0,1.9-0.6,3.5-1.9c1.6-1.2,2.9-1.8,3.9-1.7C258,252.3,260.9,253.6,262.4,256.3z"/>
			<path d="M290.6,270.1c-1.7,3.9-4.5,6.8-8.2,8.8c-3.2,1.7-6.9,2.6-10.9,2.6c-0.3,0-1.3,0.4-3,0.9c-1.2,0.4-2.3,0.6-3,0.6
				c-0.4,0-0.7,0-1.1-0.1c-0.9-0.8-1.6-1.9-2.1-3.5c-0.8-2.4-1.2-3.7-1.3-3.8c0.1-0.3,0.1-0.6,0.1-0.9c0-0.3-0.1-0.9-0.4-1.6
				c-0.3-0.7-0.4-1.3-0.4-1.7c-0.1-4.3,0.6-7.4,2.2-9.1c0.2-2.9,0.3-6.7,0.3-11.4c0-5.9,0-9.6,0.1-11.3c0.1-3.6,0.4-6.7,0.9-9.4
				c0.5-1,1.2-1.5,2.2-1.5c0.7,0,1.4,0.3,2,0.8c0.6,0.6,1,1.3,1.1,2.1l0.9,20.7l0.9,1.1c3.7-1.2,6.3-1.8,7.6-1.8
				c0.9,0,1.8,0.1,2.6,0.4C287.2,258.1,290.4,264.1,290.6,270.1z M264.7,265.3c-0.9,0.7-1.6,2.2-2.2,4.4h0.6c0-0.7,0.3-1.4,0.6-2.3
				C264.3,266.1,264.6,265.4,264.7,265.3z M267.8,278.9c-0.1-0.2-0.4-0.4-0.9-0.4c-1,0.4-1.4,1-1.2,1.8c0.2,0.1,0.4,0.2,0.5,0.2
				c0.3,0,0.5-0.3,0.8-0.8C267.1,279.2,267.4,278.9,267.8,278.9z M277.6,274.9c-1.1,0.2-2.5,0.3-4.5,0.4c-2.2,0-3.6,0.1-4.5,0.3
				c-0.5,0.5-0.7,0.9-0.6,1.1L277.6,274.9z M288.1,263.8c-3.5,3.3-6.9,5.5-10.2,6.6c-0.7,0.5-2.4,0.8-5.3,0.9
				c-2.3,0.1-3.8,0.9-4.6,2.4c3.7-0.8,7.5-1.6,11.2-2.4C283.5,270,286.5,267.5,288.1,263.8z M281.4,265.3l-0.4-1.5
				c-0.2-0.7-0.7-1.4-1.5-2c-1.2-1-1.8-1.5-1.9-1.6c-0.5-0.2-1-0.4-1.6-0.4c-1,0-2.2,0.4-3.7,1.1c-1.1,0.4-1.8,1.2-2.2,2.3
				c-0.2,0.7-0.3,1.8-0.3,3.4c0,1.6-0.1,2.8-0.3,3.4c2.8-0.7,4.8-1.3,6-1.8C277.9,267.5,279.8,266.5,281.4,265.3z M272.1,258.6h-0.9
				l-0.6,0.4L272.1,258.6z M285,263.8l-4.3,3.7l2.2-1.1L285,263.8z"/>
		</g>
		<path d="M207.3,335.1c-0.6,0-1,0.4-1.2,1.3c-0.2,0.9-0.7,1.4-1.3,1.5l-17.6-0.3c-0.9-0.2-1.5-0.9-1.8-2c-0.1-1-0.3-2-0.4-3
			c0.5-0.2,0.8-0.5,0.8-0.9c0-1.2,0-1.8-0.1-1.6c3.1-4.6,5.1-7.6,5.8-8.8c2-3.4,3.5-6.5,4.4-9.4c0-0.3,0.1-0.8,0.3-1.5
			c0.2-0.6,0.2-1.1,0.2-1.5c0-0.2,0-0.4,0-0.7c-1.9-1.6-3.4-2.3-4.6-2.3c-0.4,0-0.7,0-1.1,0.1c-1.1-0.1-2.4,0.4-3.9,1.4
			c-1.6,1-2.8,1.6-3.6,1.6c-0.4,0-0.8-0.1-1.2-0.2c0-0.2-0.1-0.6-0.3-1.2c-0.1-0.5-0.2-0.9-0.2-1.3c0-0.2,0-0.4,0-0.5
			c2.6-3,5.8-4.5,9.8-4.5c1.3,0,2.7,0.2,4,0.6c0.6,0.3,1.1,0.6,1.7,0.9c0.6,0.4,1,1,1.1,1.6c1.1,0.4,1.7,1.3,1.7,2.5
			c0.1-0.1,0.3-0.5,0.5-1.1c1.2,1,1.7,2.6,1.7,4.7c0,0.7-0.1,1.4-0.3,2.1c-0.6,2.4-1.6,4.7-2.9,7c-0.5,0-0.9,0.3-1.1,0.9
			c-0.3,0.8-0.5,1.3-0.7,1.4c-0.4,0.8-1.3,2-2.8,3.6c-1.4,1.6-2.3,2.9-2.7,3.9c5.7,0.5,10.7,2.2,15.1,5L207.3,335.1z M190.5,326.1
			c-0.3,0.1-0.7,0.5-1,1.2c-0.4,0.9-0.8,1.4-1,1.6c-0.1,0.2-0.3,0.3-0.6,0.3c-0.3,0-0.4,0.2-0.4,0.6h1
			C188.9,328.9,189.5,327.7,190.5,326.1z M198.9,313.3c-0.4,0-0.7-0.1-0.8-0.3c0.2-0.1,0.3-0.4,0.3-0.7c0-0.3,0.1-0.6,0.2-0.7
			c-1,2.1-2.6,5.3-4.9,9.5c-0.8,0.1-1.4,0.7-2,1.6c-0.4,0.9-0.8,1.7-1.2,2.6l0.3-0.3c0.2,0.2,0.3,0.5,0.3,0.9c0,0.4-0.2,1-0.6,1.8
			c-0.4,0.8-0.6,1.2-0.6,1.3c1.7-2.5,3.3-5.1,4.9-7.6C196.9,318.3,198.3,315.6,198.9,313.3z M205.6,335.9c-0.2-0.2-0.4-0.3-0.7-0.3
			c-0.5,0-0.7,0-0.8,0l0.7,0.6c-0.2,0.4-0.4,0.5-0.8,0.5c-0.2,0-0.5-0.1-0.9-0.3c-0.4-0.2-0.8-0.3-1-0.2c0.3,0,0.7,0.1,1.3,0.4
			c0.5,0.3,1,0.4,1.3,0.4c0.1,0,0.3,0,0.4,0C205.5,336.6,205.7,336.2,205.6,335.9z"/>
		<path d="M232.8,325.7c-0.7,2.9-1.3,4.9-1.9,6.2c-1,2.2-2.4,3.8-4,4.6c-2.6,1.2-5.3,1.9-8.2,1.9c-3,0-5.6-0.7-7.6-2.2
			c-3.8-2.7-5.7-6.7-5.7-12c0-1.3,0.1-2.6,0.4-3.9c0.9-4.7,3-9.7,6.5-14.9c0.2-0.1,0.5-0.3,1.1-0.8c0.4-0.4,0.8-0.5,1.2-0.5
			c0.2,0,0.3,0,0.5,0.1c-0.4,0.6-0.3,1.2,0.3,1.6c0.9-0.3,2-1,3.2-2c1.9-1.6,2.8-2.4,3-2.5l0.3,0.3c0,0-0.4,0.2-1.1,0.5
			c-0.4,0.2-0.7,0.4-0.9,0.8c0.1,0.2,0.1,0.3,0.1,0.5c0,0.2-0.1,0.5-0.2,0.9c-0.1,0.4-0.2,0.6-0.2,0.8c0,0.3,0.1,0.5,0.3,0.7
			c2.3-1.6,3.8-3.1,4.5-4.4c0.3-0.1,0.6-0.1,0.9-0.1c2.7,0,4.6,1.3,5.9,3.9c0.4,3.4,0.8,6.9,1.1,10.3
			C232.6,319.4,232.8,322.8,232.8,325.7z M226.3,313.3c0.1-0.2,0.1-0.4,0.1-0.7c0-0.3-0.1-0.7-0.2-1.2c-0.1-0.5-0.2-0.9-0.2-1.1
			c0-0.4,0.1-0.7,0.3-1.1c-0.1-0.4-0.4-0.9-1-1.4c-0.5-0.6-0.9-1.1-1-1.4c0,0-0.3,0-0.9,0c-0.4,0-0.6,0.1-0.8,0.3
			c-0.3-0.1-0.5-0.1-0.7-0.1c-0.7,0-1.4,0.4-2,1.3c-0.7,1.2-1.3,1.9-1.8,2.2c-2.1,5.5-3.2,9.8-3.2,12.9c0,1.6,0.2,3.1,0.7,4.5
			c0.9,2.2,2,3.3,3.2,3.3c0.3,0,0.5,0,0.8-0.1c2.3-1.9,3.9-4.5,5-7.9C225.3,320.7,225.9,317.5,226.3,313.3z M222.7,330.1l-2.5,3.2
			C221.7,332.2,222.5,331.1,222.7,330.1z M228.9,302.9c-1.7-0.2-3,0.1-3.9,0.9C225.9,303.6,227.2,303.3,228.9,302.9z M231.4,316.2
			v-1.3h-0.3v1.3H231.4z"/>
		<path d="M257.9,333.5c-0.1,0.2-0.3,0.3-0.6,0.4c-0.3,0.1-0.6,0.2-0.6,0.5l0.2,0.3c-0.6-0.1-1.2,0.3-1.6,1.2
			c-0.6,1-1.1,1.7-1.5,1.9c-1.9,0.7-3.9,1.1-6.1,1.1c-3.5,0-8.3-1.3-14.5-3.9c-0.2-0.1-0.3-0.4-0.3-1c0-0.4-0.1-0.7-0.4-0.7
			c-0.1,0-0.2,0-0.3,0c0.5-0.9,0.8-1.5,0.8-1.8c0-0.3-0.1-0.5-0.3-0.8c1-0.4,2.4-0.6,4.1-0.7c2.3-0.2,3.8-0.3,4.3-0.4
			c0.5-0.1,0.8-0.6,1-1.4c0.1-0.8,0.4-1.4,0.6-1.6c0-0.4,0-0.8,0-1.2c0-1.2,0.2-2.8,0.6-4.6c0.3-1.5,0.7-3,1-4.6
			c0.5-0.6,0.8-1.6,0.8-2.8c0-0.3,0-0.7,0-1.3c0-0.6,0-1,0-1.3c0-0.4,0-0.7,0-0.9l-0.5-0.6c-1.2,1.5-2.4,2.2-3.7,2
			c-0.5-0.3-0.9-0.8-1.1-1.4c-0.4-1-0.7-1.6-0.7-1.6c0.1-0.2,0.2-0.4,0.6-0.7c0.3-0.3,0.5-0.6,0.5-0.9l0.3,0.3l-0.5,0.6
			c0.2,0.1,0.4,0.1,0.6,0.1c0.2,0,0.6-0.1,1.1-0.2c0.5-0.2,0.9-0.2,1.2-0.1c0.9-1.4,1.4-2.4,1.4-2.9c0-0.2,0-0.5-0.1-0.7l-1.1-0.8
			c0.6-1.2,1.7-1.7,3.4-1.7c1.2,0,1.9,0.5,2.2,1.4c0.2-0.3,0.3-0.5,0.2-0.6c1.1,1.8,1.6,4,1.6,6.6c0,1.5-0.3,3.8-0.8,7
			c-0.5,3.2-0.8,5.5-0.8,7c-0.5,2.3-0.8,3.9-0.8,4.7c0,1,0.2,1.8,0.5,2.5c0.2,0.1,1.7,0.3,4.4,0.8c1.8,0.3,3.2,0.7,4.3,1.2
			C257.8,332.1,258.1,332.8,257.9,333.5z M254.8,334.4l-0.8-0.9c-0.4,0-2.7,0.2-7.1,0.4c-2.8,0.2-5.2,0.4-7,0.7
			c0.9,0,2.3-0.1,4.3-0.3c1.8-0.1,3.2-0.2,4.3-0.2c1.2,0,2.3,0.1,3.4,0.3c-0.3,0.2-0.4,0.3-0.5,0.3L254.8,334.4z"/>
		<path d="M278.9,315.4c0,2.1-0.6,5.3-1.7,9.5c-1,4-1.5,7.2-1.4,9.6c-0.1,1.1-0.2,2.2-0.3,3.3c-0.1,1.3-0.4,2.3-0.8,3.1h-1.5
			c0-0.1,0-0.3,0-0.4c0-0.4-0.3-0.8-1-1.2c-0.3,0.3-0.5,0.5-0.8,0.5c-0.3,0-0.6-0.2-1-0.5c-0.5-0.5-0.8-0.7-0.9-0.8
			c-0.3-0.9-0.5-1.9-0.5-3.1c0-0.7,0.1-1.7,0.2-3.1s0.2-2.4,0.3-3c0-0.4,0.1-1.1,0.3-2c0.2-0.9,0.3-1.6,0.3-2c0-0.6-0.1-1.2-0.4-1.6
			c-0.3,0.1-1.4,0.6-3.3,1.4c-1.3,0.6-2.5,1-3.4,1c-0.9,0-1.7-0.3-2.5-0.8c-1.2-0.8-2.2-1.8-2.9-3c-0.9-1.4-1.2-2.9-1.1-4.4
			c0.8-4,2.3-7.6,4.5-10.9c2.5-3.6,5.3-6,8.5-7.2c-0.1,0.5-0.3,1.2-0.7,2c0.5,0.1,1.1,0,1.9-0.4c1-0.5,1.6-0.8,1.9-0.9
			c0.8,0,1.6,0.5,2.5,1.5c0.7,0.8,1.3,1.6,2,2.4c0.1,0.7-0.1,1.1-0.8,1.1c-0.1,0-0.3,0-0.5,0c-0.2,0-0.4,0-0.5,0
			c-0.4,0-0.6,0.1-0.8,0.3c-0.3-0.1-0.7-0.1-1-0.1c-3.9,0-7.3,3.1-10.2,9.2c-0.4,1-0.5,2-0.5,3.1c0,1.2,0.2,2.1,0.7,2.8
			c0.2-0.1,0.5-0.3,0.9-0.7c-0.6,0.7-1.4,1.3-2.6,1.7c-1.6,0.5-2.5,0.9-2.8,1.1c0.2,0.4,0.5,0.7,1,0.9c0.4,0.1,0.9,0.3,1.2,0.4
			c2-0.7,4.4-2.8,7.4-6.3c0,0.2-0.2,0.5-0.6,0.9c-0.4,0.4-0.6,0.6-0.6,0.8c0,0.2,0.2,0.4,0.5,0.6c0.7-0.7,1.5-1.5,2.2-2.2
			c0.9-1,1.2-1.8,1.2-2.6l-1.8,2c0.2-0.8,0.6-1.6,1.2-2.6c0.5-0.8,1-1.6,1.5-2.4c0.2-0.3,0.2-0.7,0.2-1.2c0-0.2,0-0.5-0.1-0.9
			c0-0.4-0.1-0.7-0.1-0.9c0-0.9,0.5-1.2,1.4-1.1c0.3-0.5,0.5-0.7,0.9-0.7c0.2,0,0.6,0.1,1.1,0.4c0.5,0.3,0.9,0.4,1.2,0.3
			c1.1,0.5,1.6,1.6,1.8,3.2C278.9,312.6,278.9,314,278.9,315.4z M266.1,303.7c-1.1,1.2-2.3,3.1-3.6,5.6L266.1,303.7z M277.3,314.4
			c-0.4,1.9-0.7,4.7-1.1,8.6C276.6,321.2,277,318.3,277.3,314.4z M277.8,311.6v-1.3h-0.2v1.3H277.8z"/>
	</g>
</g>
</svg>
